%TF.GenerationSoftware,KiCad,Pcbnew,7.0.10*%
%TF.CreationDate,2024-02-12T16:57:49+10:00*%
%TF.ProjectId,devboard,64657662-6f61-4726-942e-6b696361645f,rev?*%
%TF.SameCoordinates,Original*%
%TF.FileFunction,Paste,Top*%
%TF.FilePolarity,Positive*%
%FSLAX46Y46*%
G04 Gerber Fmt 4.6, Leading zero omitted, Abs format (unit mm)*
G04 Created by KiCad (PCBNEW 7.0.10) date 2024-02-12 16:57:49*
%MOMM*%
%LPD*%
G01*
G04 APERTURE LIST*
G04 Aperture macros list*
%AMRoundRect*
0 Rectangle with rounded corners*
0 $1 Rounding radius*
0 $2 $3 $4 $5 $6 $7 $8 $9 X,Y pos of 4 corners*
0 Add a 4 corners polygon primitive as box body*
4,1,4,$2,$3,$4,$5,$6,$7,$8,$9,$2,$3,0*
0 Add four circle primitives for the rounded corners*
1,1,$1+$1,$2,$3*
1,1,$1+$1,$4,$5*
1,1,$1+$1,$6,$7*
1,1,$1+$1,$8,$9*
0 Add four rect primitives between the rounded corners*
20,1,$1+$1,$2,$3,$4,$5,0*
20,1,$1+$1,$4,$5,$6,$7,0*
20,1,$1+$1,$6,$7,$8,$9,0*
20,1,$1+$1,$8,$9,$2,$3,0*%
G04 Aperture macros list end*
%ADD10RoundRect,0.250000X0.350000X0.450000X-0.350000X0.450000X-0.350000X-0.450000X0.350000X-0.450000X0*%
%ADD11RoundRect,0.250000X-0.350000X-0.450000X0.350000X-0.450000X0.350000X0.450000X-0.350000X0.450000X0*%
%ADD12RoundRect,0.250000X0.325000X0.450000X-0.325000X0.450000X-0.325000X-0.450000X0.325000X-0.450000X0*%
%ADD13RoundRect,0.250000X-0.325000X-0.450000X0.325000X-0.450000X0.325000X0.450000X-0.325000X0.450000X0*%
%ADD14RoundRect,0.250000X0.450000X-0.350000X0.450000X0.350000X-0.450000X0.350000X-0.450000X-0.350000X0*%
%ADD15R,0.900000X1.000000*%
%ADD16R,0.550000X1.600000*%
%ADD17R,1.600000X0.550000*%
%ADD18RoundRect,0.150000X0.150000X0.425000X-0.150000X0.425000X-0.150000X-0.425000X0.150000X-0.425000X0*%
%ADD19RoundRect,0.075000X0.075000X0.500000X-0.075000X0.500000X-0.075000X-0.500000X0.075000X-0.500000X0*%
%ADD20O,1.000000X2.100000*%
%ADD21O,1.000000X1.800000*%
G04 APERTURE END LIST*
D10*
%TO.C,R6*%
X164830000Y-87884000D03*
X162830000Y-87884000D03*
%TD*%
D11*
%TO.C,R3*%
X166513000Y-101092000D03*
X168513000Y-101092000D03*
%TD*%
D12*
%TO.C,D4*%
X164728000Y-93472000D03*
X162678000Y-93472000D03*
%TD*%
D10*
%TO.C,R5*%
X161020000Y-87884000D03*
X159020000Y-87884000D03*
%TD*%
D13*
%TO.C,D2*%
X162678000Y-97282000D03*
X164728000Y-97282000D03*
%TD*%
D14*
%TO.C,R1*%
X159766000Y-120126000D03*
X159766000Y-118126000D03*
%TD*%
D11*
%TO.C,R4*%
X166513000Y-93472000D03*
X168513000Y-93472000D03*
%TD*%
D13*
%TO.C,D3*%
X162678000Y-101092000D03*
X164728000Y-101092000D03*
%TD*%
D15*
%TO.C,SW1*%
X161780000Y-118326000D03*
X165880000Y-118326000D03*
X161780000Y-119926000D03*
X165880000Y-119926000D03*
%TD*%
D11*
%TO.C,R2*%
X166513000Y-97282000D03*
X168513000Y-97282000D03*
%TD*%
D16*
%TO.C,U1*%
X161030000Y-113470000D03*
X161830000Y-113470000D03*
X162630000Y-113470000D03*
X163430000Y-113470000D03*
X164230000Y-113470000D03*
X165030000Y-113470000D03*
X165830000Y-113470000D03*
X166630000Y-113470000D03*
D17*
X168080000Y-112020000D03*
X168080000Y-111220000D03*
X168080000Y-110420000D03*
X168080000Y-109620000D03*
X168080000Y-108820000D03*
X168080000Y-108020000D03*
X168080000Y-107220000D03*
X168080000Y-106420000D03*
D16*
X166630000Y-104970000D03*
X165830000Y-104970000D03*
X165030000Y-104970000D03*
X164230000Y-104970000D03*
X163430000Y-104970000D03*
X162630000Y-104970000D03*
X161830000Y-104970000D03*
X161030000Y-104970000D03*
D17*
X159580000Y-106420000D03*
X159580000Y-107220000D03*
X159580000Y-108020000D03*
X159580000Y-108820000D03*
X159580000Y-109620000D03*
X159580000Y-110420000D03*
X159580000Y-111220000D03*
X159580000Y-112020000D03*
%TD*%
D12*
%TO.C,D1*%
X168665000Y-87884000D03*
X166615000Y-87884000D03*
%TD*%
D18*
%TO.C,J1*%
X167030000Y-85468000D03*
X166230000Y-85468000D03*
D19*
X165080000Y-85468000D03*
X164080000Y-85468000D03*
X163580000Y-85468000D03*
X162580000Y-85468000D03*
D18*
X161430000Y-85468000D03*
X160630000Y-85468000D03*
X160630000Y-85468000D03*
X161430000Y-85468000D03*
D19*
X162080000Y-85468000D03*
X163080000Y-85468000D03*
X164580000Y-85468000D03*
X165580000Y-85468000D03*
D18*
X166230000Y-85468000D03*
X167030000Y-85468000D03*
D20*
X168150000Y-84893000D03*
D21*
X168150000Y-80713000D03*
D20*
X159510000Y-84893000D03*
D21*
X159510000Y-80713000D03*
%TD*%
M02*
