%TF.GenerationSoftware,KiCad,Pcbnew,7.0.10*%
%TF.CreationDate,2024-02-12T16:57:49+10:00*%
%TF.ProjectId,devboard,64657662-6f61-4726-942e-6b696361645f,rev?*%
%TF.SameCoordinates,Original*%
%TF.FileFunction,Copper,L2,Bot*%
%TF.FilePolarity,Positive*%
%FSLAX46Y46*%
G04 Gerber Fmt 4.6, Leading zero omitted, Abs format (unit mm)*
G04 Created by KiCad (PCBNEW 7.0.10) date 2024-02-12 16:57:49*
%MOMM*%
%LPD*%
G01*
G04 APERTURE LIST*
G04 Aperture macros list*
%AMRoundRect*
0 Rectangle with rounded corners*
0 $1 Rounding radius*
0 $2 $3 $4 $5 $6 $7 $8 $9 X,Y pos of 4 corners*
0 Add a 4 corners polygon primitive as box body*
4,1,4,$2,$3,$4,$5,$6,$7,$8,$9,$2,$3,0*
0 Add four circle primitives for the rounded corners*
1,1,$1+$1,$2,$3*
1,1,$1+$1,$4,$5*
1,1,$1+$1,$6,$7*
1,1,$1+$1,$8,$9*
0 Add four rect primitives between the rounded corners*
20,1,$1+$1,$2,$3,$4,$5,0*
20,1,$1+$1,$4,$5,$6,$7,0*
20,1,$1+$1,$6,$7,$8,$9,0*
20,1,$1+$1,$8,$9,$2,$3,0*%
G04 Aperture macros list end*
%TA.AperFunction,ComponentPad*%
%ADD10R,1.700000X1.700000*%
%TD*%
%TA.AperFunction,ComponentPad*%
%ADD11O,1.700000X1.700000*%
%TD*%
%TA.AperFunction,ComponentPad*%
%ADD12C,1.600000*%
%TD*%
%TA.AperFunction,ComponentPad*%
%ADD13O,1.000000X2.100000*%
%TD*%
%TA.AperFunction,ComponentPad*%
%ADD14O,1.000000X1.800000*%
%TD*%
%TA.AperFunction,SMDPad,CuDef*%
%ADD15RoundRect,0.100000X-0.637500X-0.100000X0.637500X-0.100000X0.637500X0.100000X-0.637500X0.100000X0*%
%TD*%
%TA.AperFunction,SMDPad,CuDef*%
%ADD16R,2.100000X1.800000*%
%TD*%
%TA.AperFunction,SMDPad,CuDef*%
%ADD17R,2.000000X1.500000*%
%TD*%
%TA.AperFunction,SMDPad,CuDef*%
%ADD18R,2.000000X3.800000*%
%TD*%
%TA.AperFunction,SMDPad,CuDef*%
%ADD19RoundRect,0.250000X-0.475000X0.337500X-0.475000X-0.337500X0.475000X-0.337500X0.475000X0.337500X0*%
%TD*%
%TA.AperFunction,SMDPad,CuDef*%
%ADD20RoundRect,0.250000X0.475000X-0.337500X0.475000X0.337500X-0.475000X0.337500X-0.475000X-0.337500X0*%
%TD*%
%TA.AperFunction,ViaPad*%
%ADD21C,0.800000*%
%TD*%
%TA.AperFunction,Conductor*%
%ADD22C,0.254000*%
%TD*%
%TA.AperFunction,Conductor*%
%ADD23C,0.381000*%
%TD*%
%TA.AperFunction,Conductor*%
%ADD24C,0.508000*%
%TD*%
%TA.AperFunction,Conductor*%
%ADD25C,0.250000*%
%TD*%
G04 APERTURE END LIST*
D10*
%TO.P,J4,1,Pin_1*%
%TO.N,+3.3V*%
X175260000Y-91445000D03*
D11*
%TO.P,J4,2,Pin_2*%
%TO.N,GND*%
X175260000Y-93985000D03*
%TO.P,J4,3,Pin_3*%
X175260000Y-96525000D03*
%TO.P,J4,4,Pin_4*%
%TO.N,/VIN*%
X175260000Y-99065000D03*
%TO.P,J4,5,Pin_5*%
%TO.N,/AREF*%
X175260000Y-101605000D03*
%TO.P,J4,6,Pin_6*%
%TO.N,/ADC6*%
X175260000Y-104145000D03*
%TO.P,J4,7,Pin_7*%
%TO.N,/SCK*%
X175260000Y-106685000D03*
%TO.P,J4,8,Pin_8*%
%TO.N,/MISO*%
X175260000Y-109225000D03*
%TO.P,J4,9,Pin_9*%
%TO.N,/MOSI*%
X175260000Y-111765000D03*
%TO.P,J4,10,Pin_10*%
%TO.N,/PB2*%
X175260000Y-114305000D03*
%TO.P,J4,11,Pin_11*%
%TO.N,/PB1*%
X175260000Y-116845000D03*
%TO.P,J4,12,Pin_12*%
%TO.N,/PB0*%
X175260000Y-119385000D03*
%TO.P,J4,13,Pin_13*%
%TO.N,/PD7*%
X175260000Y-121925000D03*
%TO.P,J4,14,Pin_14*%
%TO.N,/PD6*%
X175260000Y-124465000D03*
%TO.P,J4,15,Pin_15*%
%TO.N,/PD5*%
X175260000Y-127005000D03*
%TD*%
D10*
%TO.P,J2,1,MISO*%
%TO.N,/MISO*%
X161305000Y-127005000D03*
D11*
%TO.P,J2,2,VCC*%
%TO.N,+3.3V*%
X161305000Y-124465000D03*
%TO.P,J2,3,SCK*%
%TO.N,/SCK*%
X163845000Y-127005000D03*
%TO.P,J2,4,MOSI*%
%TO.N,/MOSI*%
X163845000Y-124465000D03*
%TO.P,J2,5,~{RST}*%
%TO.N,/RST*%
X166385000Y-127005000D03*
%TO.P,J2,6,GND*%
%TO.N,GND*%
X166385000Y-124465000D03*
%TD*%
D12*
%TO.P,SW3,1,A*%
%TO.N,+3.3V*%
X152400000Y-85852000D03*
%TO.P,SW3,2,B*%
%TO.N,/VDD_UART*%
X152400000Y-83312000D03*
%TO.P,SW3,3,C*%
%TO.N,GND*%
X152400000Y-80772000D03*
%TD*%
%TO.P,SW2,1,A*%
%TO.N,/VIN*%
X175260000Y-85852000D03*
%TO.P,SW2,2,B*%
%TO.N,Net-(SW2-B)*%
X175260000Y-83312000D03*
%TO.P,SW2,3,C*%
%TO.N,GND*%
X175260000Y-80772000D03*
%TD*%
D10*
%TO.P,J3,1,Pin_1*%
%TO.N,+3.3V*%
X152400000Y-91445000D03*
D11*
%TO.P,J3,2,Pin_2*%
%TO.N,GND*%
X152400000Y-93985000D03*
%TO.P,J3,3,Pin_3*%
%TO.N,/ADC7*%
X152400000Y-96525000D03*
%TO.P,J3,4,Pin_4*%
%TO.N,/PC0*%
X152400000Y-99065000D03*
%TO.P,J3,5,Pin_5*%
%TO.N,/PC1*%
X152400000Y-101605000D03*
%TO.P,J3,6,Pin_6*%
%TO.N,/PC2*%
X152400000Y-104145000D03*
%TO.P,J3,7,Pin_7*%
%TO.N,/PC3*%
X152400000Y-106685000D03*
%TO.P,J3,8,Pin_8*%
%TO.N,/PC4*%
X152400000Y-109225000D03*
%TO.P,J3,9,Pin_9*%
%TO.N,/PC5*%
X152400000Y-111765000D03*
%TO.P,J3,10,Pin_10*%
%TO.N,/RST*%
X152400000Y-114305000D03*
%TO.P,J3,11,Pin_11*%
%TO.N,/RXD*%
X152400000Y-116845000D03*
%TO.P,J3,12,Pin_12*%
%TO.N,/TXD*%
X152400000Y-119385000D03*
%TO.P,J3,13,Pin_13*%
%TO.N,/PD2*%
X152400000Y-121925000D03*
%TO.P,J3,14,Pin_14*%
%TO.N,/PD3*%
X152400000Y-124465000D03*
%TO.P,J3,15,Pin_15*%
%TO.N,/PD4*%
X152400000Y-127005000D03*
%TD*%
D13*
%TO.P,J1,S1,SHIELD*%
%TO.N,GND*%
X168150000Y-84893000D03*
D14*
X168150000Y-80713000D03*
D13*
X159510000Y-84893000D03*
D14*
X159510000Y-80713000D03*
%TD*%
D15*
%TO.P,U2,1,VDD*%
%TO.N,/VDD_UART*%
X160967500Y-111170000D03*
%TO.P,U2,2,GP0*%
%TO.N,Net-(D3-K)*%
X160967500Y-110520000D03*
%TO.P,U2,3,GP1*%
%TO.N,Net-(D2-K)*%
X160967500Y-109870000D03*
%TO.P,U2,4,~{RST}*%
%TO.N,unconnected-(U2-~{RST}-Pad4)*%
X160967500Y-109220000D03*
%TO.P,U2,5,URx*%
%TO.N,/TXD*%
X160967500Y-108570000D03*
%TO.P,U2,6,UTx*%
%TO.N,/RXD*%
X160967500Y-107920000D03*
%TO.P,U2,7,GP2*%
%TO.N,unconnected-(U2-GP2-Pad7)*%
X160967500Y-107270000D03*
%TO.P,U2,8,GP3*%
%TO.N,unconnected-(U2-GP3-Pad8)*%
X166692500Y-107270000D03*
%TO.P,U2,9,SDA*%
%TO.N,unconnected-(U2-SDA-Pad9)*%
X166692500Y-107920000D03*
%TO.P,U2,10,SCL*%
%TO.N,unconnected-(U2-SCL-Pad10)*%
X166692500Y-108570000D03*
%TO.P,U2,11,VUSB*%
%TO.N,Net-(U2-VUSB)*%
X166692500Y-109220000D03*
%TO.P,U2,12,D-*%
%TO.N,/D-*%
X166692500Y-109870000D03*
%TO.P,U2,13,D+*%
%TO.N,/D+*%
X166692500Y-110520000D03*
%TO.P,U2,14,VSS*%
%TO.N,GND*%
X166692500Y-111170000D03*
%TD*%
D16*
%TO.P,Y1,1,1*%
%TO.N,Net-(U1-XTAL2{slash}PB7)*%
X165280000Y-120276000D03*
%TO.P,Y1,2,2*%
%TO.N,GND*%
X162380000Y-120276000D03*
%TO.P,Y1,3,3*%
%TO.N,Net-(U1-XTAL1{slash}PB6)*%
X162380000Y-117976000D03*
%TO.P,Y1,4,4*%
%TO.N,GND*%
X165280000Y-117976000D03*
%TD*%
D17*
%TO.P,U3,1,VI*%
%TO.N,Net-(SW2-B)*%
X165964000Y-94474000D03*
%TO.P,U3,2,GND*%
%TO.N,GND*%
X165964000Y-96774000D03*
D18*
X159664000Y-96774000D03*
D17*
%TO.P,U3,3,VO*%
%TO.N,+3.3V*%
X165964000Y-99074000D03*
%TD*%
D19*
%TO.P,C2,1*%
%TO.N,GND*%
X167894000Y-118088500D03*
%TO.P,C2,2*%
%TO.N,Net-(U1-XTAL2{slash}PB7)*%
X167894000Y-120163500D03*
%TD*%
%TO.P,C3,1*%
%TO.N,Net-(SW2-B)*%
X168402000Y-93704500D03*
%TO.P,C3,2*%
%TO.N,GND*%
X168402000Y-95779500D03*
%TD*%
%TO.P,C4,1*%
%TO.N,GND*%
X168402000Y-97768500D03*
%TO.P,C4,2*%
%TO.N,+3.3V*%
X168402000Y-99843500D03*
%TD*%
D20*
%TO.P,C1,1*%
%TO.N,GND*%
X159766000Y-120163500D03*
%TO.P,C1,2*%
%TO.N,Net-(U1-XTAL1{slash}PB6)*%
X159766000Y-118088500D03*
%TD*%
%TO.P,C5,1*%
%TO.N,GND*%
X168910000Y-111019500D03*
%TO.P,C5,2*%
%TO.N,Net-(U2-VUSB)*%
X168910000Y-108944500D03*
%TD*%
D21*
%TO.N,GND*%
X164211000Y-111125000D03*
X163703000Y-115316000D03*
%TO.N,Net-(U1-XTAL1{slash}PB6)*%
X165608000Y-115062000D03*
%TO.N,Net-(U1-XTAL2{slash}PB7)*%
X166624000Y-115062000D03*
%TO.N,+3.3V*%
X165030000Y-106699000D03*
%TO.N,Net-(D2-K)*%
X162179000Y-98806000D03*
%TO.N,Net-(D3-K)*%
X162941000Y-102616000D03*
%TO.N,/D+*%
X163068000Y-83820000D03*
%TO.N,/D-*%
X164211000Y-83820000D03*
%TO.N,/MOSI*%
X169672000Y-128078000D03*
%TO.N,/RST*%
X157988000Y-117348000D03*
%TO.N,/VDD_UART*%
X170307000Y-100203000D03*
%TO.N,/RXD*%
X157536520Y-110382423D03*
%TO.N,/TXD*%
X158242000Y-111252000D03*
%TD*%
D22*
%TO.N,/MOSI*%
X172593000Y-114432000D02*
X175260000Y-111765000D01*
X169672000Y-128078000D02*
X172593000Y-125157000D01*
X172593000Y-125157000D02*
X172593000Y-114432000D01*
%TO.N,/MISO*%
X175260000Y-109225000D02*
X171450000Y-113035000D01*
X170114052Y-126184000D02*
X170107000Y-126184000D01*
X171450000Y-113035000D02*
X171450000Y-124848052D01*
X171450000Y-124848052D02*
X170114052Y-126184000D01*
X170107000Y-126184000D02*
X167940000Y-128351000D01*
X167940000Y-128351000D02*
X162651000Y-128351000D01*
X162651000Y-128351000D02*
X161305000Y-127005000D01*
%TO.N,/VDD_UART*%
X161811500Y-112014000D02*
X160967500Y-111170000D01*
X170307000Y-111506000D02*
X169799000Y-112014000D01*
X170307000Y-100203000D02*
X170307000Y-111506000D01*
X169799000Y-112014000D02*
X161811500Y-112014000D01*
D23*
%TO.N,GND*%
X152400000Y-80772000D02*
X151112500Y-82059500D01*
X151112500Y-82059500D02*
X151112500Y-92697500D01*
X151112500Y-92697500D02*
X152400000Y-93985000D01*
X175260000Y-80772000D02*
X176547500Y-82059500D01*
X176547500Y-92697500D02*
X175260000Y-93985000D01*
X176547500Y-82059500D02*
X176547500Y-92697500D01*
X165964000Y-96774000D02*
X167407500Y-96774000D01*
X167407500Y-96774000D02*
X168402000Y-97768500D01*
X167407500Y-96774000D02*
X168402000Y-95779500D01*
D24*
%TO.N,+3.3V*%
X168402000Y-99843500D02*
X169269500Y-99843500D01*
X171196000Y-92837000D02*
X172588000Y-91445000D01*
X169269500Y-99843500D02*
X171196000Y-97917000D01*
X171196000Y-97917000D02*
X171196000Y-92837000D01*
X172588000Y-91445000D02*
X175260000Y-91445000D01*
D25*
%TO.N,GND*%
X165280000Y-117976000D02*
X164980000Y-117976000D01*
X164980000Y-117976000D02*
X162680000Y-120276000D01*
X162680000Y-120276000D02*
X162380000Y-120276000D01*
X164256000Y-111170000D02*
X166692500Y-111170000D01*
D22*
X168759500Y-111170000D02*
X168910000Y-111019500D01*
X166692500Y-111170000D02*
X168759500Y-111170000D01*
D25*
X164211000Y-111125000D02*
X164256000Y-111170000D01*
D22*
%TO.N,Net-(U1-XTAL1{slash}PB6)*%
X162267500Y-118088500D02*
X162380000Y-117976000D01*
X159766000Y-118088500D02*
X162267500Y-118088500D01*
X162694000Y-117976000D02*
X162380000Y-117976000D01*
X165608000Y-115062000D02*
X162694000Y-117976000D01*
%TO.N,Net-(U1-XTAL2{slash}PB7)*%
X166624000Y-116749000D02*
X166842000Y-116967000D01*
X166842000Y-116967000D02*
X166842000Y-119111500D01*
X166842000Y-119111500D02*
X167894000Y-120163500D01*
X165392500Y-120163500D02*
X165280000Y-120276000D01*
X166624000Y-115062000D02*
X166624000Y-116749000D01*
X167894000Y-120163500D02*
X165392500Y-120163500D01*
D23*
%TO.N,Net-(SW2-B)*%
X175133000Y-83312000D02*
X168402000Y-90043000D01*
X168402000Y-90043000D02*
X168402000Y-93704500D01*
D24*
X166733500Y-93704500D02*
X165964000Y-94474000D01*
D23*
X175260000Y-83312000D02*
X175133000Y-83312000D01*
D24*
X168402000Y-93704500D02*
X166733500Y-93704500D01*
%TO.N,+3.3V*%
X168402000Y-99843500D02*
X166733500Y-99843500D01*
X165964000Y-99074000D02*
X165964000Y-105765000D01*
X166733500Y-99843500D02*
X165964000Y-99074000D01*
X165964000Y-105765000D02*
X165030000Y-106699000D01*
D22*
%TO.N,Net-(U2-VUSB)*%
X168634500Y-109220000D02*
X166692500Y-109220000D01*
X168910000Y-108944500D02*
X168634500Y-109220000D01*
%TO.N,Net-(D2-K)*%
X162179000Y-98806000D02*
X162179000Y-109352640D01*
X162179000Y-109352640D02*
X161661640Y-109870000D01*
X161661640Y-109870000D02*
X160967500Y-109870000D01*
%TO.N,Net-(D3-K)*%
X162032000Y-110149640D02*
X162032000Y-110141693D01*
X161661640Y-110520000D02*
X162032000Y-110149640D01*
X162941000Y-109232693D02*
X162941000Y-102616000D01*
X160967500Y-110520000D02*
X161661640Y-110520000D01*
X162032000Y-110141693D02*
X162941000Y-109232693D01*
%TO.N,/D+*%
X163757000Y-84509000D02*
X163757000Y-108516693D01*
X163068000Y-83820000D02*
X163757000Y-84509000D01*
X165760308Y-110520000D02*
X166692500Y-110520000D01*
X163757000Y-108516693D02*
X165760308Y-110520000D01*
%TO.N,/D-*%
X164211000Y-108328640D02*
X165752360Y-109870000D01*
X165752360Y-109870000D02*
X166692500Y-109870000D01*
X164211000Y-83820000D02*
X164211000Y-108328640D01*
%TO.N,/SCK*%
X169926000Y-125730000D02*
X165120000Y-125730000D01*
X175260000Y-106685000D02*
X170942000Y-111003000D01*
X170942000Y-124714000D02*
X169926000Y-125730000D01*
X170942000Y-111003000D02*
X170942000Y-124714000D01*
X165120000Y-125730000D02*
X163845000Y-127005000D01*
%TO.N,/RST*%
X155443000Y-117348000D02*
X152400000Y-114305000D01*
X157988000Y-117348000D02*
X155443000Y-117348000D01*
%TO.N,/RXD*%
X159998943Y-107920000D02*
X160967500Y-107920000D01*
X157536520Y-110382423D02*
X159998943Y-107920000D01*
%TO.N,/TXD*%
X160230001Y-108570000D02*
X160967500Y-108570000D01*
X158242000Y-110558001D02*
X160230001Y-108570000D01*
X158242000Y-111252000D02*
X158242000Y-110558001D01*
%TD*%
%TA.AperFunction,Conductor*%
%TO.N,GND*%
G36*
X176680539Y-78425185D02*
G01*
X176726294Y-78477989D01*
X176737500Y-78529500D01*
X176737500Y-80321414D01*
X176717815Y-80388453D01*
X176665011Y-80434208D01*
X176595853Y-80444152D01*
X176532297Y-80415127D01*
X176494523Y-80356349D01*
X176493725Y-80353508D01*
X176486268Y-80325680D01*
X176486264Y-80325668D01*
X176390136Y-80119521D01*
X176390132Y-80119513D01*
X176339025Y-80046526D01*
X175657953Y-80727598D01*
X175645165Y-80646852D01*
X175587641Y-80533955D01*
X175498045Y-80444359D01*
X175385148Y-80386835D01*
X175304401Y-80374046D01*
X175985472Y-79692974D01*
X175912478Y-79641863D01*
X175706331Y-79545735D01*
X175706317Y-79545730D01*
X175486610Y-79486860D01*
X175486599Y-79486858D01*
X175260002Y-79467034D01*
X175259998Y-79467034D01*
X175033400Y-79486858D01*
X175033389Y-79486860D01*
X174813682Y-79545730D01*
X174813673Y-79545734D01*
X174607516Y-79641866D01*
X174607512Y-79641868D01*
X174534526Y-79692973D01*
X174534526Y-79692974D01*
X175215599Y-80374046D01*
X175134852Y-80386835D01*
X175021955Y-80444359D01*
X174932359Y-80533955D01*
X174874835Y-80646852D01*
X174862046Y-80727598D01*
X174180974Y-80046526D01*
X174180973Y-80046526D01*
X174129868Y-80119512D01*
X174129866Y-80119516D01*
X174033734Y-80325673D01*
X174033730Y-80325682D01*
X173974860Y-80545389D01*
X173974858Y-80545400D01*
X173955034Y-80771997D01*
X173955034Y-80772002D01*
X173974858Y-80998599D01*
X173974860Y-80998610D01*
X174033730Y-81218317D01*
X174033735Y-81218331D01*
X174129863Y-81424478D01*
X174180974Y-81497472D01*
X174862046Y-80816400D01*
X174874835Y-80897148D01*
X174932359Y-81010045D01*
X175021955Y-81099641D01*
X175134852Y-81157165D01*
X175215599Y-81169953D01*
X174534526Y-81851025D01*
X174607513Y-81902132D01*
X174607521Y-81902136D01*
X174665864Y-81929342D01*
X174718304Y-81975514D01*
X174737456Y-82042707D01*
X174717241Y-82109589D01*
X174665866Y-82154105D01*
X174607272Y-82181428D01*
X174607265Y-82181432D01*
X174420858Y-82311954D01*
X174259954Y-82472858D01*
X174129432Y-82659265D01*
X174129431Y-82659267D01*
X174033261Y-82865502D01*
X174033258Y-82865511D01*
X173974366Y-83085302D01*
X173974364Y-83085313D01*
X173954532Y-83311998D01*
X173954532Y-83312002D01*
X173965682Y-83439453D01*
X173951915Y-83507953D01*
X173929835Y-83537941D01*
X167930804Y-89536972D01*
X167925352Y-89542104D01*
X167880986Y-89581410D01*
X167880976Y-89581421D01*
X167847298Y-89630212D01*
X167842861Y-89636243D01*
X167806312Y-89682894D01*
X167806311Y-89682896D01*
X167802271Y-89691873D01*
X167791253Y-89711408D01*
X167785655Y-89719519D01*
X167764632Y-89774949D01*
X167761768Y-89781865D01*
X167737442Y-89835916D01*
X167735666Y-89845606D01*
X167729645Y-89867203D01*
X167726152Y-89876414D01*
X167726152Y-89876415D01*
X167719006Y-89935265D01*
X167717879Y-89942667D01*
X167707195Y-90000969D01*
X167707195Y-90000972D01*
X167710774Y-90060137D01*
X167711000Y-90067624D01*
X167711000Y-92558403D01*
X167691315Y-92625442D01*
X167638511Y-92671197D01*
X167626006Y-92676108D01*
X167607668Y-92682184D01*
X167458342Y-92774289D01*
X167334289Y-92898342D01*
X167330678Y-92902910D01*
X167273656Y-92943287D01*
X167233411Y-92950000D01*
X166797492Y-92950000D01*
X166779523Y-92948691D01*
X166755589Y-92945185D01*
X166710495Y-92949131D01*
X166705957Y-92949528D01*
X166695153Y-92950000D01*
X166689555Y-92950000D01*
X166658591Y-92953619D01*
X166655004Y-92953985D01*
X166579893Y-92960556D01*
X166572819Y-92962017D01*
X166572808Y-92961965D01*
X166565332Y-92963622D01*
X166565345Y-92963674D01*
X166558312Y-92965340D01*
X166487425Y-92991139D01*
X166484025Y-92992321D01*
X166412462Y-93016036D01*
X166405920Y-93019087D01*
X166405897Y-93019039D01*
X166399007Y-93022375D01*
X166399031Y-93022422D01*
X166392576Y-93025663D01*
X166329567Y-93067104D01*
X166326530Y-93069039D01*
X166262346Y-93108630D01*
X166256679Y-93113111D01*
X166256646Y-93113069D01*
X166250714Y-93117901D01*
X166250748Y-93117942D01*
X166245212Y-93122587D01*
X166193444Y-93177456D01*
X166190933Y-93180041D01*
X166183793Y-93187181D01*
X166122470Y-93220666D01*
X166096112Y-93223500D01*
X164962500Y-93223500D01*
X164895461Y-93203815D01*
X164849706Y-93151011D01*
X164838500Y-93099500D01*
X164838500Y-84516465D01*
X164858185Y-84449426D01*
X164870343Y-84433500D01*
X164906809Y-84393001D01*
X166135500Y-84393001D01*
X166155415Y-84544278D01*
X166155416Y-84544280D01*
X166213806Y-84685247D01*
X166213807Y-84685249D01*
X166213808Y-84685250D01*
X166306696Y-84806304D01*
X166427750Y-84899192D01*
X166427751Y-84899192D01*
X166427752Y-84899193D01*
X166459686Y-84912420D01*
X166568720Y-84957584D01*
X166625370Y-84965042D01*
X166682019Y-84972500D01*
X166682020Y-84972500D01*
X166757981Y-84972500D01*
X166795746Y-84967528D01*
X166871280Y-84957584D01*
X166978548Y-84913151D01*
X167048016Y-84905683D01*
X167110496Y-84936958D01*
X167146148Y-84997047D01*
X167150000Y-85027713D01*
X167150000Y-85493713D01*
X167165418Y-85645338D01*
X167226299Y-85839381D01*
X167226304Y-85839391D01*
X167325005Y-86017215D01*
X167325005Y-86017216D01*
X167457478Y-86171530D01*
X167457479Y-86171531D01*
X167618304Y-86296018D01*
X167800907Y-86385589D01*
X167900000Y-86411244D01*
X167900000Y-85609110D01*
X167924457Y-85648610D01*
X168013962Y-85716201D01*
X168121840Y-85746895D01*
X168233521Y-85736546D01*
X168333922Y-85686552D01*
X168400000Y-85614069D01*
X168400000Y-86416366D01*
X168401944Y-86416069D01*
X168401945Y-86416069D01*
X168592660Y-86345436D01*
X168592664Y-86345434D01*
X168765267Y-86237850D01*
X168912668Y-86097735D01*
X168912669Y-86097733D01*
X169028856Y-85930804D01*
X169109059Y-85743907D01*
X169150000Y-85544690D01*
X169150000Y-85143000D01*
X168450000Y-85143000D01*
X168450000Y-84643000D01*
X169150000Y-84643000D01*
X169150000Y-84292286D01*
X169134581Y-84140661D01*
X169073700Y-83946618D01*
X169073695Y-83946608D01*
X168974994Y-83768784D01*
X168974994Y-83768783D01*
X168842521Y-83614469D01*
X168842520Y-83614468D01*
X168681695Y-83489981D01*
X168499093Y-83400411D01*
X168400000Y-83374753D01*
X168400000Y-84176889D01*
X168375543Y-84137390D01*
X168286038Y-84069799D01*
X168178160Y-84039105D01*
X168066479Y-84049454D01*
X167966078Y-84099448D01*
X167900000Y-84171930D01*
X167900000Y-83369633D01*
X167898053Y-83369931D01*
X167898047Y-83369933D01*
X167707342Y-83440562D01*
X167707335Y-83440565D01*
X167534732Y-83548149D01*
X167387331Y-83688264D01*
X167387330Y-83688266D01*
X167271143Y-83855196D01*
X167259704Y-83881852D01*
X167215177Y-83935695D01*
X167148608Y-83956917D01*
X167081133Y-83938781D01*
X167070268Y-83931326D01*
X167012250Y-83886808D01*
X167012247Y-83886806D01*
X166871280Y-83828416D01*
X166871278Y-83828415D01*
X166757981Y-83813500D01*
X166757980Y-83813500D01*
X166682020Y-83813500D01*
X166682019Y-83813500D01*
X166568721Y-83828415D01*
X166568719Y-83828416D01*
X166427752Y-83886806D01*
X166306696Y-83979696D01*
X166213806Y-84100752D01*
X166155416Y-84241719D01*
X166155415Y-84241721D01*
X166135500Y-84392998D01*
X166135500Y-84393001D01*
X164906809Y-84393001D01*
X164943533Y-84352216D01*
X165038179Y-84188284D01*
X165096674Y-84008256D01*
X165116460Y-83820000D01*
X165096674Y-83631744D01*
X165038179Y-83451716D01*
X164943533Y-83287784D01*
X164816871Y-83147112D01*
X164782500Y-83122140D01*
X164663734Y-83035851D01*
X164663729Y-83035848D01*
X164490807Y-82958857D01*
X164490802Y-82958855D01*
X164338677Y-82926521D01*
X164305646Y-82919500D01*
X164116354Y-82919500D01*
X164083897Y-82926398D01*
X163931197Y-82958855D01*
X163931192Y-82958857D01*
X163758270Y-83035848D01*
X163758266Y-83035851D01*
X163712384Y-83069186D01*
X163646578Y-83092665D01*
X163578524Y-83076839D01*
X163566616Y-83069186D01*
X163520733Y-83035851D01*
X163520729Y-83035848D01*
X163347807Y-82958857D01*
X163347802Y-82958855D01*
X163195677Y-82926521D01*
X163162646Y-82919500D01*
X162973354Y-82919500D01*
X162940897Y-82926398D01*
X162788197Y-82958855D01*
X162788192Y-82958857D01*
X162615270Y-83035848D01*
X162615265Y-83035851D01*
X162462129Y-83147111D01*
X162335466Y-83287785D01*
X162240821Y-83451715D01*
X162240818Y-83451722D01*
X162187939Y-83614468D01*
X162182326Y-83631744D01*
X162162540Y-83820000D01*
X162182326Y-84008256D01*
X162182327Y-84008259D01*
X162240818Y-84188277D01*
X162240821Y-84188284D01*
X162335467Y-84352216D01*
X162441177Y-84469618D01*
X162462129Y-84492888D01*
X162615265Y-84604148D01*
X162615270Y-84604151D01*
X162788192Y-84681142D01*
X162788197Y-84681144D01*
X162973354Y-84720500D01*
X163005500Y-84720500D01*
X163072539Y-84740185D01*
X163118294Y-84792989D01*
X163129500Y-84844500D01*
X163129500Y-98192830D01*
X163109815Y-98259869D01*
X163057011Y-98305624D01*
X162987853Y-98315568D01*
X162924297Y-98286543D01*
X162913350Y-98275802D01*
X162784870Y-98133111D01*
X162631734Y-98021851D01*
X162631729Y-98021848D01*
X162458807Y-97944857D01*
X162458802Y-97944855D01*
X162313001Y-97913865D01*
X162273646Y-97905500D01*
X162084354Y-97905500D01*
X162051897Y-97912398D01*
X161899197Y-97944855D01*
X161899192Y-97944857D01*
X161726270Y-98021848D01*
X161726265Y-98021851D01*
X161573129Y-98133111D01*
X161446466Y-98273785D01*
X161395387Y-98362257D01*
X161344820Y-98410472D01*
X161276213Y-98423696D01*
X161211348Y-98397728D01*
X161170820Y-98340814D01*
X161164000Y-98300257D01*
X161164000Y-97024000D01*
X159914000Y-97024000D01*
X159914000Y-99174000D01*
X160711828Y-99174000D01*
X160711844Y-99173999D01*
X160771372Y-99167598D01*
X160771379Y-99167596D01*
X160906086Y-99117354D01*
X160906093Y-99117350D01*
X161021186Y-99031191D01*
X161076023Y-98957939D01*
X161131957Y-98916068D01*
X161201649Y-98911084D01*
X161262972Y-98944569D01*
X161293221Y-98993932D01*
X161351818Y-99174278D01*
X161351821Y-99174284D01*
X161424910Y-99300879D01*
X161446467Y-99338216D01*
X161519650Y-99419493D01*
X161549880Y-99482484D01*
X161551500Y-99502465D01*
X161551500Y-106445500D01*
X161531815Y-106512539D01*
X161479011Y-106558294D01*
X161427500Y-106569500D01*
X160290636Y-106569500D01*
X160173246Y-106584953D01*
X160173237Y-106584956D01*
X160027160Y-106645463D01*
X159901718Y-106741718D01*
X159805463Y-106867160D01*
X159744956Y-107013237D01*
X159744955Y-107013239D01*
X159729501Y-107130629D01*
X159729501Y-107130636D01*
X159729500Y-107130645D01*
X159729500Y-107276947D01*
X159709815Y-107343986D01*
X159678383Y-107377267D01*
X159658770Y-107391516D01*
X159649009Y-107397927D01*
X159611289Y-107420234D01*
X159597049Y-107434474D01*
X159582263Y-107447102D01*
X159565976Y-107458936D01*
X159538033Y-107492712D01*
X159530172Y-107501350D01*
X157585920Y-109445604D01*
X157524597Y-109479089D01*
X157498239Y-109481923D01*
X157441874Y-109481923D01*
X157409417Y-109488821D01*
X157256717Y-109521278D01*
X157256712Y-109521280D01*
X157083790Y-109598271D01*
X157083785Y-109598274D01*
X156930649Y-109709534D01*
X156803986Y-109850208D01*
X156709341Y-110014138D01*
X156709338Y-110014145D01*
X156650847Y-110194163D01*
X156650846Y-110194167D01*
X156631060Y-110382423D01*
X156650846Y-110570679D01*
X156650847Y-110570682D01*
X156709338Y-110750700D01*
X156709341Y-110750707D01*
X156803987Y-110914639D01*
X156908433Y-111030638D01*
X156930649Y-111055311D01*
X157083785Y-111166571D01*
X157083790Y-111166574D01*
X157256713Y-111243566D01*
X157261851Y-111245235D01*
X157319529Y-111284669D01*
X157346731Y-111349026D01*
X157346861Y-111350205D01*
X157356326Y-111440256D01*
X157356327Y-111440259D01*
X157414818Y-111620277D01*
X157414821Y-111620284D01*
X157509467Y-111784216D01*
X157619859Y-111906818D01*
X157636129Y-111924888D01*
X157789265Y-112036148D01*
X157789270Y-112036151D01*
X157962192Y-112113142D01*
X157962197Y-112113144D01*
X158147354Y-112152500D01*
X158147355Y-112152500D01*
X158336644Y-112152500D01*
X158336646Y-112152500D01*
X158521803Y-112113144D01*
X158694730Y-112036151D01*
X158847871Y-111924888D01*
X158974533Y-111784216D01*
X159069179Y-111620284D01*
X159127674Y-111440256D01*
X159147460Y-111252000D01*
X159127674Y-111063744D01*
X159069179Y-110883716D01*
X159069176Y-110883710D01*
X159019582Y-110797810D01*
X159003109Y-110729910D01*
X159025962Y-110663883D01*
X159039282Y-110648136D01*
X159535291Y-110152127D01*
X159596612Y-110118644D01*
X159666304Y-110123628D01*
X159722237Y-110165500D01*
X159746654Y-110230964D01*
X159745909Y-110255995D01*
X159729500Y-110380638D01*
X159729500Y-110659363D01*
X159744953Y-110776753D01*
X159744957Y-110776765D01*
X159753566Y-110797550D01*
X159761033Y-110867019D01*
X159753566Y-110892450D01*
X159744957Y-110913234D01*
X159744955Y-110913239D01*
X159729500Y-111030638D01*
X159729500Y-111309363D01*
X159744953Y-111426753D01*
X159744956Y-111426762D01*
X159805464Y-111572841D01*
X159901718Y-111698282D01*
X160027159Y-111794536D01*
X160173238Y-111855044D01*
X160290639Y-111870500D01*
X160729218Y-111870499D01*
X160796257Y-111890183D01*
X160816899Y-111906818D01*
X161309124Y-112399043D01*
X161318971Y-112411333D01*
X161319189Y-112411154D01*
X161324157Y-112417159D01*
X161324159Y-112417161D01*
X161324160Y-112417162D01*
X161351498Y-112442834D01*
X161373346Y-112463351D01*
X161376143Y-112466062D01*
X161395707Y-112485626D01*
X161398885Y-112488090D01*
X161407781Y-112495687D01*
X161439735Y-112525695D01*
X161439737Y-112525696D01*
X161457367Y-112535387D01*
X161473635Y-112546072D01*
X161489538Y-112558408D01*
X161489540Y-112558409D01*
X161489542Y-112558410D01*
X161509442Y-112567021D01*
X161529760Y-112575813D01*
X161540249Y-112580951D01*
X161578666Y-112602072D01*
X161598167Y-112607079D01*
X161616561Y-112613376D01*
X161635041Y-112621373D01*
X161678341Y-112628230D01*
X161689748Y-112630592D01*
X161732228Y-112641500D01*
X161752359Y-112641500D01*
X161771756Y-112643026D01*
X161791633Y-112646175D01*
X161831708Y-112642386D01*
X161835270Y-112642050D01*
X161846939Y-112641500D01*
X169716033Y-112641500D01*
X169731681Y-112643227D01*
X169731708Y-112642946D01*
X169739475Y-112643680D01*
X169739476Y-112643679D01*
X169739477Y-112643680D01*
X169806919Y-112641561D01*
X169810813Y-112641500D01*
X169838472Y-112641500D01*
X169838476Y-112641500D01*
X169842474Y-112640994D01*
X169854114Y-112640077D01*
X169897943Y-112638701D01*
X169917272Y-112633084D01*
X169936328Y-112629137D01*
X169956293Y-112626616D01*
X169997055Y-112610476D01*
X170008092Y-112606698D01*
X170050191Y-112594468D01*
X170067515Y-112584221D01*
X170084983Y-112575663D01*
X170103703Y-112568253D01*
X170117253Y-112558408D01*
X170117611Y-112558148D01*
X170183416Y-112534665D01*
X170251471Y-112550488D01*
X170300168Y-112600592D01*
X170314500Y-112658463D01*
X170314500Y-124402719D01*
X170294815Y-124469758D01*
X170278181Y-124490400D01*
X169702400Y-125066181D01*
X169641077Y-125099666D01*
X169614719Y-125102500D01*
X167771930Y-125102500D01*
X167704891Y-125082815D01*
X167659136Y-125030011D01*
X167649192Y-124960853D01*
X167657248Y-124933815D01*
X167656581Y-124933572D01*
X167658432Y-124928486D01*
X167715636Y-124715000D01*
X166818686Y-124715000D01*
X166844493Y-124674844D01*
X166885000Y-124536889D01*
X166885000Y-124393111D01*
X166844493Y-124255156D01*
X166818686Y-124215000D01*
X167715636Y-124215000D01*
X167715635Y-124214999D01*
X167658432Y-124001513D01*
X167658429Y-124001507D01*
X167558600Y-123787422D01*
X167558599Y-123787420D01*
X167423113Y-123593926D01*
X167423108Y-123593920D01*
X167256082Y-123426894D01*
X167062578Y-123291399D01*
X166848492Y-123191570D01*
X166848486Y-123191567D01*
X166635000Y-123134364D01*
X166635000Y-124029498D01*
X166527315Y-123980320D01*
X166420763Y-123965000D01*
X166349237Y-123965000D01*
X166242685Y-123980320D01*
X166135000Y-124029498D01*
X166135000Y-123134364D01*
X166134999Y-123134364D01*
X165921513Y-123191567D01*
X165921507Y-123191570D01*
X165707422Y-123291399D01*
X165707420Y-123291400D01*
X165513926Y-123426886D01*
X165513920Y-123426891D01*
X165346891Y-123593920D01*
X165346890Y-123593922D01*
X165216880Y-123779595D01*
X165162303Y-123823219D01*
X165092804Y-123830412D01*
X165030450Y-123798890D01*
X165013730Y-123779594D01*
X164883494Y-123593597D01*
X164716402Y-123426506D01*
X164716395Y-123426501D01*
X164522834Y-123290967D01*
X164522830Y-123290965D01*
X164522828Y-123290964D01*
X164308663Y-123191097D01*
X164308659Y-123191096D01*
X164308655Y-123191094D01*
X164080413Y-123129938D01*
X164080403Y-123129936D01*
X163845001Y-123109341D01*
X163844999Y-123109341D01*
X163609596Y-123129936D01*
X163609586Y-123129938D01*
X163381344Y-123191094D01*
X163381335Y-123191098D01*
X163167171Y-123290964D01*
X163167169Y-123290965D01*
X162973597Y-123426505D01*
X162806505Y-123593597D01*
X162676575Y-123779158D01*
X162621998Y-123822783D01*
X162552500Y-123829977D01*
X162490145Y-123798454D01*
X162473425Y-123779158D01*
X162343494Y-123593597D01*
X162176402Y-123426506D01*
X162176395Y-123426501D01*
X161982834Y-123290967D01*
X161982830Y-123290965D01*
X161982828Y-123290964D01*
X161768663Y-123191097D01*
X161768659Y-123191096D01*
X161768655Y-123191094D01*
X161540413Y-123129938D01*
X161540403Y-123129936D01*
X161305001Y-123109341D01*
X161304999Y-123109341D01*
X161069596Y-123129936D01*
X161069586Y-123129938D01*
X160841344Y-123191094D01*
X160841335Y-123191098D01*
X160627171Y-123290964D01*
X160627169Y-123290965D01*
X160433597Y-123426505D01*
X160266505Y-123593597D01*
X160130965Y-123787169D01*
X160130964Y-123787171D01*
X160031098Y-124001335D01*
X160031094Y-124001344D01*
X159969938Y-124229586D01*
X159969936Y-124229596D01*
X159949341Y-124464999D01*
X159949341Y-124465000D01*
X159969936Y-124700403D01*
X159969938Y-124700413D01*
X160031094Y-124928655D01*
X160031096Y-124928659D01*
X160031097Y-124928663D01*
X160110837Y-125099666D01*
X160130965Y-125142830D01*
X160130967Y-125142834D01*
X160230086Y-125284389D01*
X160266501Y-125336396D01*
X160266506Y-125336402D01*
X160388430Y-125458326D01*
X160421915Y-125519649D01*
X160416931Y-125589341D01*
X160375059Y-125645274D01*
X160344083Y-125662189D01*
X160212669Y-125711203D01*
X160212664Y-125711206D01*
X160097455Y-125797452D01*
X160097452Y-125797455D01*
X160011206Y-125912664D01*
X160011202Y-125912671D01*
X159960908Y-126047517D01*
X159954501Y-126107116D01*
X159954500Y-126107135D01*
X159954500Y-127902870D01*
X159954501Y-127902876D01*
X159960908Y-127962483D01*
X160011202Y-128097328D01*
X160011206Y-128097335D01*
X160097452Y-128212544D01*
X160097455Y-128212547D01*
X160153141Y-128254234D01*
X160195012Y-128310168D01*
X160199996Y-128379859D01*
X160166510Y-128441182D01*
X160105187Y-128474666D01*
X160078830Y-128477500D01*
X152997097Y-128477500D01*
X152930058Y-128457815D01*
X152884303Y-128405011D01*
X152874359Y-128335853D01*
X152903384Y-128272297D01*
X152944690Y-128241119D01*
X153077830Y-128179035D01*
X153271401Y-128043495D01*
X153438495Y-127876401D01*
X153574035Y-127682830D01*
X153673903Y-127468663D01*
X153735063Y-127240408D01*
X153755659Y-127005000D01*
X153735063Y-126769592D01*
X153673903Y-126541337D01*
X153574035Y-126327171D01*
X153438495Y-126133599D01*
X153438494Y-126133597D01*
X153271402Y-125966506D01*
X153271396Y-125966501D01*
X153085842Y-125836575D01*
X153042217Y-125781998D01*
X153035023Y-125712500D01*
X153066546Y-125650145D01*
X153085842Y-125633425D01*
X153108026Y-125617891D01*
X153271401Y-125503495D01*
X153438495Y-125336401D01*
X153574035Y-125142830D01*
X153673903Y-124928663D01*
X153735063Y-124700408D01*
X153755659Y-124465000D01*
X153735063Y-124229592D01*
X153673903Y-124001337D01*
X153574035Y-123787171D01*
X153568731Y-123779595D01*
X153438494Y-123593597D01*
X153271402Y-123426506D01*
X153271396Y-123426501D01*
X153085842Y-123296575D01*
X153042217Y-123241998D01*
X153035023Y-123172500D01*
X153066546Y-123110145D01*
X153085842Y-123093425D01*
X153108026Y-123077891D01*
X153271401Y-122963495D01*
X153438495Y-122796401D01*
X153574035Y-122602830D01*
X153673903Y-122388663D01*
X153735063Y-122160408D01*
X153755659Y-121925000D01*
X153735063Y-121689592D01*
X153673903Y-121461337D01*
X153574035Y-121247171D01*
X153569714Y-121240999D01*
X153438494Y-121053597D01*
X153271402Y-120886506D01*
X153271396Y-120886501D01*
X153085842Y-120756575D01*
X153042217Y-120701998D01*
X153035023Y-120632500D01*
X153066546Y-120570145D01*
X153085842Y-120553425D01*
X153153122Y-120506315D01*
X153271401Y-120423495D01*
X153281396Y-120413500D01*
X158541001Y-120413500D01*
X158541001Y-120550986D01*
X158551494Y-120653697D01*
X158606641Y-120820119D01*
X158606643Y-120820124D01*
X158698684Y-120969345D01*
X158822654Y-121093315D01*
X158971875Y-121185356D01*
X158971880Y-121185358D01*
X159138302Y-121240505D01*
X159138309Y-121240506D01*
X159241019Y-121250999D01*
X159515999Y-121250999D01*
X159516000Y-121250998D01*
X159516000Y-120413500D01*
X160016000Y-120413500D01*
X160016000Y-121250999D01*
X160290972Y-121250999D01*
X160290986Y-121250998D01*
X160393697Y-121240505D01*
X160560119Y-121185358D01*
X160560126Y-121185355D01*
X160641969Y-121134873D01*
X160709361Y-121116432D01*
X160776025Y-121137354D01*
X160820795Y-121190995D01*
X160830356Y-121227153D01*
X160836401Y-121283373D01*
X160836403Y-121283379D01*
X160886645Y-121418086D01*
X160886649Y-121418093D01*
X160972809Y-121533187D01*
X160972812Y-121533190D01*
X161087906Y-121619350D01*
X161087913Y-121619354D01*
X161222620Y-121669596D01*
X161222627Y-121669598D01*
X161282155Y-121675999D01*
X161282172Y-121676000D01*
X162130000Y-121676000D01*
X162130000Y-120526000D01*
X160911000Y-120526000D01*
X160843961Y-120506315D01*
X160798206Y-120453511D01*
X160790197Y-120416697D01*
X160787000Y-120413500D01*
X160016000Y-120413500D01*
X159516000Y-120413500D01*
X158541001Y-120413500D01*
X153281396Y-120413500D01*
X153438495Y-120256401D01*
X153574035Y-120062830D01*
X153673903Y-119848663D01*
X153735063Y-119620408D01*
X153755659Y-119385000D01*
X153753266Y-119357654D01*
X153742386Y-119233289D01*
X153735063Y-119149592D01*
X153673903Y-118921337D01*
X153574035Y-118707171D01*
X153484149Y-118578799D01*
X153438494Y-118513597D01*
X153271402Y-118346506D01*
X153271396Y-118346501D01*
X153085842Y-118216575D01*
X153042217Y-118161998D01*
X153035023Y-118092500D01*
X153066546Y-118030145D01*
X153085842Y-118013425D01*
X153133329Y-117980174D01*
X153271401Y-117883495D01*
X153438495Y-117716401D01*
X153574035Y-117522830D01*
X153673903Y-117308663D01*
X153735063Y-117080408D01*
X153755659Y-116845000D01*
X153755659Y-116844999D01*
X153756131Y-116839606D01*
X153757913Y-116839761D01*
X153775344Y-116780401D01*
X153828148Y-116734646D01*
X153897306Y-116724702D01*
X153960862Y-116753727D01*
X153967340Y-116759759D01*
X154940624Y-117733043D01*
X154950471Y-117745333D01*
X154950689Y-117745154D01*
X154955657Y-117751159D01*
X155004846Y-117797351D01*
X155007643Y-117800062D01*
X155027207Y-117819626D01*
X155030385Y-117822090D01*
X155039279Y-117829685D01*
X155057542Y-117846836D01*
X155071235Y-117859695D01*
X155071237Y-117859696D01*
X155088867Y-117869387D01*
X155105135Y-117880072D01*
X155121038Y-117892408D01*
X155161262Y-117909814D01*
X155171754Y-117914954D01*
X155210158Y-117936068D01*
X155210160Y-117936069D01*
X155210166Y-117936072D01*
X155229240Y-117940969D01*
X155229660Y-117941077D01*
X155248064Y-117947377D01*
X155266542Y-117955374D01*
X155309851Y-117962233D01*
X155321258Y-117964595D01*
X155363728Y-117975500D01*
X155383858Y-117975500D01*
X155403257Y-117977027D01*
X155423133Y-117980175D01*
X155462928Y-117976413D01*
X155466770Y-117976050D01*
X155478439Y-117975500D01*
X157286053Y-117975500D01*
X157353092Y-117995185D01*
X157378199Y-118016523D01*
X157380461Y-118019035D01*
X157382132Y-118020891D01*
X157382135Y-118020893D01*
X157535265Y-118132148D01*
X157535270Y-118132151D01*
X157708192Y-118209142D01*
X157708197Y-118209144D01*
X157893354Y-118248500D01*
X157893355Y-118248500D01*
X158082644Y-118248500D01*
X158082646Y-118248500D01*
X158267803Y-118209144D01*
X158366064Y-118165395D01*
X158435314Y-118156110D01*
X158498590Y-118185738D01*
X158535804Y-118244872D01*
X158540500Y-118278673D01*
X158540500Y-118476000D01*
X158540501Y-118476019D01*
X158551000Y-118578796D01*
X158551001Y-118578799D01*
X158593539Y-118707169D01*
X158606186Y-118745334D01*
X158698288Y-118894656D01*
X158822344Y-119018712D01*
X158824700Y-119020165D01*
X158825653Y-119020753D01*
X158827445Y-119022746D01*
X158828011Y-119023193D01*
X158827934Y-119023289D01*
X158872379Y-119072699D01*
X158883603Y-119141661D01*
X158855761Y-119205744D01*
X158825665Y-119231826D01*
X158822660Y-119233679D01*
X158822655Y-119233683D01*
X158698684Y-119357654D01*
X158606643Y-119506875D01*
X158606641Y-119506880D01*
X158551494Y-119673302D01*
X158551493Y-119673309D01*
X158541000Y-119776013D01*
X158541000Y-119913500D01*
X160910000Y-119913500D01*
X160977039Y-119933185D01*
X161022794Y-119985989D01*
X161030802Y-120022802D01*
X161034000Y-120026000D01*
X162506000Y-120026000D01*
X162573039Y-120045685D01*
X162618794Y-120098489D01*
X162630000Y-120150000D01*
X162630000Y-121676000D01*
X163477828Y-121676000D01*
X163477844Y-121675999D01*
X163537372Y-121669598D01*
X163537379Y-121669596D01*
X163672086Y-121619354D01*
X163672089Y-121619352D01*
X163755271Y-121557082D01*
X163820735Y-121532664D01*
X163889008Y-121547515D01*
X163903887Y-121557077D01*
X163987076Y-121619352D01*
X163987668Y-121619795D01*
X163987671Y-121619797D01*
X164122517Y-121670091D01*
X164122516Y-121670091D01*
X164129444Y-121670835D01*
X164182127Y-121676500D01*
X166377872Y-121676499D01*
X166437483Y-121670091D01*
X166572331Y-121619796D01*
X166687546Y-121533546D01*
X166773796Y-121418331D01*
X166824091Y-121283483D01*
X166830056Y-121227994D01*
X166856793Y-121163448D01*
X166914185Y-121123599D01*
X166984010Y-121121105D01*
X167018437Y-121135711D01*
X167099666Y-121185814D01*
X167266203Y-121240999D01*
X167368991Y-121251500D01*
X168419008Y-121251499D01*
X168419016Y-121251498D01*
X168419019Y-121251498D01*
X168475302Y-121245748D01*
X168521797Y-121240999D01*
X168688334Y-121185814D01*
X168837656Y-121093712D01*
X168961712Y-120969656D01*
X169053814Y-120820334D01*
X169108999Y-120653797D01*
X169119500Y-120551009D01*
X169119499Y-119775992D01*
X169108999Y-119673203D01*
X169053814Y-119506666D01*
X168961712Y-119357344D01*
X168837656Y-119233288D01*
X168834342Y-119231243D01*
X168832546Y-119229248D01*
X168831989Y-119228807D01*
X168832064Y-119228711D01*
X168787618Y-119179297D01*
X168776397Y-119110334D01*
X168804240Y-119046252D01*
X168834348Y-119020165D01*
X168837342Y-119018318D01*
X168961315Y-118894345D01*
X169053356Y-118745124D01*
X169053358Y-118745119D01*
X169108505Y-118578697D01*
X169108506Y-118578690D01*
X169118999Y-118475986D01*
X169119000Y-118475973D01*
X169119000Y-118338500D01*
X167593500Y-118338500D01*
X167526461Y-118318815D01*
X167480706Y-118266011D01*
X167469500Y-118214500D01*
X167469500Y-117962500D01*
X167489185Y-117895461D01*
X167541989Y-117849706D01*
X167593500Y-117838500D01*
X167644000Y-117838500D01*
X167644000Y-117001000D01*
X168144000Y-117001000D01*
X168144000Y-117838500D01*
X169118999Y-117838500D01*
X169118999Y-117701028D01*
X169118998Y-117701013D01*
X169108505Y-117598302D01*
X169053358Y-117431880D01*
X169053356Y-117431875D01*
X168961315Y-117282654D01*
X168837345Y-117158684D01*
X168688124Y-117066643D01*
X168688119Y-117066641D01*
X168521697Y-117011494D01*
X168521690Y-117011493D01*
X168418986Y-117001000D01*
X168144000Y-117001000D01*
X167644000Y-117001000D01*
X167591043Y-117001000D01*
X167524004Y-116981315D01*
X167478249Y-116928511D01*
X167467104Y-116880892D01*
X167466701Y-116868058D01*
X167461080Y-116848711D01*
X167457137Y-116829665D01*
X167454616Y-116809707D01*
X167438480Y-116768952D01*
X167434702Y-116757916D01*
X167422469Y-116715809D01*
X167412213Y-116698467D01*
X167403662Y-116681010D01*
X167396253Y-116662297D01*
X167370485Y-116626831D01*
X167364080Y-116617080D01*
X167341764Y-116579345D01*
X167341760Y-116579340D01*
X167327531Y-116565112D01*
X167314896Y-116550320D01*
X167303063Y-116534033D01*
X167303060Y-116534031D01*
X167303060Y-116534030D01*
X167303058Y-116534028D01*
X167296455Y-116528565D01*
X167257350Y-116470664D01*
X167251500Y-116433025D01*
X167251500Y-115758465D01*
X167271185Y-115691426D01*
X167283343Y-115675500D01*
X167356533Y-115594216D01*
X167451179Y-115430284D01*
X167509674Y-115250256D01*
X167529460Y-115062000D01*
X167509674Y-114873744D01*
X167451179Y-114693716D01*
X167356533Y-114529784D01*
X167229871Y-114389112D01*
X167229870Y-114389111D01*
X167076734Y-114277851D01*
X167076729Y-114277848D01*
X166903807Y-114200857D01*
X166903802Y-114200855D01*
X166758001Y-114169865D01*
X166718646Y-114161500D01*
X166529354Y-114161500D01*
X166496897Y-114168398D01*
X166344197Y-114200855D01*
X166344192Y-114200857D01*
X166166436Y-114280001D01*
X166097186Y-114289286D01*
X166065564Y-114280001D01*
X165887807Y-114200857D01*
X165887802Y-114200855D01*
X165742001Y-114169865D01*
X165702646Y-114161500D01*
X165513354Y-114161500D01*
X165480897Y-114168398D01*
X165328197Y-114200855D01*
X165328192Y-114200857D01*
X165155270Y-114277848D01*
X165155265Y-114277851D01*
X165002129Y-114389111D01*
X164875466Y-114529785D01*
X164780821Y-114693715D01*
X164780818Y-114693722D01*
X164722327Y-114873740D01*
X164722326Y-114873744D01*
X164706203Y-115027143D01*
X164705011Y-115038489D01*
X164678426Y-115103103D01*
X164669371Y-115113208D01*
X163243398Y-116539181D01*
X163182075Y-116572666D01*
X163155717Y-116575500D01*
X161282129Y-116575500D01*
X161282123Y-116575501D01*
X161222516Y-116581908D01*
X161087671Y-116632202D01*
X161087664Y-116632206D01*
X160972455Y-116718452D01*
X160972452Y-116718455D01*
X160886206Y-116833664D01*
X160886202Y-116833671D01*
X160835908Y-116968516D01*
X160829943Y-117024002D01*
X160803205Y-117088553D01*
X160745812Y-117128401D01*
X160675987Y-117130894D01*
X160641559Y-117116286D01*
X160560334Y-117066186D01*
X160393797Y-117011001D01*
X160393795Y-117011000D01*
X160291010Y-117000500D01*
X159240998Y-117000500D01*
X159240980Y-117000501D01*
X159138203Y-117011000D01*
X159138200Y-117011001D01*
X158974148Y-117065363D01*
X158904319Y-117067765D01*
X158844278Y-117032033D01*
X158817213Y-116985975D01*
X158815181Y-116979722D01*
X158815180Y-116979721D01*
X158815179Y-116979716D01*
X158720533Y-116815784D01*
X158593871Y-116675112D01*
X158593870Y-116675111D01*
X158440734Y-116563851D01*
X158440729Y-116563848D01*
X158267807Y-116486857D01*
X158267802Y-116486855D01*
X158103817Y-116452000D01*
X158082646Y-116447500D01*
X157893354Y-116447500D01*
X157872183Y-116452000D01*
X157708197Y-116486855D01*
X157708192Y-116486857D01*
X157535270Y-116563848D01*
X157535265Y-116563851D01*
X157382135Y-116675106D01*
X157382132Y-116675108D01*
X157380175Y-116677281D01*
X157378200Y-116679474D01*
X157318714Y-116716121D01*
X157286053Y-116720500D01*
X155754281Y-116720500D01*
X155687242Y-116700815D01*
X155666600Y-116684181D01*
X153740835Y-114758416D01*
X153707350Y-114697093D01*
X153708741Y-114638641D01*
X153735063Y-114540408D01*
X153755659Y-114305000D01*
X153755098Y-114298593D01*
X153746547Y-114200855D01*
X153735063Y-114069592D01*
X153673903Y-113841337D01*
X153574035Y-113627171D01*
X153438495Y-113433599D01*
X153438494Y-113433597D01*
X153271402Y-113266506D01*
X153271396Y-113266501D01*
X153085842Y-113136575D01*
X153042217Y-113081998D01*
X153035023Y-113012500D01*
X153066546Y-112950145D01*
X153085842Y-112933425D01*
X153108026Y-112917891D01*
X153271401Y-112803495D01*
X153438495Y-112636401D01*
X153574035Y-112442830D01*
X153673903Y-112228663D01*
X153735063Y-112000408D01*
X153755659Y-111765000D01*
X153755098Y-111758593D01*
X153748201Y-111679758D01*
X153735063Y-111529592D01*
X153673903Y-111301337D01*
X153574035Y-111087171D01*
X153570284Y-111081813D01*
X153438494Y-110893597D01*
X153271402Y-110726506D01*
X153271396Y-110726501D01*
X153085842Y-110596575D01*
X153042217Y-110541998D01*
X153035023Y-110472500D01*
X153066546Y-110410145D01*
X153085842Y-110393425D01*
X153108026Y-110377891D01*
X153271401Y-110263495D01*
X153438495Y-110096401D01*
X153574035Y-109902830D01*
X153673903Y-109688663D01*
X153735063Y-109460408D01*
X153755659Y-109225000D01*
X153755098Y-109218593D01*
X153748201Y-109139758D01*
X153735063Y-108989592D01*
X153673903Y-108761337D01*
X153574035Y-108547171D01*
X153546772Y-108508234D01*
X153438494Y-108353597D01*
X153271402Y-108186506D01*
X153271396Y-108186501D01*
X153085842Y-108056575D01*
X153042217Y-108001998D01*
X153035023Y-107932500D01*
X153066546Y-107870145D01*
X153085842Y-107853425D01*
X153146141Y-107811203D01*
X153271401Y-107723495D01*
X153438495Y-107556401D01*
X153574035Y-107362830D01*
X153673903Y-107148663D01*
X153735063Y-106920408D01*
X153755659Y-106685000D01*
X153735063Y-106449592D01*
X153673903Y-106221337D01*
X153574035Y-106007171D01*
X153571772Y-106003938D01*
X153438494Y-105813597D01*
X153271402Y-105646506D01*
X153271396Y-105646501D01*
X153085842Y-105516575D01*
X153042217Y-105461998D01*
X153035023Y-105392500D01*
X153066546Y-105330145D01*
X153085842Y-105313425D01*
X153108026Y-105297891D01*
X153271401Y-105183495D01*
X153438495Y-105016401D01*
X153574035Y-104822830D01*
X153673903Y-104608663D01*
X153735063Y-104380408D01*
X153755659Y-104145000D01*
X153735063Y-103909592D01*
X153673903Y-103681337D01*
X153574035Y-103467171D01*
X153438495Y-103273599D01*
X153438494Y-103273597D01*
X153271402Y-103106506D01*
X153271396Y-103106501D01*
X153085842Y-102976575D01*
X153042217Y-102921998D01*
X153035023Y-102852500D01*
X153066546Y-102790145D01*
X153085842Y-102773425D01*
X153108026Y-102757891D01*
X153271401Y-102643495D01*
X153438495Y-102476401D01*
X153574035Y-102282830D01*
X153673903Y-102068663D01*
X153735063Y-101840408D01*
X153755659Y-101605000D01*
X153735063Y-101369592D01*
X153673903Y-101141337D01*
X153574035Y-100927171D01*
X153569714Y-100920999D01*
X153438494Y-100733597D01*
X153271402Y-100566506D01*
X153271396Y-100566501D01*
X153085842Y-100436575D01*
X153042217Y-100381998D01*
X153035023Y-100312500D01*
X153066546Y-100250145D01*
X153085842Y-100233425D01*
X153129293Y-100203000D01*
X153271401Y-100103495D01*
X153438495Y-99936401D01*
X153574035Y-99742830D01*
X153673903Y-99528663D01*
X153735063Y-99300408D01*
X153755659Y-99065000D01*
X153735063Y-98829592D01*
X153673903Y-98601337D01*
X153574035Y-98387171D01*
X153556591Y-98362257D01*
X153438494Y-98193597D01*
X153271402Y-98026506D01*
X153271396Y-98026501D01*
X153085842Y-97896575D01*
X153042217Y-97841998D01*
X153035023Y-97772500D01*
X153066546Y-97710145D01*
X153085842Y-97693425D01*
X153108026Y-97677891D01*
X153271401Y-97563495D01*
X153438495Y-97396401D01*
X153574035Y-97202830D01*
X153657425Y-97024000D01*
X158164000Y-97024000D01*
X158164000Y-98721844D01*
X158170401Y-98781372D01*
X158170403Y-98781379D01*
X158220645Y-98916086D01*
X158220649Y-98916093D01*
X158306809Y-99031187D01*
X158306812Y-99031190D01*
X158421906Y-99117350D01*
X158421913Y-99117354D01*
X158556620Y-99167596D01*
X158556627Y-99167598D01*
X158616155Y-99173999D01*
X158616172Y-99174000D01*
X159414000Y-99174000D01*
X159414000Y-97024000D01*
X158164000Y-97024000D01*
X153657425Y-97024000D01*
X153673903Y-96988663D01*
X153735063Y-96760408D01*
X153755659Y-96525000D01*
X153755572Y-96524000D01*
X158164000Y-96524000D01*
X159414000Y-96524000D01*
X159414000Y-94374000D01*
X159914000Y-94374000D01*
X159914000Y-96524000D01*
X161164000Y-96524000D01*
X161164000Y-94826172D01*
X161163999Y-94826155D01*
X161157598Y-94766627D01*
X161157596Y-94766620D01*
X161107354Y-94631913D01*
X161107350Y-94631906D01*
X161021190Y-94516812D01*
X161021187Y-94516809D01*
X160906093Y-94430649D01*
X160906086Y-94430645D01*
X160771379Y-94380403D01*
X160771372Y-94380401D01*
X160711844Y-94374000D01*
X159914000Y-94374000D01*
X159414000Y-94374000D01*
X158616155Y-94374000D01*
X158556627Y-94380401D01*
X158556620Y-94380403D01*
X158421913Y-94430645D01*
X158421906Y-94430649D01*
X158306812Y-94516809D01*
X158306809Y-94516812D01*
X158220649Y-94631906D01*
X158220645Y-94631913D01*
X158170403Y-94766620D01*
X158170401Y-94766627D01*
X158164000Y-94826155D01*
X158164000Y-96524000D01*
X153755572Y-96524000D01*
X153735063Y-96289592D01*
X153673903Y-96061337D01*
X153574035Y-95847171D01*
X153488141Y-95724500D01*
X153438494Y-95653597D01*
X153271402Y-95486506D01*
X153271401Y-95486505D01*
X153085405Y-95356269D01*
X153041781Y-95301692D01*
X153034588Y-95232193D01*
X153066110Y-95169839D01*
X153085405Y-95153119D01*
X153271082Y-95023105D01*
X153438105Y-94856082D01*
X153573600Y-94662578D01*
X153673429Y-94448492D01*
X153673432Y-94448486D01*
X153730636Y-94235000D01*
X152833686Y-94235000D01*
X152859493Y-94194844D01*
X152900000Y-94056889D01*
X152900000Y-93913111D01*
X152859493Y-93775156D01*
X152833686Y-93735000D01*
X153730636Y-93735000D01*
X153730635Y-93734999D01*
X153673432Y-93521513D01*
X153673429Y-93521507D01*
X153573600Y-93307422D01*
X153573599Y-93307420D01*
X153438113Y-93113926D01*
X153438108Y-93113920D01*
X153316053Y-92991865D01*
X153282568Y-92930542D01*
X153287552Y-92860850D01*
X153329424Y-92804917D01*
X153360400Y-92788002D01*
X153492331Y-92738796D01*
X153607546Y-92652546D01*
X153693796Y-92537331D01*
X153744091Y-92402483D01*
X153750500Y-92342873D01*
X153750499Y-90547128D01*
X153744091Y-90487517D01*
X153704207Y-90380583D01*
X153693797Y-90352671D01*
X153693793Y-90352664D01*
X153607547Y-90237455D01*
X153607544Y-90237452D01*
X153492335Y-90151206D01*
X153492328Y-90151202D01*
X153357482Y-90100908D01*
X153357483Y-90100908D01*
X153297883Y-90094501D01*
X153297881Y-90094500D01*
X153297873Y-90094500D01*
X153297864Y-90094500D01*
X151502129Y-90094500D01*
X151502123Y-90094501D01*
X151442516Y-90100908D01*
X151307671Y-90151202D01*
X151307664Y-90151206D01*
X151192455Y-90237452D01*
X151192452Y-90237455D01*
X151145766Y-90299820D01*
X151089832Y-90341691D01*
X151020141Y-90346675D01*
X150958818Y-90313189D01*
X150925334Y-90251866D01*
X150922500Y-90225509D01*
X150922500Y-86304517D01*
X150942185Y-86237478D01*
X150994989Y-86191723D01*
X151064147Y-86181779D01*
X151127703Y-86210804D01*
X151165477Y-86269582D01*
X151166275Y-86272425D01*
X151173257Y-86298486D01*
X151173261Y-86298497D01*
X151269431Y-86504732D01*
X151269432Y-86504734D01*
X151399954Y-86691141D01*
X151560858Y-86852045D01*
X151560861Y-86852047D01*
X151747266Y-86982568D01*
X151953504Y-87078739D01*
X152173308Y-87137635D01*
X152335230Y-87151801D01*
X152399998Y-87157468D01*
X152400000Y-87157468D01*
X152400002Y-87157468D01*
X152456673Y-87152509D01*
X152626692Y-87137635D01*
X152846496Y-87078739D01*
X153052734Y-86982568D01*
X153239139Y-86852047D01*
X153400047Y-86691139D01*
X153530568Y-86504734D01*
X153626739Y-86298496D01*
X153685635Y-86078692D01*
X153705468Y-85852000D01*
X153685635Y-85625308D01*
X153650374Y-85493713D01*
X158510000Y-85493713D01*
X158525418Y-85645338D01*
X158586299Y-85839381D01*
X158586304Y-85839391D01*
X158685005Y-86017215D01*
X158685005Y-86017216D01*
X158817478Y-86171530D01*
X158817479Y-86171531D01*
X158978304Y-86296018D01*
X159160907Y-86385589D01*
X159260000Y-86411244D01*
X159260000Y-85609110D01*
X159284457Y-85648610D01*
X159373962Y-85716201D01*
X159481840Y-85746895D01*
X159593521Y-85736546D01*
X159693922Y-85686552D01*
X159760000Y-85614069D01*
X159760000Y-86416365D01*
X159761944Y-86416069D01*
X159761945Y-86416069D01*
X159952660Y-86345436D01*
X159952664Y-86345434D01*
X160125267Y-86237850D01*
X160272668Y-86097735D01*
X160272669Y-86097733D01*
X160388856Y-85930804D01*
X160469059Y-85743907D01*
X160510000Y-85544690D01*
X160510000Y-85027713D01*
X160529685Y-84960674D01*
X160582489Y-84914919D01*
X160651647Y-84904975D01*
X160681450Y-84913151D01*
X160788720Y-84957584D01*
X160845370Y-84965042D01*
X160902019Y-84972500D01*
X160902020Y-84972500D01*
X160977981Y-84972500D01*
X161015746Y-84967528D01*
X161091280Y-84957584D01*
X161232250Y-84899192D01*
X161353304Y-84806304D01*
X161446192Y-84685250D01*
X161504584Y-84544280D01*
X161524500Y-84393000D01*
X161504584Y-84241720D01*
X161446192Y-84100750D01*
X161353304Y-83979696D01*
X161232250Y-83886808D01*
X161232249Y-83886807D01*
X161232247Y-83886806D01*
X161091280Y-83828416D01*
X161091278Y-83828415D01*
X160977981Y-83813500D01*
X160977980Y-83813500D01*
X160902020Y-83813500D01*
X160902019Y-83813500D01*
X160788721Y-83828415D01*
X160788719Y-83828416D01*
X160647752Y-83886806D01*
X160647749Y-83886808D01*
X160588459Y-83932303D01*
X160523290Y-83957497D01*
X160454845Y-83943458D01*
X160404855Y-83894644D01*
X160404554Y-83894105D01*
X160334994Y-83768784D01*
X160334994Y-83768783D01*
X160202521Y-83614469D01*
X160202520Y-83614468D01*
X160041695Y-83489981D01*
X159859093Y-83400411D01*
X159760000Y-83374753D01*
X159760000Y-84176889D01*
X159735543Y-84137390D01*
X159646038Y-84069799D01*
X159538160Y-84039105D01*
X159426479Y-84049454D01*
X159326078Y-84099448D01*
X159260000Y-84171930D01*
X159260000Y-83369633D01*
X159258053Y-83369931D01*
X159258047Y-83369933D01*
X159067342Y-83440562D01*
X159067335Y-83440565D01*
X158894732Y-83548149D01*
X158747331Y-83688264D01*
X158747330Y-83688266D01*
X158631143Y-83855195D01*
X158550940Y-84042092D01*
X158510000Y-84241309D01*
X158510000Y-84643000D01*
X159210000Y-84643000D01*
X159210000Y-85143000D01*
X158510000Y-85143000D01*
X158510000Y-85493713D01*
X153650374Y-85493713D01*
X153626739Y-85405504D01*
X153530568Y-85199266D01*
X153400047Y-85012861D01*
X153400045Y-85012858D01*
X153239141Y-84851954D01*
X153052734Y-84721432D01*
X153052728Y-84721429D01*
X152994725Y-84694382D01*
X152942285Y-84648210D01*
X152923133Y-84581017D01*
X152943348Y-84514135D01*
X152994725Y-84469618D01*
X152996338Y-84468866D01*
X153052734Y-84442568D01*
X153239139Y-84312047D01*
X153400047Y-84151139D01*
X153530568Y-83964734D01*
X153626739Y-83758496D01*
X153685635Y-83538692D01*
X153705468Y-83312000D01*
X153703349Y-83287785D01*
X153688857Y-83122140D01*
X153685635Y-83085308D01*
X153626739Y-82865504D01*
X153530568Y-82659266D01*
X153400047Y-82472861D01*
X153400045Y-82472858D01*
X153239141Y-82311954D01*
X153052735Y-82181433D01*
X153052736Y-82181433D01*
X153052734Y-82181432D01*
X152994132Y-82154105D01*
X152941694Y-82107933D01*
X152922543Y-82040739D01*
X152942759Y-81973858D01*
X152994135Y-81929341D01*
X153052482Y-81902133D01*
X153125471Y-81851024D01*
X152444400Y-81169953D01*
X152525148Y-81157165D01*
X152638045Y-81099641D01*
X152727641Y-81010045D01*
X152785165Y-80897148D01*
X152797953Y-80816400D01*
X153479024Y-81497471D01*
X153530136Y-81424478D01*
X153626264Y-81218331D01*
X153626269Y-81218317D01*
X153640900Y-81163713D01*
X158510000Y-81163713D01*
X158525418Y-81315338D01*
X158586299Y-81509381D01*
X158586304Y-81509391D01*
X158685005Y-81687215D01*
X158685005Y-81687216D01*
X158817478Y-81841530D01*
X158817479Y-81841531D01*
X158978304Y-81966018D01*
X159160907Y-82055589D01*
X159260000Y-82081244D01*
X159260000Y-81279110D01*
X159284457Y-81318610D01*
X159373962Y-81386201D01*
X159481840Y-81416895D01*
X159593521Y-81406546D01*
X159693922Y-81356552D01*
X159760000Y-81284069D01*
X159760000Y-82086365D01*
X159761944Y-82086069D01*
X159761945Y-82086069D01*
X159952660Y-82015436D01*
X159952664Y-82015434D01*
X160125267Y-81907850D01*
X160272668Y-81767735D01*
X160272669Y-81767733D01*
X160388856Y-81600804D01*
X160469059Y-81413907D01*
X160510000Y-81214690D01*
X160510000Y-81163713D01*
X167150000Y-81163713D01*
X167165418Y-81315338D01*
X167226299Y-81509381D01*
X167226304Y-81509391D01*
X167325005Y-81687215D01*
X167325005Y-81687216D01*
X167457478Y-81841530D01*
X167457479Y-81841531D01*
X167618304Y-81966018D01*
X167800907Y-82055589D01*
X167900000Y-82081244D01*
X167900000Y-81279110D01*
X167924457Y-81318610D01*
X168013962Y-81386201D01*
X168121840Y-81416895D01*
X168233521Y-81406546D01*
X168333922Y-81356552D01*
X168400000Y-81284069D01*
X168400000Y-82086365D01*
X168401944Y-82086069D01*
X168401945Y-82086069D01*
X168592660Y-82015436D01*
X168592664Y-82015434D01*
X168765267Y-81907850D01*
X168912668Y-81767735D01*
X168912669Y-81767733D01*
X169028856Y-81600804D01*
X169109059Y-81413907D01*
X169150000Y-81214690D01*
X169150000Y-80963000D01*
X168450000Y-80963000D01*
X168450000Y-80463000D01*
X169150000Y-80463000D01*
X169150000Y-80262286D01*
X169134581Y-80110661D01*
X169073700Y-79916618D01*
X169073695Y-79916608D01*
X168974994Y-79738784D01*
X168974994Y-79738783D01*
X168842521Y-79584469D01*
X168842520Y-79584468D01*
X168681695Y-79459981D01*
X168499093Y-79370411D01*
X168400000Y-79344753D01*
X168400000Y-80146889D01*
X168375543Y-80107390D01*
X168286038Y-80039799D01*
X168178160Y-80009105D01*
X168066479Y-80019454D01*
X167966078Y-80069448D01*
X167900000Y-80141930D01*
X167900000Y-79339633D01*
X167898053Y-79339931D01*
X167898047Y-79339933D01*
X167707342Y-79410562D01*
X167707335Y-79410565D01*
X167534732Y-79518149D01*
X167387331Y-79658264D01*
X167387330Y-79658266D01*
X167271143Y-79825195D01*
X167190940Y-80012092D01*
X167150000Y-80211309D01*
X167150000Y-80463000D01*
X167850000Y-80463000D01*
X167850000Y-80963000D01*
X167150000Y-80963000D01*
X167150000Y-81163713D01*
X160510000Y-81163713D01*
X160510000Y-80963000D01*
X159810000Y-80963000D01*
X159810000Y-80463000D01*
X160510000Y-80463000D01*
X160510000Y-80262286D01*
X160494581Y-80110661D01*
X160433700Y-79916618D01*
X160433695Y-79916608D01*
X160334994Y-79738784D01*
X160334994Y-79738783D01*
X160202521Y-79584469D01*
X160202520Y-79584468D01*
X160041695Y-79459981D01*
X159859093Y-79370411D01*
X159760000Y-79344753D01*
X159760000Y-80146889D01*
X159735543Y-80107390D01*
X159646038Y-80039799D01*
X159538160Y-80009105D01*
X159426479Y-80019454D01*
X159326078Y-80069448D01*
X159260000Y-80141930D01*
X159260000Y-79339633D01*
X159258053Y-79339931D01*
X159258047Y-79339933D01*
X159067342Y-79410562D01*
X159067335Y-79410565D01*
X158894732Y-79518149D01*
X158747331Y-79658264D01*
X158747330Y-79658266D01*
X158631143Y-79825195D01*
X158550940Y-80012092D01*
X158510000Y-80211309D01*
X158510000Y-80463000D01*
X159210000Y-80463000D01*
X159210000Y-80963000D01*
X158510000Y-80963000D01*
X158510000Y-81163713D01*
X153640900Y-81163713D01*
X153685139Y-80998610D01*
X153685141Y-80998599D01*
X153704966Y-80772002D01*
X153704966Y-80771997D01*
X153685141Y-80545400D01*
X153685139Y-80545389D01*
X153626269Y-80325682D01*
X153626264Y-80325668D01*
X153530136Y-80119521D01*
X153530132Y-80119513D01*
X153479025Y-80046526D01*
X152797953Y-80727598D01*
X152785165Y-80646852D01*
X152727641Y-80533955D01*
X152638045Y-80444359D01*
X152525148Y-80386835D01*
X152444401Y-80374046D01*
X153125472Y-79692974D01*
X153052478Y-79641863D01*
X152846331Y-79545735D01*
X152846317Y-79545730D01*
X152626610Y-79486860D01*
X152626599Y-79486858D01*
X152400002Y-79467034D01*
X152399998Y-79467034D01*
X152173400Y-79486858D01*
X152173389Y-79486860D01*
X151953682Y-79545730D01*
X151953673Y-79545734D01*
X151747516Y-79641866D01*
X151747512Y-79641868D01*
X151674526Y-79692973D01*
X151674526Y-79692974D01*
X152355599Y-80374046D01*
X152274852Y-80386835D01*
X152161955Y-80444359D01*
X152072359Y-80533955D01*
X152014835Y-80646852D01*
X152002046Y-80727598D01*
X151320974Y-80046526D01*
X151320973Y-80046526D01*
X151269868Y-80119512D01*
X151269866Y-80119516D01*
X151173734Y-80325673D01*
X151173731Y-80325680D01*
X151166275Y-80353508D01*
X151129910Y-80413168D01*
X151067063Y-80443697D01*
X150997687Y-80435402D01*
X150943809Y-80390917D01*
X150922535Y-80324365D01*
X150922500Y-80321414D01*
X150922500Y-78529500D01*
X150942185Y-78462461D01*
X150994989Y-78416706D01*
X151046500Y-78405500D01*
X176613500Y-78405500D01*
X176680539Y-78425185D01*
G37*
%TD.AperFunction*%
%TA.AperFunction,Conductor*%
G36*
X165916386Y-115937192D02*
G01*
X165972120Y-115979329D01*
X165996225Y-116044909D01*
X165996500Y-116053166D01*
X165996500Y-116452000D01*
X165976815Y-116519039D01*
X165924011Y-116564794D01*
X165872500Y-116576000D01*
X165530000Y-116576000D01*
X165530000Y-117726000D01*
X166090500Y-117726000D01*
X166157539Y-117745685D01*
X166203294Y-117798489D01*
X166214500Y-117850000D01*
X166214500Y-118102000D01*
X166194815Y-118169039D01*
X166142011Y-118214794D01*
X166090500Y-118226000D01*
X165154000Y-118226000D01*
X165086961Y-118206315D01*
X165041206Y-118153511D01*
X165030000Y-118102000D01*
X165030000Y-116578781D01*
X165049685Y-116511742D01*
X165066319Y-116491100D01*
X165558600Y-115998819D01*
X165619923Y-115965334D01*
X165646281Y-115962500D01*
X165702644Y-115962500D01*
X165702646Y-115962500D01*
X165846721Y-115931876D01*
X165916386Y-115937192D01*
G37*
%TD.AperFunction*%
%TA.AperFunction,Conductor*%
G36*
X163718730Y-109370805D02*
G01*
X163741926Y-109389038D01*
X165257932Y-110905043D01*
X165267779Y-110917333D01*
X165267997Y-110917154D01*
X165272965Y-110923159D01*
X165272967Y-110923161D01*
X165272968Y-110923162D01*
X165322153Y-110969350D01*
X165324950Y-110972061D01*
X165344515Y-110991626D01*
X165347697Y-110994094D01*
X165356584Y-111001683D01*
X165388541Y-111031693D01*
X165406192Y-111041396D01*
X165422442Y-111052071D01*
X165437485Y-111063740D01*
X165438346Y-111064408D01*
X165438349Y-111064410D01*
X165478567Y-111081813D01*
X165489051Y-111086948D01*
X165527474Y-111108072D01*
X165546548Y-111112969D01*
X165546968Y-111113077D01*
X165565372Y-111119377D01*
X165583850Y-111127374D01*
X165583851Y-111127374D01*
X165591012Y-111130473D01*
X165590328Y-111132051D01*
X165641184Y-111164530D01*
X165670391Y-111228002D01*
X165660645Y-111297189D01*
X165615041Y-111350123D01*
X165548059Y-111369999D01*
X165547704Y-111370000D01*
X165444982Y-111370000D01*
X165426563Y-111381683D01*
X165392336Y-111386500D01*
X162329500Y-111386500D01*
X162262461Y-111366815D01*
X162216706Y-111314011D01*
X162205500Y-111262501D01*
X162205499Y-111030637D01*
X162194044Y-110943620D01*
X162204810Y-110874585D01*
X162229299Y-110839758D01*
X162417043Y-110652014D01*
X162429325Y-110642177D01*
X162429144Y-110641958D01*
X162435157Y-110636982D01*
X162435162Y-110636980D01*
X162481384Y-110587756D01*
X162484033Y-110585024D01*
X162503623Y-110565436D01*
X162506096Y-110562246D01*
X162513682Y-110553362D01*
X162543693Y-110521407D01*
X162548278Y-110515096D01*
X162549259Y-110515809D01*
X162561040Y-110500070D01*
X163326043Y-109735067D01*
X163338325Y-109725230D01*
X163338144Y-109725011D01*
X163344157Y-109720035D01*
X163344162Y-109720033D01*
X163390384Y-109670809D01*
X163393033Y-109668077D01*
X163412623Y-109648489D01*
X163415096Y-109645299D01*
X163422682Y-109636415D01*
X163452693Y-109604460D01*
X163462389Y-109586821D01*
X163473073Y-109570554D01*
X163485408Y-109554655D01*
X163502822Y-109514411D01*
X163507944Y-109503955D01*
X163529072Y-109465527D01*
X163534076Y-109446031D01*
X163540167Y-109428116D01*
X163540232Y-109427964D01*
X163584691Y-109374063D01*
X163651232Y-109352756D01*
X163718730Y-109370805D01*
G37*
%TD.AperFunction*%
%TA.AperFunction,Conductor*%
G36*
X169103039Y-110789185D02*
G01*
X169148794Y-110841989D01*
X169160000Y-110893500D01*
X169160000Y-111145500D01*
X169140315Y-111212539D01*
X169087511Y-111258294D01*
X169036000Y-111269500D01*
X167973000Y-111269500D01*
X167963231Y-111279268D01*
X167953315Y-111313039D01*
X167900511Y-111358794D01*
X167849000Y-111370000D01*
X167704303Y-111370000D01*
X167637264Y-111350315D01*
X167591509Y-111297511D01*
X167581565Y-111228353D01*
X167610590Y-111164797D01*
X167628816Y-111147624D01*
X167632839Y-111144536D01*
X167632841Y-111144536D01*
X167758282Y-111048282D01*
X167854536Y-110922841D01*
X167886345Y-110846046D01*
X167930186Y-110791644D01*
X167996480Y-110769579D01*
X168000906Y-110769500D01*
X169036000Y-110769500D01*
X169103039Y-110789185D01*
G37*
%TD.AperFunction*%
%TA.AperFunction,Conductor*%
G36*
X173852540Y-92219185D02*
G01*
X173898295Y-92271989D01*
X173909501Y-92323500D01*
X173909501Y-92342876D01*
X173915908Y-92402483D01*
X173966202Y-92537328D01*
X173966206Y-92537335D01*
X174052452Y-92652544D01*
X174052455Y-92652547D01*
X174167664Y-92738793D01*
X174167671Y-92738797D01*
X174167674Y-92738798D01*
X174299598Y-92788002D01*
X174355531Y-92829873D01*
X174379949Y-92895337D01*
X174365098Y-92963610D01*
X174343947Y-92991865D01*
X174221886Y-93113926D01*
X174086400Y-93307420D01*
X174086399Y-93307422D01*
X173986570Y-93521507D01*
X173986567Y-93521513D01*
X173929364Y-93734999D01*
X173929364Y-93735000D01*
X174826314Y-93735000D01*
X174800507Y-93775156D01*
X174760000Y-93913111D01*
X174760000Y-94056889D01*
X174800507Y-94194844D01*
X174826314Y-94235000D01*
X173929364Y-94235000D01*
X173986567Y-94448486D01*
X173986570Y-94448492D01*
X174086399Y-94662578D01*
X174221894Y-94856082D01*
X174388917Y-95023105D01*
X174575031Y-95153425D01*
X174618656Y-95208003D01*
X174625848Y-95277501D01*
X174594326Y-95339856D01*
X174575031Y-95356575D01*
X174388922Y-95486890D01*
X174388920Y-95486891D01*
X174221891Y-95653920D01*
X174221886Y-95653926D01*
X174086400Y-95847420D01*
X174086399Y-95847422D01*
X173986570Y-96061507D01*
X173986567Y-96061513D01*
X173929364Y-96274999D01*
X173929364Y-96275000D01*
X174826314Y-96275000D01*
X174800507Y-96315156D01*
X174760000Y-96453111D01*
X174760000Y-96596889D01*
X174800507Y-96734844D01*
X174826314Y-96775000D01*
X173929364Y-96775000D01*
X173986567Y-96988486D01*
X173986570Y-96988492D01*
X174086399Y-97202578D01*
X174221894Y-97396082D01*
X174388917Y-97563105D01*
X174574595Y-97693119D01*
X174618219Y-97747696D01*
X174625412Y-97817195D01*
X174593890Y-97879549D01*
X174574595Y-97896269D01*
X174388594Y-98026508D01*
X174221505Y-98193597D01*
X174085965Y-98387169D01*
X174085964Y-98387171D01*
X173986098Y-98601335D01*
X173986094Y-98601344D01*
X173924938Y-98829586D01*
X173924936Y-98829596D01*
X173904341Y-99064999D01*
X173904341Y-99065000D01*
X173924936Y-99300403D01*
X173924938Y-99300413D01*
X173986094Y-99528655D01*
X173986096Y-99528659D01*
X173986097Y-99528663D01*
X174019716Y-99600759D01*
X174085965Y-99742830D01*
X174085967Y-99742834D01*
X174221501Y-99936395D01*
X174221506Y-99936402D01*
X174388597Y-100103493D01*
X174388603Y-100103498D01*
X174574158Y-100233425D01*
X174617783Y-100288002D01*
X174624977Y-100357500D01*
X174593454Y-100419855D01*
X174574158Y-100436575D01*
X174388597Y-100566505D01*
X174221505Y-100733597D01*
X174085965Y-100927169D01*
X174085964Y-100927171D01*
X173986098Y-101141335D01*
X173986094Y-101141344D01*
X173924938Y-101369586D01*
X173924936Y-101369596D01*
X173904341Y-101604999D01*
X173904341Y-101605000D01*
X173924936Y-101840403D01*
X173924938Y-101840413D01*
X173986094Y-102068655D01*
X173986096Y-102068659D01*
X173986097Y-102068663D01*
X174019716Y-102140759D01*
X174085965Y-102282830D01*
X174085967Y-102282834D01*
X174221501Y-102476395D01*
X174221506Y-102476402D01*
X174388597Y-102643493D01*
X174388603Y-102643498D01*
X174574158Y-102773425D01*
X174617783Y-102828002D01*
X174624977Y-102897500D01*
X174593454Y-102959855D01*
X174574158Y-102976575D01*
X174388597Y-103106505D01*
X174221505Y-103273597D01*
X174085965Y-103467169D01*
X174085964Y-103467171D01*
X173986098Y-103681335D01*
X173986094Y-103681344D01*
X173924938Y-103909586D01*
X173924936Y-103909596D01*
X173904341Y-104144999D01*
X173904341Y-104145000D01*
X173924936Y-104380403D01*
X173924938Y-104380413D01*
X173986094Y-104608655D01*
X173986096Y-104608659D01*
X173986097Y-104608663D01*
X174019716Y-104680759D01*
X174085965Y-104822830D01*
X174085967Y-104822834D01*
X174221501Y-105016395D01*
X174221506Y-105016402D01*
X174388597Y-105183493D01*
X174388603Y-105183498D01*
X174574158Y-105313425D01*
X174617783Y-105368002D01*
X174624977Y-105437500D01*
X174593454Y-105499855D01*
X174574158Y-105516575D01*
X174388597Y-105646505D01*
X174221505Y-105813597D01*
X174085965Y-106007169D01*
X174085964Y-106007171D01*
X173986098Y-106221335D01*
X173986094Y-106221344D01*
X173924938Y-106449586D01*
X173924936Y-106449596D01*
X173904341Y-106684999D01*
X173904341Y-106685000D01*
X173924936Y-106920403D01*
X173924938Y-106920413D01*
X173951258Y-107018641D01*
X173949595Y-107088491D01*
X173919164Y-107138415D01*
X171146181Y-109911399D01*
X171084858Y-109944884D01*
X171015166Y-109939900D01*
X170959233Y-109898028D01*
X170934816Y-109832564D01*
X170934500Y-109823718D01*
X170934500Y-100899465D01*
X170954185Y-100832426D01*
X170966343Y-100816500D01*
X171039533Y-100735216D01*
X171134179Y-100571284D01*
X171192674Y-100391256D01*
X171212460Y-100203000D01*
X171192674Y-100014744D01*
X171134179Y-99834716D01*
X171039533Y-99670784D01*
X170912871Y-99530112D01*
X170910839Y-99528636D01*
X170901769Y-99522046D01*
X170878022Y-99504793D01*
X170835358Y-99449466D01*
X170829377Y-99379853D01*
X170861982Y-99318057D01*
X170863153Y-99316869D01*
X171684264Y-98495758D01*
X171697883Y-98483988D01*
X171717294Y-98469539D01*
X171749334Y-98431354D01*
X171756623Y-98423399D01*
X171760583Y-98419441D01*
X171779934Y-98394966D01*
X171782175Y-98392215D01*
X171830667Y-98334427D01*
X171830668Y-98334424D01*
X171834637Y-98328390D01*
X171834684Y-98328421D01*
X171838790Y-98321976D01*
X171838743Y-98321947D01*
X171842534Y-98315799D01*
X171842534Y-98315797D01*
X171842539Y-98315792D01*
X171874436Y-98247386D01*
X171875976Y-98244206D01*
X171909824Y-98176811D01*
X171909826Y-98176798D01*
X171912293Y-98170024D01*
X171912346Y-98170043D01*
X171914858Y-98162815D01*
X171914807Y-98162798D01*
X171917080Y-98155938D01*
X171932333Y-98082065D01*
X171933114Y-98078541D01*
X171950500Y-98005188D01*
X171950500Y-98005185D01*
X171951339Y-97998015D01*
X171951391Y-97998021D01*
X171952169Y-97990406D01*
X171952116Y-97990402D01*
X171952745Y-97983211D01*
X171952257Y-97966454D01*
X171950552Y-97907838D01*
X171950500Y-97904232D01*
X171950500Y-93200886D01*
X171970185Y-93133847D01*
X171986819Y-93113205D01*
X172864205Y-92235819D01*
X172925528Y-92202334D01*
X172951886Y-92199500D01*
X173785501Y-92199500D01*
X173852540Y-92219185D01*
G37*
%TD.AperFunction*%
%TA.AperFunction,Conductor*%
G36*
X173881491Y-85643243D02*
G01*
X173937424Y-85685115D01*
X173961841Y-85750579D01*
X173961685Y-85770231D01*
X173954532Y-85851996D01*
X173954532Y-85852001D01*
X173974364Y-86078686D01*
X173974366Y-86078697D01*
X174033258Y-86298488D01*
X174033261Y-86298497D01*
X174129431Y-86504732D01*
X174129432Y-86504734D01*
X174259954Y-86691141D01*
X174420858Y-86852045D01*
X174420861Y-86852047D01*
X174607266Y-86982568D01*
X174813504Y-87078739D01*
X175033308Y-87137635D01*
X175195230Y-87151801D01*
X175259998Y-87157468D01*
X175260000Y-87157468D01*
X175260002Y-87157468D01*
X175316673Y-87152509D01*
X175486692Y-87137635D01*
X175706496Y-87078739D01*
X175912734Y-86982568D01*
X176099139Y-86852047D01*
X176260047Y-86691139D01*
X176390568Y-86504734D01*
X176486739Y-86298496D01*
X176493725Y-86272425D01*
X176530089Y-86212764D01*
X176592936Y-86182234D01*
X176662311Y-86190528D01*
X176716190Y-86235013D01*
X176737465Y-86301565D01*
X176737500Y-86304517D01*
X176737500Y-90225509D01*
X176717815Y-90292548D01*
X176665011Y-90338303D01*
X176595853Y-90348247D01*
X176532297Y-90319222D01*
X176514234Y-90299820D01*
X176467547Y-90237455D01*
X176467544Y-90237452D01*
X176352335Y-90151206D01*
X176352328Y-90151202D01*
X176217482Y-90100908D01*
X176217483Y-90100908D01*
X176157883Y-90094501D01*
X176157881Y-90094500D01*
X176157873Y-90094500D01*
X176157864Y-90094500D01*
X174362129Y-90094500D01*
X174362123Y-90094501D01*
X174302516Y-90100908D01*
X174167671Y-90151202D01*
X174167664Y-90151206D01*
X174052455Y-90237452D01*
X174052452Y-90237455D01*
X173966206Y-90352664D01*
X173966202Y-90352671D01*
X173915908Y-90487517D01*
X173909501Y-90547116D01*
X173909501Y-90547123D01*
X173909500Y-90547135D01*
X173909500Y-90566500D01*
X173889815Y-90633539D01*
X173837011Y-90679294D01*
X173785500Y-90690500D01*
X172651992Y-90690500D01*
X172634023Y-90689191D01*
X172610089Y-90685685D01*
X172564995Y-90689631D01*
X172560457Y-90690028D01*
X172549653Y-90690500D01*
X172544055Y-90690500D01*
X172513091Y-90694119D01*
X172509504Y-90694485D01*
X172434393Y-90701056D01*
X172427319Y-90702517D01*
X172427308Y-90702465D01*
X172419832Y-90704122D01*
X172419845Y-90704174D01*
X172412812Y-90705840D01*
X172341925Y-90731639D01*
X172338525Y-90732821D01*
X172266962Y-90756536D01*
X172260420Y-90759587D01*
X172260397Y-90759539D01*
X172253507Y-90762875D01*
X172253531Y-90762922D01*
X172247076Y-90766163D01*
X172184067Y-90807604D01*
X172181030Y-90809539D01*
X172116846Y-90849130D01*
X172111179Y-90853611D01*
X172111146Y-90853569D01*
X172105214Y-90858401D01*
X172105248Y-90858442D01*
X172099712Y-90863087D01*
X172047944Y-90917956D01*
X172045433Y-90920541D01*
X170707742Y-92258232D01*
X170694113Y-92270011D01*
X170674707Y-92284459D01*
X170642674Y-92322633D01*
X170635387Y-92330586D01*
X170631420Y-92334554D01*
X170631418Y-92334556D01*
X170612089Y-92359001D01*
X170609815Y-92361793D01*
X170561334Y-92419571D01*
X170557366Y-92425605D01*
X170557322Y-92425576D01*
X170553209Y-92432031D01*
X170553254Y-92432059D01*
X170549462Y-92438206D01*
X170517581Y-92506572D01*
X170516012Y-92509812D01*
X170482175Y-92577191D01*
X170479704Y-92583979D01*
X170479655Y-92583961D01*
X170477141Y-92591193D01*
X170477191Y-92591210D01*
X170474920Y-92598062D01*
X170459671Y-92671911D01*
X170458891Y-92675430D01*
X170441499Y-92748816D01*
X170440661Y-92755987D01*
X170440607Y-92755980D01*
X170439830Y-92763596D01*
X170439883Y-92763601D01*
X170439253Y-92770790D01*
X170441448Y-92846193D01*
X170441500Y-92849800D01*
X170441500Y-97553113D01*
X170421815Y-97620152D01*
X170405181Y-97640794D01*
X169838681Y-98207294D01*
X169777358Y-98240779D01*
X169707666Y-98235795D01*
X169651733Y-98193923D01*
X169627316Y-98128459D01*
X169627000Y-98119613D01*
X169627000Y-98018500D01*
X168276000Y-98018500D01*
X168208961Y-97998815D01*
X168163206Y-97946011D01*
X168152000Y-97894500D01*
X168152000Y-96029500D01*
X168652000Y-96029500D01*
X168652000Y-97518500D01*
X169626999Y-97518500D01*
X169626999Y-97381028D01*
X169626998Y-97381013D01*
X169616505Y-97278302D01*
X169561358Y-97111880D01*
X169561356Y-97111875D01*
X169469315Y-96962654D01*
X169368342Y-96861681D01*
X169334857Y-96800358D01*
X169339841Y-96730666D01*
X169368342Y-96686319D01*
X169469315Y-96585345D01*
X169561356Y-96436124D01*
X169561358Y-96436119D01*
X169616505Y-96269697D01*
X169616506Y-96269690D01*
X169626999Y-96166986D01*
X169627000Y-96166973D01*
X169627000Y-96029500D01*
X168652000Y-96029500D01*
X168152000Y-96029500D01*
X168152000Y-95653500D01*
X168171685Y-95586461D01*
X168224489Y-95540706D01*
X168276000Y-95529500D01*
X169626999Y-95529500D01*
X169626999Y-95392028D01*
X169626998Y-95392013D01*
X169616505Y-95289302D01*
X169561358Y-95122880D01*
X169561356Y-95122875D01*
X169469315Y-94973654D01*
X169345344Y-94849683D01*
X169345341Y-94849681D01*
X169342339Y-94847829D01*
X169340713Y-94846021D01*
X169339677Y-94845202D01*
X169339817Y-94845024D01*
X169295617Y-94795880D01*
X169284397Y-94726917D01*
X169312243Y-94662836D01*
X169342344Y-94636754D01*
X169345656Y-94634712D01*
X169469712Y-94510656D01*
X169561814Y-94361334D01*
X169616999Y-94194797D01*
X169627500Y-94092009D01*
X169627499Y-93316992D01*
X169626521Y-93307422D01*
X169616999Y-93214203D01*
X169616998Y-93214200D01*
X169595566Y-93149524D01*
X169561814Y-93047666D01*
X169469712Y-92898344D01*
X169345656Y-92774288D01*
X169196334Y-92682186D01*
X169196332Y-92682185D01*
X169196330Y-92682184D01*
X169196331Y-92682184D01*
X169177994Y-92676108D01*
X169120550Y-92636335D01*
X169093728Y-92571818D01*
X169093000Y-92558403D01*
X169093000Y-90380583D01*
X169112685Y-90313544D01*
X169129314Y-90292907D01*
X173750478Y-85671742D01*
X173811799Y-85638259D01*
X173881491Y-85643243D01*
G37*
%TD.AperFunction*%
%TA.AperFunction,Conductor*%
G36*
X175510000Y-96089498D02*
G01*
X175402315Y-96040320D01*
X175295763Y-96025000D01*
X175224237Y-96025000D01*
X175117685Y-96040320D01*
X175010000Y-96089498D01*
X175010000Y-94420501D01*
X175117685Y-94469680D01*
X175224237Y-94485000D01*
X175295763Y-94485000D01*
X175402315Y-94469680D01*
X175510000Y-94420501D01*
X175510000Y-96089498D01*
G37*
%TD.AperFunction*%
%TA.AperFunction,Conductor*%
G36*
X151127703Y-92570777D02*
G01*
X151145762Y-92590173D01*
X151192454Y-92652546D01*
X151192455Y-92652546D01*
X151192456Y-92652548D01*
X151307664Y-92738793D01*
X151307671Y-92738797D01*
X151307674Y-92738798D01*
X151439598Y-92788002D01*
X151495531Y-92829873D01*
X151519949Y-92895337D01*
X151505098Y-92963610D01*
X151483947Y-92991865D01*
X151361886Y-93113926D01*
X151226400Y-93307420D01*
X151226399Y-93307422D01*
X151158882Y-93452214D01*
X151112710Y-93504653D01*
X151045516Y-93523805D01*
X150978635Y-93503589D01*
X150933300Y-93450424D01*
X150922500Y-93399809D01*
X150922500Y-92664490D01*
X150942185Y-92597451D01*
X150994989Y-92551696D01*
X151064147Y-92541752D01*
X151127703Y-92570777D01*
G37*
%TD.AperFunction*%
%TA.AperFunction,Conductor*%
G36*
X176701182Y-92576809D02*
G01*
X176734666Y-92638132D01*
X176737500Y-92664490D01*
X176737500Y-93399809D01*
X176717815Y-93466848D01*
X176665011Y-93512603D01*
X176595853Y-93522547D01*
X176532297Y-93493522D01*
X176501118Y-93452214D01*
X176433600Y-93307422D01*
X176433599Y-93307420D01*
X176298113Y-93113926D01*
X176298108Y-93113920D01*
X176176053Y-92991865D01*
X176142568Y-92930542D01*
X176147552Y-92860850D01*
X176189424Y-92804917D01*
X176220400Y-92788002D01*
X176352331Y-92738796D01*
X176467546Y-92652546D01*
X176514235Y-92590177D01*
X176570167Y-92548308D01*
X176639859Y-92543324D01*
X176701182Y-92576809D01*
G37*
%TD.AperFunction*%
%TA.AperFunction,Conductor*%
G36*
X176662311Y-83650528D02*
G01*
X176716190Y-83695013D01*
X176737465Y-83761565D01*
X176737500Y-83764517D01*
X176737500Y-85399482D01*
X176717815Y-85466521D01*
X176665011Y-85512276D01*
X176595853Y-85522220D01*
X176532297Y-85493195D01*
X176494523Y-85434417D01*
X176493725Y-85431575D01*
X176486741Y-85405511D01*
X176486738Y-85405502D01*
X176390568Y-85199267D01*
X176390567Y-85199265D01*
X176260045Y-85012858D01*
X176099141Y-84851954D01*
X175912734Y-84721432D01*
X175912728Y-84721429D01*
X175854725Y-84694382D01*
X175802285Y-84648210D01*
X175783133Y-84581017D01*
X175803348Y-84514135D01*
X175854725Y-84469618D01*
X175856338Y-84468866D01*
X175912734Y-84442568D01*
X176099139Y-84312047D01*
X176260047Y-84151139D01*
X176390568Y-83964734D01*
X176486739Y-83758496D01*
X176493725Y-83732425D01*
X176530089Y-83672764D01*
X176592936Y-83642234D01*
X176662311Y-83650528D01*
G37*
%TD.AperFunction*%
%TA.AperFunction,Conductor*%
G36*
X151127703Y-83670804D02*
G01*
X151165477Y-83729582D01*
X151166275Y-83732425D01*
X151173257Y-83758486D01*
X151173261Y-83758497D01*
X151269431Y-83964732D01*
X151269432Y-83964734D01*
X151399954Y-84151141D01*
X151560858Y-84312045D01*
X151560861Y-84312047D01*
X151747266Y-84442568D01*
X151803662Y-84468866D01*
X151805275Y-84469618D01*
X151857714Y-84515791D01*
X151876866Y-84582984D01*
X151856650Y-84649865D01*
X151805275Y-84694382D01*
X151747267Y-84721431D01*
X151747265Y-84721432D01*
X151560858Y-84851954D01*
X151399954Y-85012858D01*
X151269432Y-85199265D01*
X151269431Y-85199267D01*
X151173261Y-85405502D01*
X151173258Y-85405511D01*
X151166275Y-85431575D01*
X151129910Y-85491236D01*
X151067063Y-85521765D01*
X150997688Y-85513470D01*
X150943810Y-85468985D01*
X150922535Y-85402433D01*
X150922500Y-85399482D01*
X150922500Y-83764517D01*
X150942185Y-83697478D01*
X150994989Y-83651723D01*
X151064147Y-83641779D01*
X151127703Y-83670804D01*
G37*
%TD.AperFunction*%
%TA.AperFunction,Conductor*%
G36*
X176339024Y-81497471D02*
G01*
X176390136Y-81424478D01*
X176486264Y-81218331D01*
X176486269Y-81218317D01*
X176493725Y-81190492D01*
X176530090Y-81130832D01*
X176592936Y-81100302D01*
X176662312Y-81108596D01*
X176716190Y-81153081D01*
X176737465Y-81219633D01*
X176737500Y-81222585D01*
X176737500Y-82859482D01*
X176717815Y-82926521D01*
X176665011Y-82972276D01*
X176595853Y-82982220D01*
X176532297Y-82953195D01*
X176494523Y-82894417D01*
X176493725Y-82891575D01*
X176486741Y-82865511D01*
X176486738Y-82865502D01*
X176390568Y-82659267D01*
X176390567Y-82659265D01*
X176260045Y-82472858D01*
X176099141Y-82311954D01*
X175912735Y-82181433D01*
X175912736Y-82181433D01*
X175912734Y-82181432D01*
X175854132Y-82154105D01*
X175801694Y-82107933D01*
X175782543Y-82040739D01*
X175802759Y-81973858D01*
X175854135Y-81929341D01*
X175912482Y-81902133D01*
X175985471Y-81851024D01*
X175304400Y-81169953D01*
X175385148Y-81157165D01*
X175498045Y-81099641D01*
X175587641Y-81010045D01*
X175645165Y-80897148D01*
X175657953Y-80816400D01*
X176339024Y-81497471D01*
G37*
%TD.AperFunction*%
%TA.AperFunction,Conductor*%
G36*
X152014835Y-80897148D02*
G01*
X152072359Y-81010045D01*
X152161955Y-81099641D01*
X152274852Y-81157165D01*
X152355599Y-81169953D01*
X151674526Y-81851025D01*
X151747513Y-81902132D01*
X151747521Y-81902136D01*
X151805864Y-81929342D01*
X151858304Y-81975514D01*
X151877456Y-82042707D01*
X151857241Y-82109589D01*
X151805866Y-82154105D01*
X151747272Y-82181428D01*
X151747265Y-82181432D01*
X151560858Y-82311954D01*
X151399954Y-82472858D01*
X151269432Y-82659265D01*
X151269431Y-82659267D01*
X151173261Y-82865502D01*
X151173258Y-82865511D01*
X151166275Y-82891575D01*
X151129910Y-82951236D01*
X151067063Y-82981765D01*
X150997688Y-82973470D01*
X150943810Y-82928985D01*
X150922535Y-82862433D01*
X150922500Y-82859482D01*
X150922500Y-81222585D01*
X150942185Y-81155546D01*
X150994989Y-81109791D01*
X151064147Y-81099847D01*
X151127703Y-81128872D01*
X151165477Y-81187650D01*
X151166275Y-81190492D01*
X151173730Y-81218317D01*
X151173735Y-81218331D01*
X151269863Y-81424478D01*
X151320974Y-81497472D01*
X152002046Y-80816400D01*
X152014835Y-80897148D01*
G37*
%TD.AperFunction*%
%TD*%
M02*
