%TF.GenerationSoftware,KiCad,Pcbnew,7.0.10*%
%TF.CreationDate,2024-02-12T16:57:49+10:00*%
%TF.ProjectId,devboard,64657662-6f61-4726-942e-6b696361645f,rev?*%
%TF.SameCoordinates,Original*%
%TF.FileFunction,Legend,Bot*%
%TF.FilePolarity,Positive*%
%FSLAX46Y46*%
G04 Gerber Fmt 4.6, Leading zero omitted, Abs format (unit mm)*
G04 Created by KiCad (PCBNEW 7.0.10) date 2024-02-12 16:57:49*
%MOMM*%
%LPD*%
G01*
G04 APERTURE LIST*
G04 Aperture macros list*
%AMRoundRect*
0 Rectangle with rounded corners*
0 $1 Rounding radius*
0 $2 $3 $4 $5 $6 $7 $8 $9 X,Y pos of 4 corners*
0 Add a 4 corners polygon primitive as box body*
4,1,4,$2,$3,$4,$5,$6,$7,$8,$9,$2,$3,0*
0 Add four circle primitives for the rounded corners*
1,1,$1+$1,$2,$3*
1,1,$1+$1,$4,$5*
1,1,$1+$1,$6,$7*
1,1,$1+$1,$8,$9*
0 Add four rect primitives between the rounded corners*
20,1,$1+$1,$2,$3,$4,$5,0*
20,1,$1+$1,$4,$5,$6,$7,0*
20,1,$1+$1,$6,$7,$8,$9,0*
20,1,$1+$1,$8,$9,$2,$3,0*%
G04 Aperture macros list end*
%ADD10C,0.150000*%
%ADD11C,0.120000*%
%ADD12R,1.700000X1.700000*%
%ADD13O,1.700000X1.700000*%
%ADD14C,1.600000*%
%ADD15C,0.650000*%
%ADD16O,1.000000X2.100000*%
%ADD17O,1.000000X1.800000*%
%ADD18RoundRect,0.100000X-0.637500X-0.100000X0.637500X-0.100000X0.637500X0.100000X-0.637500X0.100000X0*%
%ADD19R,2.100000X1.800000*%
%ADD20R,2.000000X1.500000*%
%ADD21R,2.000000X3.800000*%
%ADD22RoundRect,0.250000X-0.475000X0.337500X-0.475000X-0.337500X0.475000X-0.337500X0.475000X0.337500X0*%
%ADD23RoundRect,0.250000X0.475000X-0.337500X0.475000X0.337500X-0.475000X0.337500X-0.475000X-0.337500X0*%
G04 APERTURE END LIST*
D10*
X164591904Y-108674819D02*
X164591904Y-109484342D01*
X164591904Y-109484342D02*
X164544285Y-109579580D01*
X164544285Y-109579580D02*
X164496666Y-109627200D01*
X164496666Y-109627200D02*
X164401428Y-109674819D01*
X164401428Y-109674819D02*
X164210952Y-109674819D01*
X164210952Y-109674819D02*
X164115714Y-109627200D01*
X164115714Y-109627200D02*
X164068095Y-109579580D01*
X164068095Y-109579580D02*
X164020476Y-109484342D01*
X164020476Y-109484342D02*
X164020476Y-108674819D01*
X163591904Y-108770057D02*
X163544285Y-108722438D01*
X163544285Y-108722438D02*
X163449047Y-108674819D01*
X163449047Y-108674819D02*
X163210952Y-108674819D01*
X163210952Y-108674819D02*
X163115714Y-108722438D01*
X163115714Y-108722438D02*
X163068095Y-108770057D01*
X163068095Y-108770057D02*
X163020476Y-108865295D01*
X163020476Y-108865295D02*
X163020476Y-108960533D01*
X163020476Y-108960533D02*
X163068095Y-109103390D01*
X163068095Y-109103390D02*
X163639523Y-109674819D01*
X163639523Y-109674819D02*
X163020476Y-109674819D01*
X164306190Y-115929628D02*
X164306190Y-116405819D01*
X164639523Y-115405819D02*
X164306190Y-115929628D01*
X164306190Y-115929628D02*
X163972857Y-115405819D01*
X163115714Y-116405819D02*
X163687142Y-116405819D01*
X163401428Y-116405819D02*
X163401428Y-115405819D01*
X163401428Y-115405819D02*
X163496666Y-115548676D01*
X163496666Y-115548676D02*
X163591904Y-115643914D01*
X163591904Y-115643914D02*
X163687142Y-115691533D01*
X163575904Y-96228819D02*
X163575904Y-97038342D01*
X163575904Y-97038342D02*
X163528285Y-97133580D01*
X163528285Y-97133580D02*
X163480666Y-97181200D01*
X163480666Y-97181200D02*
X163385428Y-97228819D01*
X163385428Y-97228819D02*
X163194952Y-97228819D01*
X163194952Y-97228819D02*
X163099714Y-97181200D01*
X163099714Y-97181200D02*
X163052095Y-97133580D01*
X163052095Y-97133580D02*
X163004476Y-97038342D01*
X163004476Y-97038342D02*
X163004476Y-96228819D01*
X162623523Y-96228819D02*
X162004476Y-96228819D01*
X162004476Y-96228819D02*
X162337809Y-96609771D01*
X162337809Y-96609771D02*
X162194952Y-96609771D01*
X162194952Y-96609771D02*
X162099714Y-96657390D01*
X162099714Y-96657390D02*
X162052095Y-96705009D01*
X162052095Y-96705009D02*
X162004476Y-96800247D01*
X162004476Y-96800247D02*
X162004476Y-97038342D01*
X162004476Y-97038342D02*
X162052095Y-97133580D01*
X162052095Y-97133580D02*
X162099714Y-97181200D01*
X162099714Y-97181200D02*
X162194952Y-97228819D01*
X162194952Y-97228819D02*
X162480666Y-97228819D01*
X162480666Y-97228819D02*
X162575904Y-97181200D01*
X162575904Y-97181200D02*
X162623523Y-97133580D01*
X168060666Y-116691580D02*
X168108285Y-116739200D01*
X168108285Y-116739200D02*
X168251142Y-116786819D01*
X168251142Y-116786819D02*
X168346380Y-116786819D01*
X168346380Y-116786819D02*
X168489237Y-116739200D01*
X168489237Y-116739200D02*
X168584475Y-116643961D01*
X168584475Y-116643961D02*
X168632094Y-116548723D01*
X168632094Y-116548723D02*
X168679713Y-116358247D01*
X168679713Y-116358247D02*
X168679713Y-116215390D01*
X168679713Y-116215390D02*
X168632094Y-116024914D01*
X168632094Y-116024914D02*
X168584475Y-115929676D01*
X168584475Y-115929676D02*
X168489237Y-115834438D01*
X168489237Y-115834438D02*
X168346380Y-115786819D01*
X168346380Y-115786819D02*
X168251142Y-115786819D01*
X168251142Y-115786819D02*
X168108285Y-115834438D01*
X168108285Y-115834438D02*
X168060666Y-115882057D01*
X167679713Y-115882057D02*
X167632094Y-115834438D01*
X167632094Y-115834438D02*
X167536856Y-115786819D01*
X167536856Y-115786819D02*
X167298761Y-115786819D01*
X167298761Y-115786819D02*
X167203523Y-115834438D01*
X167203523Y-115834438D02*
X167155904Y-115882057D01*
X167155904Y-115882057D02*
X167108285Y-115977295D01*
X167108285Y-115977295D02*
X167108285Y-116072533D01*
X167108285Y-116072533D02*
X167155904Y-116215390D01*
X167155904Y-116215390D02*
X167727332Y-116786819D01*
X167727332Y-116786819D02*
X167108285Y-116786819D01*
X168568666Y-92434580D02*
X168616285Y-92482200D01*
X168616285Y-92482200D02*
X168759142Y-92529819D01*
X168759142Y-92529819D02*
X168854380Y-92529819D01*
X168854380Y-92529819D02*
X168997237Y-92482200D01*
X168997237Y-92482200D02*
X169092475Y-92386961D01*
X169092475Y-92386961D02*
X169140094Y-92291723D01*
X169140094Y-92291723D02*
X169187713Y-92101247D01*
X169187713Y-92101247D02*
X169187713Y-91958390D01*
X169187713Y-91958390D02*
X169140094Y-91767914D01*
X169140094Y-91767914D02*
X169092475Y-91672676D01*
X169092475Y-91672676D02*
X168997237Y-91577438D01*
X168997237Y-91577438D02*
X168854380Y-91529819D01*
X168854380Y-91529819D02*
X168759142Y-91529819D01*
X168759142Y-91529819D02*
X168616285Y-91577438D01*
X168616285Y-91577438D02*
X168568666Y-91625057D01*
X168235332Y-91529819D02*
X167616285Y-91529819D01*
X167616285Y-91529819D02*
X167949618Y-91910771D01*
X167949618Y-91910771D02*
X167806761Y-91910771D01*
X167806761Y-91910771D02*
X167711523Y-91958390D01*
X167711523Y-91958390D02*
X167663904Y-92006009D01*
X167663904Y-92006009D02*
X167616285Y-92101247D01*
X167616285Y-92101247D02*
X167616285Y-92339342D01*
X167616285Y-92339342D02*
X167663904Y-92434580D01*
X167663904Y-92434580D02*
X167711523Y-92482200D01*
X167711523Y-92482200D02*
X167806761Y-92529819D01*
X167806761Y-92529819D02*
X168092475Y-92529819D01*
X168092475Y-92529819D02*
X168187713Y-92482200D01*
X168187713Y-92482200D02*
X168235332Y-92434580D01*
X168568666Y-101832580D02*
X168616285Y-101880200D01*
X168616285Y-101880200D02*
X168759142Y-101927819D01*
X168759142Y-101927819D02*
X168854380Y-101927819D01*
X168854380Y-101927819D02*
X168997237Y-101880200D01*
X168997237Y-101880200D02*
X169092475Y-101784961D01*
X169092475Y-101784961D02*
X169140094Y-101689723D01*
X169140094Y-101689723D02*
X169187713Y-101499247D01*
X169187713Y-101499247D02*
X169187713Y-101356390D01*
X169187713Y-101356390D02*
X169140094Y-101165914D01*
X169140094Y-101165914D02*
X169092475Y-101070676D01*
X169092475Y-101070676D02*
X168997237Y-100975438D01*
X168997237Y-100975438D02*
X168854380Y-100927819D01*
X168854380Y-100927819D02*
X168759142Y-100927819D01*
X168759142Y-100927819D02*
X168616285Y-100975438D01*
X168616285Y-100975438D02*
X168568666Y-101023057D01*
X167711523Y-101261152D02*
X167711523Y-101927819D01*
X167949618Y-100880200D02*
X168187713Y-101594485D01*
X168187713Y-101594485D02*
X167568666Y-101594485D01*
X159932666Y-116691580D02*
X159980285Y-116739200D01*
X159980285Y-116739200D02*
X160123142Y-116786819D01*
X160123142Y-116786819D02*
X160218380Y-116786819D01*
X160218380Y-116786819D02*
X160361237Y-116739200D01*
X160361237Y-116739200D02*
X160456475Y-116643961D01*
X160456475Y-116643961D02*
X160504094Y-116548723D01*
X160504094Y-116548723D02*
X160551713Y-116358247D01*
X160551713Y-116358247D02*
X160551713Y-116215390D01*
X160551713Y-116215390D02*
X160504094Y-116024914D01*
X160504094Y-116024914D02*
X160456475Y-115929676D01*
X160456475Y-115929676D02*
X160361237Y-115834438D01*
X160361237Y-115834438D02*
X160218380Y-115786819D01*
X160218380Y-115786819D02*
X160123142Y-115786819D01*
X160123142Y-115786819D02*
X159980285Y-115834438D01*
X159980285Y-115834438D02*
X159932666Y-115882057D01*
X158980285Y-116786819D02*
X159551713Y-116786819D01*
X159265999Y-116786819D02*
X159265999Y-115786819D01*
X159265999Y-115786819D02*
X159361237Y-115929676D01*
X159361237Y-115929676D02*
X159456475Y-116024914D01*
X159456475Y-116024914D02*
X159551713Y-116072533D01*
X169076666Y-107674580D02*
X169124285Y-107722200D01*
X169124285Y-107722200D02*
X169267142Y-107769819D01*
X169267142Y-107769819D02*
X169362380Y-107769819D01*
X169362380Y-107769819D02*
X169505237Y-107722200D01*
X169505237Y-107722200D02*
X169600475Y-107626961D01*
X169600475Y-107626961D02*
X169648094Y-107531723D01*
X169648094Y-107531723D02*
X169695713Y-107341247D01*
X169695713Y-107341247D02*
X169695713Y-107198390D01*
X169695713Y-107198390D02*
X169648094Y-107007914D01*
X169648094Y-107007914D02*
X169600475Y-106912676D01*
X169600475Y-106912676D02*
X169505237Y-106817438D01*
X169505237Y-106817438D02*
X169362380Y-106769819D01*
X169362380Y-106769819D02*
X169267142Y-106769819D01*
X169267142Y-106769819D02*
X169124285Y-106817438D01*
X169124285Y-106817438D02*
X169076666Y-106865057D01*
X168171904Y-106769819D02*
X168648094Y-106769819D01*
X168648094Y-106769819D02*
X168695713Y-107246009D01*
X168695713Y-107246009D02*
X168648094Y-107198390D01*
X168648094Y-107198390D02*
X168552856Y-107150771D01*
X168552856Y-107150771D02*
X168314761Y-107150771D01*
X168314761Y-107150771D02*
X168219523Y-107198390D01*
X168219523Y-107198390D02*
X168171904Y-107246009D01*
X168171904Y-107246009D02*
X168124285Y-107341247D01*
X168124285Y-107341247D02*
X168124285Y-107579342D01*
X168124285Y-107579342D02*
X168171904Y-107674580D01*
X168171904Y-107674580D02*
X168219523Y-107722200D01*
X168219523Y-107722200D02*
X168314761Y-107769819D01*
X168314761Y-107769819D02*
X168552856Y-107769819D01*
X168552856Y-107769819D02*
X168648094Y-107722200D01*
X168648094Y-107722200D02*
X168695713Y-107674580D01*
D11*
%TO.C,U2*%
X163830000Y-106610000D02*
X161630000Y-106610000D01*
X163830000Y-106610000D02*
X166030000Y-106610000D01*
X163830000Y-111830000D02*
X160230000Y-111830000D01*
X163830000Y-111830000D02*
X166030000Y-111830000D01*
%TO.C,Y1*%
X166530000Y-121376000D02*
X161130000Y-121376000D01*
X166530000Y-116876000D02*
X166530000Y-121376000D01*
%TO.C,U3*%
X166914000Y-93364000D02*
X160904000Y-93364000D01*
X164664000Y-100184000D02*
X160904000Y-100184000D01*
X160904000Y-100184000D02*
X160904000Y-98924000D01*
X160904000Y-93364000D02*
X160904000Y-94624000D01*
%TO.C,C2*%
X168629000Y-118864748D02*
X168629000Y-119387252D01*
X167159000Y-118864748D02*
X167159000Y-119387252D01*
%TO.C,C3*%
X169137000Y-94480748D02*
X169137000Y-95003252D01*
X167667000Y-94480748D02*
X167667000Y-95003252D01*
%TO.C,C4*%
X169137000Y-98544748D02*
X169137000Y-99067252D01*
X167667000Y-98544748D02*
X167667000Y-99067252D01*
%TO.C,C1*%
X159031000Y-119387252D02*
X159031000Y-118864748D01*
X160501000Y-119387252D02*
X160501000Y-118864748D01*
%TO.C,C5*%
X168175000Y-110243252D02*
X168175000Y-109720748D01*
X169645000Y-110243252D02*
X169645000Y-109720748D01*
%TD*%
%LPC*%
D12*
%TO.C,J4*%
X175260000Y-91445000D03*
D13*
X175260000Y-93985000D03*
X175260000Y-96525000D03*
X175260000Y-99065000D03*
X175260000Y-101605000D03*
X175260000Y-104145000D03*
X175260000Y-106685000D03*
X175260000Y-109225000D03*
X175260000Y-111765000D03*
X175260000Y-114305000D03*
X175260000Y-116845000D03*
X175260000Y-119385000D03*
X175260000Y-121925000D03*
X175260000Y-124465000D03*
X175260000Y-127005000D03*
%TD*%
D12*
%TO.C,J2*%
X161305000Y-127005000D03*
D13*
X161305000Y-124465000D03*
X163845000Y-127005000D03*
X163845000Y-124465000D03*
X166385000Y-127005000D03*
X166385000Y-124465000D03*
%TD*%
D14*
%TO.C,SW3*%
X152400000Y-85852000D03*
X152400000Y-83312000D03*
X152400000Y-80772000D03*
%TD*%
%TO.C,SW2*%
X175260000Y-85852000D03*
X175260000Y-83312000D03*
X175260000Y-80772000D03*
%TD*%
D12*
%TO.C,J3*%
X152400000Y-91445000D03*
D13*
X152400000Y-93985000D03*
X152400000Y-96525000D03*
X152400000Y-99065000D03*
X152400000Y-101605000D03*
X152400000Y-104145000D03*
X152400000Y-106685000D03*
X152400000Y-109225000D03*
X152400000Y-111765000D03*
X152400000Y-114305000D03*
X152400000Y-116845000D03*
X152400000Y-119385000D03*
X152400000Y-121925000D03*
X152400000Y-124465000D03*
X152400000Y-127005000D03*
%TD*%
D15*
%TO.C,J1*%
X166720000Y-84393000D03*
X160940000Y-84393000D03*
D16*
X168150000Y-84893000D03*
D17*
X168150000Y-80713000D03*
D16*
X159510000Y-84893000D03*
D17*
X159510000Y-80713000D03*
%TD*%
D18*
%TO.C,U2*%
X160967500Y-111170000D03*
X160967500Y-110520000D03*
X160967500Y-109870000D03*
X160967500Y-109220000D03*
X160967500Y-108570000D03*
X160967500Y-107920000D03*
X160967500Y-107270000D03*
X166692500Y-107270000D03*
X166692500Y-107920000D03*
X166692500Y-108570000D03*
X166692500Y-109220000D03*
X166692500Y-109870000D03*
X166692500Y-110520000D03*
X166692500Y-111170000D03*
%TD*%
D19*
%TO.C,Y1*%
X165280000Y-120276000D03*
X162380000Y-120276000D03*
X162380000Y-117976000D03*
X165280000Y-117976000D03*
%TD*%
D20*
%TO.C,U3*%
X165964000Y-94474000D03*
X165964000Y-96774000D03*
D21*
X159664000Y-96774000D03*
D20*
X165964000Y-99074000D03*
%TD*%
D22*
%TO.C,C2*%
X167894000Y-118088500D03*
X167894000Y-120163500D03*
%TD*%
%TO.C,C3*%
X168402000Y-93704500D03*
X168402000Y-95779500D03*
%TD*%
%TO.C,C4*%
X168402000Y-97768500D03*
X168402000Y-99843500D03*
%TD*%
D23*
%TO.C,C1*%
X159766000Y-120163500D03*
X159766000Y-118088500D03*
%TD*%
%TO.C,C5*%
X168910000Y-111019500D03*
X168910000Y-108944500D03*
%TD*%
%LPD*%
M02*
