M48
INCH
T1C0.0157
T2C0.0236
T3C0.0315
T4C0.0394
%
G90
G05
T1
X6.2022Y-4.3458
X6.22Y-4.62
X6.23Y-4.38
X6.385Y-3.89
X6.415Y-4.04
X6.42Y-3.3
X6.445Y-4.54
X6.465Y-3.3
X6.465Y-4.375
X6.4972Y-4.2007
X6.52Y-4.53
X6.56Y-4.53
X6.68Y-5.0424
X6.705Y-3.945
T3
X6.0Y-3.18
X6.0Y-3.28
X6.0Y-3.38
X6.9Y-3.18
X6.9Y-3.28
X6.9Y-3.38
T4
X6.0Y-3.6002
X6.0Y-3.7002
X6.0Y-3.8002
X6.0Y-3.9002
X6.0Y-4.0002
X6.0Y-4.1002
X6.0Y-4.2002
X6.0Y-4.3002
X6.0Y-4.4002
X6.0Y-4.5002
X6.0Y-4.6002
X6.0Y-4.7002
X6.0Y-4.8002
X6.0Y-4.9002
X6.0Y-5.0002
X6.3506Y-4.9002
X6.3506Y-5.0002
X6.4506Y-4.9002
X6.4506Y-5.0002
X6.5506Y-4.9002
X6.5506Y-5.0002
X6.9Y-3.6002
X6.9Y-3.7002
X6.9Y-3.8002
X6.9Y-3.9002
X6.9Y-4.0002
X6.9Y-4.1002
X6.9Y-4.2002
X6.9Y-4.3002
X6.9Y-4.4002
X6.9Y-4.5002
X6.9Y-4.6002
X6.9Y-4.7002
X6.9Y-4.8002
X6.9Y-4.9002
X6.9Y-5.0002
T2
G00X6.2799Y-3.1934
M15
G01X6.2799Y-3.1619
M16
G05
G00X6.2799Y-3.3639
M15
G01X6.2799Y-3.3206
M16
G05
G00X6.6201Y-3.1934
M15
G01X6.6201Y-3.1619
M16
G05
G00X6.6201Y-3.3639
M15
G01X6.6201Y-3.3206
M16
G05
M30
