%TF.GenerationSoftware,KiCad,Pcbnew,7.0.10*%
%TF.CreationDate,2024-02-12T16:57:49+10:00*%
%TF.ProjectId,devboard,64657662-6f61-4726-942e-6b696361645f,rev?*%
%TF.SameCoordinates,Original*%
%TF.FileFunction,Copper,L1,Top*%
%TF.FilePolarity,Positive*%
%FSLAX46Y46*%
G04 Gerber Fmt 4.6, Leading zero omitted, Abs format (unit mm)*
G04 Created by KiCad (PCBNEW 7.0.10) date 2024-02-12 16:57:49*
%MOMM*%
%LPD*%
G01*
G04 APERTURE LIST*
G04 Aperture macros list*
%AMRoundRect*
0 Rectangle with rounded corners*
0 $1 Rounding radius*
0 $2 $3 $4 $5 $6 $7 $8 $9 X,Y pos of 4 corners*
0 Add a 4 corners polygon primitive as box body*
4,1,4,$2,$3,$4,$5,$6,$7,$8,$9,$2,$3,0*
0 Add four circle primitives for the rounded corners*
1,1,$1+$1,$2,$3*
1,1,$1+$1,$4,$5*
1,1,$1+$1,$6,$7*
1,1,$1+$1,$8,$9*
0 Add four rect primitives between the rounded corners*
20,1,$1+$1,$2,$3,$4,$5,0*
20,1,$1+$1,$4,$5,$6,$7,0*
20,1,$1+$1,$6,$7,$8,$9,0*
20,1,$1+$1,$8,$9,$2,$3,0*%
G04 Aperture macros list end*
%TA.AperFunction,SMDPad,CuDef*%
%ADD10RoundRect,0.250000X0.350000X0.450000X-0.350000X0.450000X-0.350000X-0.450000X0.350000X-0.450000X0*%
%TD*%
%TA.AperFunction,SMDPad,CuDef*%
%ADD11RoundRect,0.250000X-0.350000X-0.450000X0.350000X-0.450000X0.350000X0.450000X-0.350000X0.450000X0*%
%TD*%
%TA.AperFunction,SMDPad,CuDef*%
%ADD12RoundRect,0.250000X0.325000X0.450000X-0.325000X0.450000X-0.325000X-0.450000X0.325000X-0.450000X0*%
%TD*%
%TA.AperFunction,ComponentPad*%
%ADD13R,1.700000X1.700000*%
%TD*%
%TA.AperFunction,ComponentPad*%
%ADD14O,1.700000X1.700000*%
%TD*%
%TA.AperFunction,SMDPad,CuDef*%
%ADD15RoundRect,0.250000X-0.325000X-0.450000X0.325000X-0.450000X0.325000X0.450000X-0.325000X0.450000X0*%
%TD*%
%TA.AperFunction,SMDPad,CuDef*%
%ADD16RoundRect,0.250000X0.450000X-0.350000X0.450000X0.350000X-0.450000X0.350000X-0.450000X-0.350000X0*%
%TD*%
%TA.AperFunction,SMDPad,CuDef*%
%ADD17R,0.900000X1.000000*%
%TD*%
%TA.AperFunction,ComponentPad*%
%ADD18C,1.600000*%
%TD*%
%TA.AperFunction,SMDPad,CuDef*%
%ADD19R,0.550000X1.600000*%
%TD*%
%TA.AperFunction,SMDPad,CuDef*%
%ADD20R,1.600000X0.550000*%
%TD*%
%TA.AperFunction,SMDPad,CuDef*%
%ADD21RoundRect,0.150000X0.150000X0.425000X-0.150000X0.425000X-0.150000X-0.425000X0.150000X-0.425000X0*%
%TD*%
%TA.AperFunction,SMDPad,CuDef*%
%ADD22RoundRect,0.075000X0.075000X0.500000X-0.075000X0.500000X-0.075000X-0.500000X0.075000X-0.500000X0*%
%TD*%
%TA.AperFunction,ComponentPad*%
%ADD23O,1.000000X2.100000*%
%TD*%
%TA.AperFunction,ComponentPad*%
%ADD24O,1.000000X1.800000*%
%TD*%
%TA.AperFunction,ViaPad*%
%ADD25C,0.800000*%
%TD*%
%TA.AperFunction,Conductor*%
%ADD26C,0.254000*%
%TD*%
%TA.AperFunction,Conductor*%
%ADD27C,0.250000*%
%TD*%
%TA.AperFunction,Conductor*%
%ADD28C,0.381000*%
%TD*%
%TA.AperFunction,Conductor*%
%ADD29C,0.508000*%
%TD*%
G04 APERTURE END LIST*
D10*
%TO.P,R6,1*%
%TO.N,Net-(J1-CC1)*%
X164830000Y-87884000D03*
%TO.P,R6,2*%
%TO.N,GND*%
X162830000Y-87884000D03*
%TD*%
D11*
%TO.P,R3,1*%
%TO.N,Net-(D3-A)*%
X166513000Y-101092000D03*
%TO.P,R3,2*%
%TO.N,/VDD_UART*%
X168513000Y-101092000D03*
%TD*%
D12*
%TO.P,D4,1,K*%
%TO.N,Net-(D4-K)*%
X164728000Y-93472000D03*
%TO.P,D4,2,A*%
%TO.N,+3.3V*%
X162678000Y-93472000D03*
%TD*%
D10*
%TO.P,R5,1*%
%TO.N,Net-(J1-CC2)*%
X161020000Y-87884000D03*
%TO.P,R5,2*%
%TO.N,GND*%
X159020000Y-87884000D03*
%TD*%
D13*
%TO.P,J4,1,Pin_1*%
%TO.N,+3.3V*%
X175260000Y-91445000D03*
D14*
%TO.P,J4,2,Pin_2*%
%TO.N,GND*%
X175260000Y-93985000D03*
%TO.P,J4,3,Pin_3*%
X175260000Y-96525000D03*
%TO.P,J4,4,Pin_4*%
%TO.N,/VIN*%
X175260000Y-99065000D03*
%TO.P,J4,5,Pin_5*%
%TO.N,/AREF*%
X175260000Y-101605000D03*
%TO.P,J4,6,Pin_6*%
%TO.N,/ADC6*%
X175260000Y-104145000D03*
%TO.P,J4,7,Pin_7*%
%TO.N,/SCK*%
X175260000Y-106685000D03*
%TO.P,J4,8,Pin_8*%
%TO.N,/MISO*%
X175260000Y-109225000D03*
%TO.P,J4,9,Pin_9*%
%TO.N,/MOSI*%
X175260000Y-111765000D03*
%TO.P,J4,10,Pin_10*%
%TO.N,/PB2*%
X175260000Y-114305000D03*
%TO.P,J4,11,Pin_11*%
%TO.N,/PB1*%
X175260000Y-116845000D03*
%TO.P,J4,12,Pin_12*%
%TO.N,/PB0*%
X175260000Y-119385000D03*
%TO.P,J4,13,Pin_13*%
%TO.N,/PD7*%
X175260000Y-121925000D03*
%TO.P,J4,14,Pin_14*%
%TO.N,/PD6*%
X175260000Y-124465000D03*
%TO.P,J4,15,Pin_15*%
%TO.N,/PD5*%
X175260000Y-127005000D03*
%TD*%
D13*
%TO.P,J2,1,MISO*%
%TO.N,/MISO*%
X161305000Y-127005000D03*
D14*
%TO.P,J2,2,VCC*%
%TO.N,+3.3V*%
X161305000Y-124465000D03*
%TO.P,J2,3,SCK*%
%TO.N,/SCK*%
X163845000Y-127005000D03*
%TO.P,J2,4,MOSI*%
%TO.N,/MOSI*%
X163845000Y-124465000D03*
%TO.P,J2,5,~{RST}*%
%TO.N,/RST*%
X166385000Y-127005000D03*
%TO.P,J2,6,GND*%
%TO.N,GND*%
X166385000Y-124465000D03*
%TD*%
D15*
%TO.P,D2,1,K*%
%TO.N,Net-(D2-K)*%
X162678000Y-97282000D03*
%TO.P,D2,2,A*%
%TO.N,Net-(D2-A)*%
X164728000Y-97282000D03*
%TD*%
D16*
%TO.P,R1,1*%
%TO.N,+3.3V*%
X159766000Y-120126000D03*
%TO.P,R1,2*%
%TO.N,/RST*%
X159766000Y-118126000D03*
%TD*%
D11*
%TO.P,R4,1*%
%TO.N,Net-(D4-K)*%
X166513000Y-93472000D03*
%TO.P,R4,2*%
%TO.N,GND*%
X168513000Y-93472000D03*
%TD*%
D15*
%TO.P,D3,1,K*%
%TO.N,Net-(D3-K)*%
X162678000Y-101092000D03*
%TO.P,D3,2,A*%
%TO.N,Net-(D3-A)*%
X164728000Y-101092000D03*
%TD*%
D17*
%TO.P,SW1,1,1*%
%TO.N,/RST*%
X161780000Y-118326000D03*
X165880000Y-118326000D03*
%TO.P,SW1,2,2*%
%TO.N,GND*%
X161780000Y-119926000D03*
X165880000Y-119926000D03*
%TD*%
D18*
%TO.P,SW3,1,A*%
%TO.N,+3.3V*%
X152400000Y-85852000D03*
%TO.P,SW3,2,B*%
%TO.N,/VDD_UART*%
X152400000Y-83312000D03*
%TO.P,SW3,3,C*%
%TO.N,GND*%
X152400000Y-80772000D03*
%TD*%
%TO.P,SW2,1,A*%
%TO.N,/VIN*%
X175260000Y-85852000D03*
%TO.P,SW2,2,B*%
%TO.N,Net-(SW2-B)*%
X175260000Y-83312000D03*
%TO.P,SW2,3,C*%
%TO.N,GND*%
X175260000Y-80772000D03*
%TD*%
D13*
%TO.P,J3,1,Pin_1*%
%TO.N,+3.3V*%
X152400000Y-91445000D03*
D14*
%TO.P,J3,2,Pin_2*%
%TO.N,GND*%
X152400000Y-93985000D03*
%TO.P,J3,3,Pin_3*%
%TO.N,/ADC7*%
X152400000Y-96525000D03*
%TO.P,J3,4,Pin_4*%
%TO.N,/PC0*%
X152400000Y-99065000D03*
%TO.P,J3,5,Pin_5*%
%TO.N,/PC1*%
X152400000Y-101605000D03*
%TO.P,J3,6,Pin_6*%
%TO.N,/PC2*%
X152400000Y-104145000D03*
%TO.P,J3,7,Pin_7*%
%TO.N,/PC3*%
X152400000Y-106685000D03*
%TO.P,J3,8,Pin_8*%
%TO.N,/PC4*%
X152400000Y-109225000D03*
%TO.P,J3,9,Pin_9*%
%TO.N,/PC5*%
X152400000Y-111765000D03*
%TO.P,J3,10,Pin_10*%
%TO.N,/RST*%
X152400000Y-114305000D03*
%TO.P,J3,11,Pin_11*%
%TO.N,/RXD*%
X152400000Y-116845000D03*
%TO.P,J3,12,Pin_12*%
%TO.N,/TXD*%
X152400000Y-119385000D03*
%TO.P,J3,13,Pin_13*%
%TO.N,/PD2*%
X152400000Y-121925000D03*
%TO.P,J3,14,Pin_14*%
%TO.N,/PD3*%
X152400000Y-124465000D03*
%TO.P,J3,15,Pin_15*%
%TO.N,/PD4*%
X152400000Y-127005000D03*
%TD*%
D11*
%TO.P,R2,1*%
%TO.N,Net-(D2-A)*%
X166513000Y-97282000D03*
%TO.P,R2,2*%
%TO.N,/VDD_UART*%
X168513000Y-97282000D03*
%TD*%
D19*
%TO.P,U1,1,PD3*%
%TO.N,/PD3*%
X161030000Y-113470000D03*
%TO.P,U1,2,PD4*%
%TO.N,/PD4*%
X161830000Y-113470000D03*
%TO.P,U1,3,GND*%
%TO.N,GND*%
X162630000Y-113470000D03*
%TO.P,U1,4,VCC*%
%TO.N,+3.3V*%
X163430000Y-113470000D03*
%TO.P,U1,5,GND*%
%TO.N,GND*%
X164230000Y-113470000D03*
%TO.P,U1,6,VCC*%
%TO.N,+3.3V*%
X165030000Y-113470000D03*
%TO.P,U1,7,XTAL1/PB6*%
%TO.N,Net-(U1-XTAL1{slash}PB6)*%
X165830000Y-113470000D03*
%TO.P,U1,8,XTAL2/PB7*%
%TO.N,Net-(U1-XTAL2{slash}PB7)*%
X166630000Y-113470000D03*
D20*
%TO.P,U1,9,PD5*%
%TO.N,/PD5*%
X168080000Y-112020000D03*
%TO.P,U1,10,PD6*%
%TO.N,/PD6*%
X168080000Y-111220000D03*
%TO.P,U1,11,PD7*%
%TO.N,/PD7*%
X168080000Y-110420000D03*
%TO.P,U1,12,PB0*%
%TO.N,/PB0*%
X168080000Y-109620000D03*
%TO.P,U1,13,PB1*%
%TO.N,/PB1*%
X168080000Y-108820000D03*
%TO.P,U1,14,PB2*%
%TO.N,/PB2*%
X168080000Y-108020000D03*
%TO.P,U1,15,PB3*%
%TO.N,/MOSI*%
X168080000Y-107220000D03*
%TO.P,U1,16,PB4*%
%TO.N,/MISO*%
X168080000Y-106420000D03*
D19*
%TO.P,U1,17,PB5*%
%TO.N,/SCK*%
X166630000Y-104970000D03*
%TO.P,U1,18,AVCC*%
%TO.N,+3.3V*%
X165830000Y-104970000D03*
%TO.P,U1,19,ADC6*%
%TO.N,/ADC6*%
X165030000Y-104970000D03*
%TO.P,U1,20,AREF*%
%TO.N,/AREF*%
X164230000Y-104970000D03*
%TO.P,U1,21,GND*%
%TO.N,GND*%
X163430000Y-104970000D03*
%TO.P,U1,22,ADC7*%
%TO.N,/ADC7*%
X162630000Y-104970000D03*
%TO.P,U1,23,PC0*%
%TO.N,/PC0*%
X161830000Y-104970000D03*
%TO.P,U1,24,PC1*%
%TO.N,/PC1*%
X161030000Y-104970000D03*
D20*
%TO.P,U1,25,PC2*%
%TO.N,/PC2*%
X159580000Y-106420000D03*
%TO.P,U1,26,PC3*%
%TO.N,/PC3*%
X159580000Y-107220000D03*
%TO.P,U1,27,PC4*%
%TO.N,/PC4*%
X159580000Y-108020000D03*
%TO.P,U1,28,PC5*%
%TO.N,/PC5*%
X159580000Y-108820000D03*
%TO.P,U1,29,~{RESET}/PC6*%
%TO.N,/RST*%
X159580000Y-109620000D03*
%TO.P,U1,30,PD0*%
%TO.N,/RXD*%
X159580000Y-110420000D03*
%TO.P,U1,31,PD1*%
%TO.N,/TXD*%
X159580000Y-111220000D03*
%TO.P,U1,32,PD2*%
%TO.N,/PD2*%
X159580000Y-112020000D03*
%TD*%
D12*
%TO.P,D1,1,K*%
%TO.N,/VIN*%
X168665000Y-87884000D03*
%TO.P,D1,2,A*%
%TO.N,/VBUS*%
X166615000Y-87884000D03*
%TD*%
D21*
%TO.P,J1,A1,GND*%
%TO.N,GND*%
X167030000Y-85468000D03*
%TO.P,J1,A4,VBUS*%
%TO.N,/VBUS*%
X166230000Y-85468000D03*
D22*
%TO.P,J1,A5,CC1*%
%TO.N,Net-(J1-CC1)*%
X165080000Y-85468000D03*
%TO.P,J1,A6,D+*%
%TO.N,/D+*%
X164080000Y-85468000D03*
%TO.P,J1,A7,D-*%
%TO.N,/D-*%
X163580000Y-85468000D03*
%TO.P,J1,A8,SBU1*%
%TO.N,unconnected-(J1-SBU1-PadA8)*%
X162580000Y-85468000D03*
D21*
%TO.P,J1,A9,VBUS*%
%TO.N,/VBUS*%
X161430000Y-85468000D03*
%TO.P,J1,A12,GND*%
%TO.N,GND*%
X160630000Y-85468000D03*
%TO.P,J1,B1,GND*%
X160630000Y-85468000D03*
%TO.P,J1,B4,VBUS*%
%TO.N,/VBUS*%
X161430000Y-85468000D03*
D22*
%TO.P,J1,B5,CC2*%
%TO.N,Net-(J1-CC2)*%
X162080000Y-85468000D03*
%TO.P,J1,B6,D+*%
%TO.N,/D+*%
X163080000Y-85468000D03*
%TO.P,J1,B7,D-*%
%TO.N,/D-*%
X164580000Y-85468000D03*
%TO.P,J1,B8,SBU2*%
%TO.N,unconnected-(J1-SBU2-PadB8)*%
X165580000Y-85468000D03*
D21*
%TO.P,J1,B9,VBUS*%
%TO.N,/VBUS*%
X166230000Y-85468000D03*
%TO.P,J1,B12,GND*%
%TO.N,GND*%
X167030000Y-85468000D03*
D23*
%TO.P,J1,S1,SHIELD*%
X168150000Y-84893000D03*
D24*
X168150000Y-80713000D03*
D23*
X159510000Y-84893000D03*
D24*
X159510000Y-80713000D03*
%TD*%
D25*
%TO.N,GND*%
X164211000Y-111125000D03*
X163703000Y-115316000D03*
%TO.N,Net-(U1-XTAL1{slash}PB6)*%
X165608000Y-115062000D03*
%TO.N,Net-(U1-XTAL2{slash}PB7)*%
X166624000Y-115062000D03*
%TO.N,+3.3V*%
X165030000Y-106699000D03*
%TO.N,Net-(D2-K)*%
X162179000Y-98806000D03*
%TO.N,Net-(D3-K)*%
X162941000Y-102616000D03*
%TO.N,/D+*%
X163068000Y-83820000D03*
%TO.N,/D-*%
X164211000Y-83820000D03*
%TO.N,/MOSI*%
X169672000Y-128078000D03*
%TO.N,/RST*%
X157988000Y-117348000D03*
%TO.N,/VDD_UART*%
X170307000Y-100203000D03*
%TO.N,/RXD*%
X157536520Y-110382423D03*
%TO.N,/TXD*%
X158242000Y-111252000D03*
%TD*%
D26*
%TO.N,/MOSI*%
X169568000Y-128182000D02*
X165711470Y-128182000D01*
X165711470Y-128182000D02*
X165022000Y-127492530D01*
X165022000Y-125642000D02*
X163845000Y-124465000D01*
X169672000Y-128078000D02*
X169568000Y-128182000D01*
X165022000Y-127492530D02*
X165022000Y-125642000D01*
%TO.N,/VDD_UART*%
X169291000Y-101219000D02*
X168640000Y-101219000D01*
X170307000Y-100203000D02*
X169291000Y-101219000D01*
X168640000Y-101219000D02*
X168513000Y-101092000D01*
%TO.N,+3.3V*%
X162433000Y-115062000D02*
X157480000Y-115062000D01*
X162433000Y-115074134D02*
X163401866Y-116043000D01*
X162892000Y-115062000D02*
X162433000Y-115062000D01*
X162433000Y-115062000D02*
X162433000Y-115074134D01*
X163401866Y-116043000D02*
X164119000Y-116043000D01*
X164881000Y-113619000D02*
X165030000Y-113470000D01*
X164119000Y-116043000D02*
X164881000Y-115281000D01*
X164881000Y-115281000D02*
X164881000Y-113619000D01*
D27*
%TO.N,GND*%
X162630000Y-113470000D02*
X162630000Y-112706000D01*
X162630000Y-112706000D02*
X164211000Y-111125000D01*
X164230000Y-113470000D02*
X164230000Y-114789000D01*
X162888000Y-103378000D02*
X162560000Y-103378000D01*
D28*
X167575000Y-85468000D02*
X168150000Y-84893000D01*
D27*
X164230000Y-111144000D02*
X164211000Y-111125000D01*
X164230000Y-113470000D02*
X164230000Y-111144000D01*
D28*
X160085000Y-85468000D02*
X159510000Y-84893000D01*
D27*
X163430000Y-103920000D02*
X162888000Y-103378000D01*
X163430000Y-104970000D02*
X163430000Y-103920000D01*
D28*
X160630000Y-85468000D02*
X160085000Y-85468000D01*
D27*
X162560000Y-103378000D02*
X161544000Y-102362000D01*
X164230000Y-114789000D02*
X163703000Y-115316000D01*
D28*
X167030000Y-85468000D02*
X167575000Y-85468000D01*
D26*
%TO.N,Net-(U1-XTAL1{slash}PB6)*%
X165830000Y-114840000D02*
X165830000Y-113470000D01*
X165608000Y-115062000D02*
X165830000Y-114840000D01*
%TO.N,Net-(U1-XTAL2{slash}PB7)*%
X166624000Y-113476000D02*
X166630000Y-113470000D01*
X166624000Y-115062000D02*
X166624000Y-113476000D01*
%TO.N,+3.3V*%
X157464000Y-120126000D02*
X159766000Y-120126000D01*
D29*
X152400000Y-91445000D02*
X162687000Y-91445000D01*
X162687000Y-91445000D02*
X162678000Y-91454000D01*
D26*
X163430000Y-114524000D02*
X162892000Y-115062000D01*
X156918000Y-115624000D02*
X156918000Y-119580000D01*
D29*
X162687000Y-91445000D02*
X175260000Y-91445000D01*
D26*
X165030000Y-110236000D02*
X165030000Y-108458000D01*
X157480000Y-115062000D02*
X156918000Y-115624000D01*
D29*
X152400000Y-85852000D02*
X152400000Y-91445000D01*
D26*
X165030000Y-106699000D02*
X165830000Y-105899000D01*
X165030000Y-108458000D02*
X165030000Y-106699000D01*
X163430000Y-113470000D02*
X163430000Y-114524000D01*
X165030000Y-113470000D02*
X165030000Y-110236000D01*
D29*
X162678000Y-91454000D02*
X162678000Y-93472000D01*
D26*
X156918000Y-119580000D02*
X157464000Y-120126000D01*
X159766000Y-122926000D02*
X161305000Y-124465000D01*
X159766000Y-120126000D02*
X159766000Y-122926000D01*
X165830000Y-105899000D02*
X165830000Y-104970000D01*
D28*
%TO.N,/VIN*%
X168665000Y-87884000D02*
X173228000Y-87884000D01*
X176547500Y-97777500D02*
X175260000Y-99065000D01*
X176547500Y-87139500D02*
X176547500Y-97777500D01*
X175260000Y-85852000D02*
X176547500Y-87139500D01*
X173228000Y-87884000D02*
X175260000Y-85852000D01*
%TO.N,/VBUS*%
X166230000Y-87499000D02*
X166615000Y-87884000D01*
X166230000Y-86042999D02*
X166230000Y-85468000D01*
X161430000Y-85468000D02*
X161430000Y-86042999D01*
X161430000Y-86042999D02*
X161039499Y-86433500D01*
X169291000Y-83693000D02*
X169291000Y-85852000D01*
X161039499Y-86433500D02*
X158823500Y-86433500D01*
X169291000Y-85852000D02*
X168709500Y-86433500D01*
X158823500Y-86433500D02*
X158242000Y-85852000D01*
X158242000Y-85852000D02*
X158242000Y-83693000D01*
X159004000Y-82931000D02*
X168529000Y-82931000D01*
X166230000Y-85468000D02*
X166230000Y-87499000D01*
X168529000Y-82931000D02*
X169291000Y-83693000D01*
X158242000Y-83693000D02*
X159004000Y-82931000D01*
X166620501Y-86433500D02*
X166230000Y-86042999D01*
X168709500Y-86433500D02*
X166620501Y-86433500D01*
D26*
%TO.N,Net-(D2-K)*%
X162179000Y-98806000D02*
X162687000Y-98298000D01*
X162687000Y-98298000D02*
X162687000Y-97291000D01*
X162687000Y-97291000D02*
X162678000Y-97282000D01*
%TO.N,Net-(D2-A)*%
X166513000Y-97282000D02*
X164728000Y-97282000D01*
%TO.N,Net-(D3-K)*%
X162941000Y-102616000D02*
X162941000Y-101355000D01*
X162941000Y-101355000D02*
X162678000Y-101092000D01*
%TO.N,Net-(D3-A)*%
X166513000Y-101092000D02*
X164728000Y-101092000D01*
%TO.N,Net-(D4-K)*%
X166513000Y-93472000D02*
X164728000Y-93472000D01*
%TO.N,Net-(J1-CC1)*%
X165080000Y-87634000D02*
X164830000Y-87884000D01*
X165080000Y-85468000D02*
X165080000Y-87634000D01*
%TO.N,/D+*%
X163080000Y-83832000D02*
X163068000Y-83820000D01*
X163080000Y-85468000D02*
X163080000Y-86372000D01*
X164080000Y-86364000D02*
X164080000Y-85468000D01*
X163080000Y-85468000D02*
X163080000Y-83832000D01*
X163195000Y-86487000D02*
X163957000Y-86487000D01*
X163957000Y-86487000D02*
X164080000Y-86364000D01*
X163080000Y-86372000D02*
X163195000Y-86487000D01*
%TO.N,/D-*%
X164580000Y-84689000D02*
X164580000Y-85468000D01*
X163580000Y-85468000D02*
X163580000Y-84709000D01*
X164100000Y-84566000D02*
X164211000Y-84455000D01*
X164457000Y-84566000D02*
X164580000Y-84689000D01*
X164211000Y-84455000D02*
X164211000Y-83820000D01*
X163723000Y-84566000D02*
X164457000Y-84566000D01*
X163723000Y-84566000D02*
X164100000Y-84566000D01*
X163580000Y-84709000D02*
X163723000Y-84566000D01*
%TO.N,Net-(J1-CC2)*%
X162080000Y-86824000D02*
X161020000Y-87884000D01*
X162080000Y-85468000D02*
X162080000Y-86824000D01*
%TO.N,/MISO*%
X175260000Y-109225000D02*
X172455000Y-106420000D01*
X172455000Y-106420000D02*
X168080000Y-106420000D01*
%TO.N,/SCK*%
X167460000Y-104140000D02*
X166630000Y-104970000D01*
X172715000Y-104140000D02*
X167460000Y-104140000D01*
X175260000Y-106685000D02*
X172715000Y-104140000D01*
%TO.N,/MOSI*%
X175260000Y-111765000D02*
X174002052Y-111765000D01*
X174002052Y-111765000D02*
X169457052Y-107220000D01*
X169457052Y-107220000D02*
X168080000Y-107220000D01*
%TO.N,/RST*%
X152400000Y-114305000D02*
X152400000Y-114300000D01*
X157080000Y-109620000D02*
X159580000Y-109620000D01*
X152400000Y-114300000D02*
X157080000Y-109620000D01*
X159966000Y-118326000D02*
X159766000Y-118126000D01*
X165880000Y-118326000D02*
X167094000Y-118326000D01*
X161780000Y-118326000D02*
X159966000Y-118326000D01*
X159766000Y-118126000D02*
X158766000Y-118126000D01*
X168021000Y-125369000D02*
X166385000Y-127005000D01*
X165880000Y-118326000D02*
X161780000Y-118326000D01*
X167094000Y-118326000D02*
X168021000Y-119253000D01*
X168021000Y-119253000D02*
X168021000Y-125369000D01*
X158766000Y-118126000D02*
X157988000Y-117348000D01*
%TO.N,/VDD_UART*%
X151049000Y-84663000D02*
X151049000Y-92710000D01*
X152400000Y-83312000D02*
X151049000Y-84663000D01*
X153670000Y-92710000D02*
X156972000Y-96012000D01*
X156972000Y-96012000D02*
X167243000Y-96012000D01*
X167243000Y-96012000D02*
X168513000Y-97282000D01*
X168513000Y-97282000D02*
X168513000Y-101092000D01*
X151049000Y-92710000D02*
X153670000Y-92710000D01*
%TO.N,/PD3*%
X160962000Y-113538000D02*
X157226000Y-113538000D01*
X155956000Y-114808000D02*
X155956000Y-120904000D01*
X157226000Y-113538000D02*
X155956000Y-114808000D01*
X155956000Y-120904000D02*
X152400000Y-124460000D01*
X161030000Y-113470000D02*
X160962000Y-113538000D01*
X152400000Y-124460000D02*
X152400000Y-124465000D01*
%TO.N,/PD4*%
X156464000Y-122936000D02*
X156464000Y-115316000D01*
X161632000Y-114597000D02*
X161830000Y-114399000D01*
X152400000Y-127005000D02*
X152400000Y-127000000D01*
X157183000Y-114597000D02*
X161632000Y-114597000D01*
X152400000Y-127000000D02*
X156464000Y-122936000D01*
X156464000Y-115316000D02*
X157183000Y-114597000D01*
X161830000Y-114399000D02*
X161830000Y-113470000D01*
%TO.N,/PD5*%
X172174000Y-123919000D02*
X175260000Y-127005000D01*
X168080000Y-112020000D02*
X170305948Y-112020000D01*
X172174000Y-113888052D02*
X172174000Y-123919000D01*
X170305948Y-112020000D02*
X172174000Y-113888052D01*
%TO.N,/PD6*%
X170148000Y-111220000D02*
X172628000Y-113700000D01*
X168080000Y-111220000D02*
X170148000Y-111220000D01*
X172628000Y-113700000D02*
X172628000Y-121833000D01*
X172628000Y-121833000D02*
X175260000Y-124465000D01*
%TO.N,/PD7*%
X170088844Y-110420000D02*
X168080000Y-110420000D01*
X173082000Y-113413156D02*
X170088844Y-110420000D01*
X175260000Y-121925000D02*
X173082000Y-119747000D01*
X173082000Y-119747000D02*
X173082000Y-113413156D01*
%TO.N,/PB0*%
X173536000Y-117661000D02*
X173536000Y-113225104D01*
X173536000Y-113225104D02*
X169930896Y-109620000D01*
X169930896Y-109620000D02*
X168080000Y-109620000D01*
X175260000Y-119385000D02*
X173536000Y-117661000D01*
%TO.N,/PB1*%
X173990000Y-115575000D02*
X173990000Y-113037052D01*
X175260000Y-116845000D02*
X173990000Y-115575000D01*
X173990000Y-113037052D02*
X169772948Y-108820000D01*
X169772948Y-108820000D02*
X168080000Y-108820000D01*
%TO.N,/PB2*%
X175260000Y-114305000D02*
X175260000Y-113665000D01*
X175260000Y-113665000D02*
X169615000Y-108020000D01*
X169615000Y-108020000D02*
X168080000Y-108020000D01*
%TO.N,/ADC6*%
X175260000Y-104145000D02*
X174747000Y-103632000D01*
X174747000Y-103632000D02*
X165314000Y-103632000D01*
X165314000Y-103632000D02*
X165030000Y-103916000D01*
X165030000Y-103916000D02*
X165030000Y-104970000D01*
%TO.N,/AREF*%
X165147000Y-103124000D02*
X164230000Y-104041000D01*
X175260000Y-101605000D02*
X173741000Y-103124000D01*
X173741000Y-103124000D02*
X165147000Y-103124000D01*
X164230000Y-104041000D02*
X164230000Y-104970000D01*
%TO.N,/ADC7*%
X154178000Y-100076000D02*
X157491000Y-103389000D01*
X154178000Y-98303000D02*
X154178000Y-100076000D01*
X157491000Y-103389000D02*
X161820052Y-103389000D01*
X152400000Y-96525000D02*
X154178000Y-98303000D01*
X161820052Y-103389000D02*
X162630000Y-104198948D01*
X162630000Y-104198948D02*
X162630000Y-104970000D01*
%TO.N,/PC0*%
X161632000Y-103843000D02*
X161830000Y-104041000D01*
X157183000Y-103843000D02*
X161632000Y-103843000D01*
X152400000Y-99065000D02*
X152405000Y-99065000D01*
X161830000Y-104041000D02*
X161830000Y-104970000D01*
X152405000Y-99065000D02*
X157183000Y-103843000D01*
%TO.N,/PC1*%
X152400000Y-101605000D02*
X154183000Y-101605000D01*
X156875000Y-104297000D02*
X160357000Y-104297000D01*
X154183000Y-101605000D02*
X156875000Y-104297000D01*
X160357000Y-104297000D02*
X161030000Y-104970000D01*
%TO.N,/PC2*%
X152400000Y-104145000D02*
X154675000Y-106420000D01*
X154675000Y-106420000D02*
X159580000Y-106420000D01*
%TO.N,/PC3*%
X154210000Y-107220000D02*
X159580000Y-107220000D01*
X152400000Y-106685000D02*
X152405000Y-106680000D01*
X153670000Y-106680000D02*
X154210000Y-107220000D01*
X152405000Y-106680000D02*
X153670000Y-106680000D01*
%TO.N,/PC4*%
X153675000Y-107950000D02*
X159510000Y-107950000D01*
X159510000Y-107950000D02*
X159580000Y-108020000D01*
X152400000Y-109225000D02*
X153675000Y-107950000D01*
%TO.N,/PC5*%
X157237948Y-108820000D02*
X159580000Y-108820000D01*
X152400000Y-111765000D02*
X154292948Y-111765000D01*
X154292948Y-111765000D02*
X157237948Y-108820000D01*
%TO.N,/RXD*%
X154305000Y-113037052D02*
X156922052Y-110420000D01*
X156922052Y-110420000D02*
X159580000Y-110420000D01*
X152400000Y-116845000D02*
X154305000Y-114940000D01*
X154305000Y-114940000D02*
X154305000Y-113037052D01*
%TO.N,/TXD*%
X156764104Y-111220000D02*
X159580000Y-111220000D01*
X154940000Y-113044104D02*
X156764104Y-111220000D01*
X154940000Y-116845000D02*
X154940000Y-113044104D01*
X152400000Y-119385000D02*
X154940000Y-116845000D01*
%TO.N,/PD2*%
X155448000Y-113284000D02*
X155448000Y-118877000D01*
X155448000Y-118877000D02*
X152400000Y-121925000D01*
X159580000Y-112020000D02*
X156712000Y-112020000D01*
X156712000Y-112020000D02*
X155448000Y-113284000D01*
%TD*%
%TA.AperFunction,Conductor*%
%TO.N,GND*%
G36*
X164924318Y-118973185D02*
G01*
X164970073Y-119025989D01*
X164973461Y-119034166D01*
X164989303Y-119076640D01*
X164987733Y-119077225D01*
X165000383Y-119135367D01*
X164988687Y-119175206D01*
X164989746Y-119175601D01*
X164936403Y-119318620D01*
X164936401Y-119318627D01*
X164930000Y-119378155D01*
X164930000Y-119676000D01*
X166830000Y-119676000D01*
X166830000Y-119378172D01*
X166829999Y-119378155D01*
X166823598Y-119318627D01*
X166823596Y-119318619D01*
X166799370Y-119253667D01*
X166794385Y-119183975D01*
X166827869Y-119122652D01*
X166889192Y-119089166D01*
X166958884Y-119094150D01*
X167003232Y-119122651D01*
X167357181Y-119476600D01*
X167390666Y-119537923D01*
X167393500Y-119564281D01*
X167393500Y-123284912D01*
X167373815Y-123351951D01*
X167321011Y-123397706D01*
X167251853Y-123407650D01*
X167198376Y-123386487D01*
X167062578Y-123291399D01*
X166848492Y-123191570D01*
X166848486Y-123191567D01*
X166635000Y-123134364D01*
X166635000Y-124029498D01*
X166527315Y-123980320D01*
X166420763Y-123965000D01*
X166349237Y-123965000D01*
X166242685Y-123980320D01*
X166135000Y-124029498D01*
X166135000Y-123134364D01*
X166134999Y-123134364D01*
X165921513Y-123191567D01*
X165921507Y-123191570D01*
X165707422Y-123291399D01*
X165707420Y-123291400D01*
X165513926Y-123426886D01*
X165513920Y-123426891D01*
X165346891Y-123593920D01*
X165346890Y-123593922D01*
X165216880Y-123779595D01*
X165162303Y-123823219D01*
X165092804Y-123830412D01*
X165030450Y-123798890D01*
X165013730Y-123779594D01*
X164883494Y-123593597D01*
X164716402Y-123426506D01*
X164716395Y-123426501D01*
X164522834Y-123290967D01*
X164522830Y-123290965D01*
X164502689Y-123281573D01*
X164308663Y-123191097D01*
X164308659Y-123191096D01*
X164308655Y-123191094D01*
X164080413Y-123129938D01*
X164080403Y-123129936D01*
X163845001Y-123109341D01*
X163844999Y-123109341D01*
X163609596Y-123129936D01*
X163609586Y-123129938D01*
X163381344Y-123191094D01*
X163381337Y-123191096D01*
X163381337Y-123191097D01*
X163374007Y-123194515D01*
X163167171Y-123290964D01*
X163167169Y-123290965D01*
X162973597Y-123426505D01*
X162806505Y-123593597D01*
X162676575Y-123779158D01*
X162621998Y-123822783D01*
X162552500Y-123829977D01*
X162490145Y-123798454D01*
X162473425Y-123779158D01*
X162343494Y-123593597D01*
X162176402Y-123426506D01*
X162176395Y-123426501D01*
X161982834Y-123290967D01*
X161982830Y-123290965D01*
X161962689Y-123281573D01*
X161768663Y-123191097D01*
X161768659Y-123191096D01*
X161768655Y-123191094D01*
X161540413Y-123129938D01*
X161540403Y-123129936D01*
X161305001Y-123109341D01*
X161304999Y-123109341D01*
X161069596Y-123129936D01*
X161069583Y-123129939D01*
X160971356Y-123156258D01*
X160901507Y-123154595D01*
X160851583Y-123124164D01*
X160429819Y-122702399D01*
X160396334Y-122641076D01*
X160393500Y-122614718D01*
X160393500Y-121297353D01*
X160413185Y-121230314D01*
X160465989Y-121184559D01*
X160478482Y-121179652D01*
X160535334Y-121160814D01*
X160684656Y-121068712D01*
X160808712Y-120944656D01*
X160857451Y-120865636D01*
X160909399Y-120818912D01*
X160978361Y-120807689D01*
X161037301Y-120831467D01*
X161087906Y-120869350D01*
X161087913Y-120869354D01*
X161222620Y-120919596D01*
X161222627Y-120919598D01*
X161282155Y-120925999D01*
X161282172Y-120926000D01*
X161530000Y-120926000D01*
X161530000Y-120176000D01*
X162030000Y-120176000D01*
X162030000Y-120926000D01*
X162277828Y-120926000D01*
X162277844Y-120925999D01*
X162337372Y-120919598D01*
X162337379Y-120919596D01*
X162472086Y-120869354D01*
X162472093Y-120869350D01*
X162587187Y-120783190D01*
X162587190Y-120783187D01*
X162673350Y-120668093D01*
X162673354Y-120668086D01*
X162723596Y-120533379D01*
X162723598Y-120533372D01*
X162729999Y-120473844D01*
X162730000Y-120473827D01*
X162730000Y-120176000D01*
X164930000Y-120176000D01*
X164930000Y-120473844D01*
X164936401Y-120533372D01*
X164936403Y-120533379D01*
X164986645Y-120668086D01*
X164986649Y-120668093D01*
X165072809Y-120783187D01*
X165072812Y-120783190D01*
X165187906Y-120869350D01*
X165187913Y-120869354D01*
X165322620Y-120919596D01*
X165322627Y-120919598D01*
X165382155Y-120925999D01*
X165382172Y-120926000D01*
X165630000Y-120926000D01*
X165630000Y-120176000D01*
X166130000Y-120176000D01*
X166130000Y-120926000D01*
X166377828Y-120926000D01*
X166377844Y-120925999D01*
X166437372Y-120919598D01*
X166437379Y-120919596D01*
X166572086Y-120869354D01*
X166572093Y-120869350D01*
X166687187Y-120783190D01*
X166687190Y-120783187D01*
X166773350Y-120668093D01*
X166773354Y-120668086D01*
X166823596Y-120533379D01*
X166823598Y-120533372D01*
X166829999Y-120473844D01*
X166830000Y-120473827D01*
X166830000Y-120176000D01*
X166130000Y-120176000D01*
X165630000Y-120176000D01*
X164930000Y-120176000D01*
X162730000Y-120176000D01*
X162030000Y-120176000D01*
X161530000Y-120176000D01*
X161530000Y-119800000D01*
X161549685Y-119732961D01*
X161602489Y-119687206D01*
X161654000Y-119676000D01*
X162730000Y-119676000D01*
X162730000Y-119378172D01*
X162729999Y-119378155D01*
X162723598Y-119318627D01*
X162723597Y-119318623D01*
X162670253Y-119175602D01*
X162672067Y-119174925D01*
X162659616Y-119117674D01*
X162671570Y-119076966D01*
X162670696Y-119076640D01*
X162673794Y-119068333D01*
X162673796Y-119068331D01*
X162686539Y-119034164D01*
X162728410Y-118978233D01*
X162793874Y-118953816D01*
X162802720Y-118953500D01*
X164857279Y-118953500D01*
X164924318Y-118973185D01*
G37*
%TD.AperFunction*%
%TA.AperFunction,Conductor*%
G36*
X164196539Y-114789685D02*
G01*
X164242294Y-114842489D01*
X164253500Y-114894000D01*
X164253500Y-114969719D01*
X164233815Y-115036758D01*
X164217181Y-115057400D01*
X163895400Y-115379181D01*
X163834077Y-115412666D01*
X163807719Y-115415500D01*
X163725281Y-115415500D01*
X163658242Y-115395815D01*
X163612487Y-115343011D01*
X163602543Y-115273853D01*
X163631568Y-115210297D01*
X163637590Y-115203828D01*
X163815047Y-115026370D01*
X163827325Y-115016537D01*
X163827144Y-115016318D01*
X163833157Y-115011342D01*
X163833162Y-115011340D01*
X163879384Y-114962116D01*
X163882033Y-114959384D01*
X163901623Y-114939796D01*
X163904096Y-114936606D01*
X163911682Y-114927722D01*
X163941693Y-114895767D01*
X163951389Y-114878128D01*
X163962073Y-114861861D01*
X163974408Y-114845962D01*
X163974409Y-114845960D01*
X163974931Y-114844755D01*
X163975592Y-114843959D01*
X163978383Y-114839242D01*
X163979143Y-114839691D01*
X164019620Y-114791047D01*
X164086252Y-114770025D01*
X164088733Y-114770000D01*
X164129500Y-114770000D01*
X164196539Y-114789685D01*
G37*
%TD.AperFunction*%
%TA.AperFunction,Conductor*%
G36*
X163517681Y-106023089D02*
G01*
X163529261Y-106036452D01*
X163597454Y-106127546D01*
X163626433Y-106149240D01*
X163630309Y-106152141D01*
X163672181Y-106208074D01*
X163680000Y-106251409D01*
X163680000Y-106270000D01*
X163752828Y-106270000D01*
X163752839Y-106269999D01*
X163814395Y-106263380D01*
X163840909Y-106263380D01*
X163847514Y-106264090D01*
X163847517Y-106264091D01*
X163907127Y-106270500D01*
X164051714Y-106270499D01*
X164118753Y-106290183D01*
X164164508Y-106342987D01*
X164174452Y-106412145D01*
X164169645Y-106432816D01*
X164144327Y-106510738D01*
X164144326Y-106510742D01*
X164144326Y-106510744D01*
X164124540Y-106699000D01*
X164144326Y-106887256D01*
X164144327Y-106887259D01*
X164202818Y-107067277D01*
X164202821Y-107067284D01*
X164249789Y-107148636D01*
X164297467Y-107231216D01*
X164370651Y-107312494D01*
X164400880Y-107375484D01*
X164402500Y-107395465D01*
X164402500Y-112264441D01*
X164382815Y-112331480D01*
X164377766Y-112338753D01*
X164329265Y-112403541D01*
X164273331Y-112445411D01*
X164203639Y-112450395D01*
X164142317Y-112416909D01*
X164130739Y-112403548D01*
X164062546Y-112312454D01*
X164029686Y-112287855D01*
X163987817Y-112231921D01*
X163980000Y-112188590D01*
X163980000Y-112170000D01*
X163907166Y-112170000D01*
X163845595Y-112176619D01*
X163819088Y-112176619D01*
X163809818Y-112175622D01*
X163752873Y-112169500D01*
X163752865Y-112169500D01*
X163107129Y-112169500D01*
X163107125Y-112169501D01*
X163059160Y-112174657D01*
X163047517Y-112175909D01*
X163047516Y-112175909D01*
X163040904Y-112176620D01*
X163014393Y-112176619D01*
X162952842Y-112170000D01*
X162880000Y-112170000D01*
X162880000Y-112188590D01*
X162860315Y-112255629D01*
X162830313Y-112287856D01*
X162797451Y-112312456D01*
X162729266Y-112403540D01*
X162673332Y-112445411D01*
X162603641Y-112450395D01*
X162542318Y-112416909D01*
X162530734Y-112403540D01*
X162462548Y-112312456D01*
X162462546Y-112312455D01*
X162462546Y-112312454D01*
X162429686Y-112287855D01*
X162387817Y-112231921D01*
X162380000Y-112188590D01*
X162380000Y-112170000D01*
X162307166Y-112170000D01*
X162245595Y-112176619D01*
X162219088Y-112176619D01*
X162209818Y-112175622D01*
X162152873Y-112169500D01*
X162152865Y-112169500D01*
X161507129Y-112169500D01*
X161507120Y-112169501D01*
X161443248Y-112176367D01*
X161416742Y-112176367D01*
X161412483Y-112175909D01*
X161352873Y-112169500D01*
X161352867Y-112169500D01*
X161004499Y-112169500D01*
X160937460Y-112149815D01*
X160891705Y-112097011D01*
X160880499Y-112045500D01*
X160880499Y-111697129D01*
X160880499Y-111697128D01*
X160874091Y-111637517D01*
X160874089Y-111637513D01*
X160873632Y-111633255D01*
X160873632Y-111606745D01*
X160874089Y-111602486D01*
X160874091Y-111602483D01*
X160880500Y-111542873D01*
X160880499Y-110897128D01*
X160874091Y-110837517D01*
X160874089Y-110837513D01*
X160873632Y-110833255D01*
X160873632Y-110806745D01*
X160874089Y-110802486D01*
X160874091Y-110802483D01*
X160880500Y-110742873D01*
X160880499Y-110097128D01*
X160874091Y-110037517D01*
X160874089Y-110037513D01*
X160873632Y-110033255D01*
X160873632Y-110006745D01*
X160874089Y-110002486D01*
X160874091Y-110002483D01*
X160880500Y-109942873D01*
X160880499Y-109297128D01*
X160874091Y-109237517D01*
X160874089Y-109237513D01*
X160873632Y-109233255D01*
X160873632Y-109206745D01*
X160874089Y-109202486D01*
X160874091Y-109202483D01*
X160880500Y-109142873D01*
X160880499Y-108497128D01*
X160874091Y-108437517D01*
X160874089Y-108437513D01*
X160873632Y-108433255D01*
X160873632Y-108406745D01*
X160874089Y-108402486D01*
X160874091Y-108402483D01*
X160880500Y-108342873D01*
X160880499Y-107697128D01*
X160874091Y-107637517D01*
X160874089Y-107637513D01*
X160873632Y-107633255D01*
X160873632Y-107606745D01*
X160874089Y-107602486D01*
X160874091Y-107602483D01*
X160880500Y-107542873D01*
X160880499Y-106897128D01*
X160874091Y-106837517D01*
X160874089Y-106837513D01*
X160873632Y-106833255D01*
X160873632Y-106806745D01*
X160874089Y-106802486D01*
X160874091Y-106802483D01*
X160880500Y-106742873D01*
X160880499Y-106394498D01*
X160900183Y-106327460D01*
X160952987Y-106281705D01*
X161004499Y-106270499D01*
X161352871Y-106270499D01*
X161352872Y-106270499D01*
X161412483Y-106264091D01*
X161412486Y-106264089D01*
X161416744Y-106263632D01*
X161443254Y-106263632D01*
X161447514Y-106264089D01*
X161447517Y-106264091D01*
X161507127Y-106270500D01*
X162152872Y-106270499D01*
X162212483Y-106264091D01*
X162212486Y-106264089D01*
X162216744Y-106263632D01*
X162243254Y-106263632D01*
X162247514Y-106264089D01*
X162247517Y-106264091D01*
X162307127Y-106270500D01*
X162952872Y-106270499D01*
X163012483Y-106264091D01*
X163012483Y-106264090D01*
X163019096Y-106263380D01*
X163045607Y-106263381D01*
X163107157Y-106269999D01*
X163107172Y-106270000D01*
X163180000Y-106270000D01*
X163180000Y-106251409D01*
X163199685Y-106184370D01*
X163229691Y-106152141D01*
X163231175Y-106151030D01*
X163262546Y-106127546D01*
X163330734Y-106036457D01*
X163386667Y-105994588D01*
X163456358Y-105989604D01*
X163517681Y-106023089D01*
G37*
%TD.AperFunction*%
%TA.AperFunction,Conductor*%
G36*
X163951144Y-102146772D02*
G01*
X163967959Y-102155445D01*
X164083666Y-102226814D01*
X164250203Y-102281999D01*
X164352991Y-102292500D01*
X164888599Y-102292499D01*
X164955638Y-102312183D01*
X165001393Y-102364987D01*
X165011337Y-102434146D01*
X164982312Y-102497702D01*
X164923534Y-102535476D01*
X164923197Y-102535574D01*
X164895810Y-102543531D01*
X164895806Y-102543533D01*
X164878480Y-102553779D01*
X164861010Y-102562337D01*
X164842298Y-102569745D01*
X164806826Y-102595516D01*
X164797066Y-102601927D01*
X164759346Y-102624234D01*
X164745106Y-102638474D01*
X164730320Y-102651102D01*
X164714033Y-102662936D01*
X164686090Y-102696712D01*
X164678229Y-102705350D01*
X163844953Y-103538626D01*
X163832669Y-103548469D01*
X163832849Y-103548687D01*
X163826837Y-103553660D01*
X163780646Y-103602847D01*
X163777941Y-103605638D01*
X163758383Y-103625196D01*
X163755909Y-103628004D01*
X163696809Y-103665273D01*
X163682770Y-103667229D01*
X163680000Y-103670000D01*
X163680000Y-103688589D01*
X163660315Y-103755628D01*
X163630313Y-103787854D01*
X163597459Y-103812449D01*
X163597451Y-103812457D01*
X163529266Y-103903540D01*
X163473332Y-103945411D01*
X163403641Y-103950395D01*
X163342318Y-103916909D01*
X163330734Y-103903540D01*
X163262548Y-103812456D01*
X163262546Y-103812455D01*
X163262546Y-103812454D01*
X163229686Y-103787855D01*
X163187817Y-103731921D01*
X163180000Y-103688590D01*
X163180000Y-103664427D01*
X163153218Y-103615380D01*
X163158202Y-103545688D01*
X163200074Y-103489755D01*
X163223935Y-103475749D01*
X163393730Y-103400151D01*
X163546871Y-103288888D01*
X163673533Y-103148216D01*
X163768179Y-102984284D01*
X163826674Y-102804256D01*
X163846460Y-102616000D01*
X163826674Y-102427744D01*
X163784943Y-102299309D01*
X163782948Y-102229468D01*
X163819028Y-102169635D01*
X163881729Y-102138807D01*
X163951144Y-102146772D01*
G37*
%TD.AperFunction*%
%TA.AperFunction,Conductor*%
G36*
X153823258Y-93754685D02*
G01*
X153843900Y-93771319D01*
X156469624Y-96397043D01*
X156479471Y-96409333D01*
X156479689Y-96409154D01*
X156484657Y-96415159D01*
X156533846Y-96461351D01*
X156536643Y-96464062D01*
X156556207Y-96483626D01*
X156559385Y-96486090D01*
X156568281Y-96493687D01*
X156600235Y-96523695D01*
X156600237Y-96523696D01*
X156617867Y-96533387D01*
X156634135Y-96544072D01*
X156650038Y-96556408D01*
X156650040Y-96556409D01*
X156650042Y-96556410D01*
X156669942Y-96565021D01*
X156690260Y-96573813D01*
X156700749Y-96578951D01*
X156739166Y-96600072D01*
X156758667Y-96605079D01*
X156777061Y-96611376D01*
X156795541Y-96619373D01*
X156838841Y-96626230D01*
X156850248Y-96628592D01*
X156892728Y-96639500D01*
X156912859Y-96639500D01*
X156932256Y-96641026D01*
X156952133Y-96644175D01*
X156992208Y-96640386D01*
X156995770Y-96640050D01*
X157007439Y-96639500D01*
X161479743Y-96639500D01*
X161546782Y-96659185D01*
X161592537Y-96711989D01*
X161603102Y-96776097D01*
X161602500Y-96781988D01*
X161602500Y-97782001D01*
X161602501Y-97782019D01*
X161613000Y-97884796D01*
X161613001Y-97884800D01*
X161643069Y-97975538D01*
X161645471Y-98045367D01*
X161609739Y-98105409D01*
X161598252Y-98114857D01*
X161573132Y-98133108D01*
X161573123Y-98133116D01*
X161446466Y-98273785D01*
X161351821Y-98437715D01*
X161351818Y-98437722D01*
X161293327Y-98617740D01*
X161293326Y-98617744D01*
X161273540Y-98806000D01*
X161293326Y-98994256D01*
X161293327Y-98994259D01*
X161351818Y-99174277D01*
X161351821Y-99174284D01*
X161446467Y-99338216D01*
X161573129Y-99478888D01*
X161726265Y-99590148D01*
X161726270Y-99590151D01*
X161899192Y-99667142D01*
X161899197Y-99667144D01*
X162066910Y-99702792D01*
X162128392Y-99735984D01*
X162162168Y-99797147D01*
X162157516Y-99866862D01*
X162115911Y-99922994D01*
X162080135Y-99941787D01*
X162033671Y-99957184D01*
X162033663Y-99957187D01*
X161884342Y-100049289D01*
X161760289Y-100173342D01*
X161668187Y-100322663D01*
X161668186Y-100322666D01*
X161613001Y-100489203D01*
X161613001Y-100489204D01*
X161613000Y-100489204D01*
X161602500Y-100591983D01*
X161602500Y-101592001D01*
X161602501Y-101592019D01*
X161613000Y-101694796D01*
X161613001Y-101694799D01*
X161661250Y-101840403D01*
X161668186Y-101861334D01*
X161760288Y-102010656D01*
X161884344Y-102134712D01*
X162023144Y-102220324D01*
X162069868Y-102272272D01*
X162081091Y-102341235D01*
X162075978Y-102364180D01*
X162055327Y-102427738D01*
X162055327Y-102427740D01*
X162055326Y-102427744D01*
X162040401Y-102569747D01*
X162035540Y-102616001D01*
X162036518Y-102625307D01*
X162023948Y-102694036D01*
X161976215Y-102745059D01*
X161908474Y-102762176D01*
X161900227Y-102761500D01*
X161899324Y-102761500D01*
X161879194Y-102761500D01*
X161859795Y-102759973D01*
X161839920Y-102756825D01*
X161839919Y-102756825D01*
X161796282Y-102760950D01*
X161784613Y-102761500D01*
X157802281Y-102761500D01*
X157735242Y-102741815D01*
X157714600Y-102725181D01*
X154841819Y-99852400D01*
X154808334Y-99791077D01*
X154805500Y-99764719D01*
X154805500Y-98385964D01*
X154807228Y-98370313D01*
X154806946Y-98370287D01*
X154807680Y-98362524D01*
X154805561Y-98295081D01*
X154805500Y-98291187D01*
X154805500Y-98263530D01*
X154805500Y-98263524D01*
X154804993Y-98259519D01*
X154804077Y-98247871D01*
X154802701Y-98204058D01*
X154797082Y-98184718D01*
X154793139Y-98165685D01*
X154790616Y-98145707D01*
X154774481Y-98104955D01*
X154770698Y-98093907D01*
X154758468Y-98051809D01*
X154754658Y-98045367D01*
X154748225Y-98034489D01*
X154739662Y-98017011D01*
X154732253Y-97998297D01*
X154706489Y-97962837D01*
X154700073Y-97953069D01*
X154677765Y-97915347D01*
X154677759Y-97915339D01*
X154663531Y-97901112D01*
X154650896Y-97886320D01*
X154639063Y-97870033D01*
X154639060Y-97870031D01*
X154639060Y-97870030D01*
X154639058Y-97870028D01*
X154605287Y-97842090D01*
X154596647Y-97834228D01*
X153740835Y-96978416D01*
X153707350Y-96917093D01*
X153708741Y-96858641D01*
X153709503Y-96855798D01*
X153735063Y-96760408D01*
X153755659Y-96525000D01*
X153735063Y-96289592D01*
X153673903Y-96061337D01*
X153574035Y-95847171D01*
X153438495Y-95653599D01*
X153438494Y-95653597D01*
X153271402Y-95486506D01*
X153271401Y-95486505D01*
X153085405Y-95356269D01*
X153041781Y-95301692D01*
X153034588Y-95232193D01*
X153066110Y-95169839D01*
X153085405Y-95153119D01*
X153271082Y-95023105D01*
X153438105Y-94856082D01*
X153573600Y-94662578D01*
X153673429Y-94448492D01*
X153673432Y-94448486D01*
X153730636Y-94235000D01*
X152833686Y-94235000D01*
X152859493Y-94194844D01*
X152900000Y-94056889D01*
X152900000Y-93913111D01*
X152859493Y-93775156D01*
X152833686Y-93735000D01*
X153756219Y-93735000D01*
X153823258Y-93754685D01*
G37*
%TD.AperFunction*%
%TA.AperFunction,Conductor*%
G36*
X161866539Y-92219185D02*
G01*
X161912294Y-92271989D01*
X161923500Y-92323500D01*
X161923500Y-92338770D01*
X161903815Y-92405809D01*
X161887181Y-92426451D01*
X161760289Y-92553342D01*
X161668187Y-92702663D01*
X161668185Y-92702668D01*
X161656213Y-92738797D01*
X161613001Y-92869203D01*
X161613001Y-92869204D01*
X161613000Y-92869204D01*
X161602500Y-92971983D01*
X161602500Y-93972001D01*
X161602501Y-93972019D01*
X161613000Y-94074796D01*
X161613001Y-94074799D01*
X161652781Y-94194844D01*
X161668186Y-94241334D01*
X161760288Y-94390656D01*
X161884344Y-94514712D01*
X162033666Y-94606814D01*
X162200203Y-94661999D01*
X162302991Y-94672500D01*
X163053008Y-94672499D01*
X163053016Y-94672498D01*
X163053019Y-94672498D01*
X163109302Y-94666748D01*
X163155797Y-94661999D01*
X163322334Y-94606814D01*
X163471656Y-94514712D01*
X163595712Y-94390656D01*
X163597461Y-94387819D01*
X163599169Y-94386283D01*
X163600193Y-94384989D01*
X163600414Y-94385163D01*
X163649406Y-94341096D01*
X163718368Y-94329872D01*
X163782451Y-94357713D01*
X163808537Y-94387817D01*
X163810288Y-94390656D01*
X163934344Y-94514712D01*
X164083666Y-94606814D01*
X164250203Y-94661999D01*
X164352991Y-94672500D01*
X165103008Y-94672499D01*
X165103016Y-94672498D01*
X165103019Y-94672498D01*
X165159302Y-94666748D01*
X165205797Y-94661999D01*
X165372334Y-94606814D01*
X165521656Y-94514712D01*
X165521662Y-94514705D01*
X165527319Y-94510234D01*
X165528419Y-94511625D01*
X165581642Y-94482564D01*
X165651334Y-94487548D01*
X165687990Y-94511106D01*
X165688681Y-94510234D01*
X165694341Y-94514709D01*
X165694344Y-94514712D01*
X165843666Y-94606814D01*
X166010203Y-94661999D01*
X166112991Y-94672500D01*
X166913008Y-94672499D01*
X166913016Y-94672498D01*
X166913019Y-94672498D01*
X166969302Y-94666748D01*
X167015797Y-94661999D01*
X167182334Y-94606814D01*
X167331656Y-94514712D01*
X167425675Y-94420692D01*
X167486994Y-94387210D01*
X167556686Y-94392194D01*
X167601034Y-94420695D01*
X167694654Y-94514315D01*
X167843875Y-94606356D01*
X167843880Y-94606358D01*
X168010302Y-94661505D01*
X168010309Y-94661506D01*
X168113019Y-94671999D01*
X168262999Y-94671999D01*
X168263000Y-94671998D01*
X168263000Y-93722000D01*
X168763000Y-93722000D01*
X168763000Y-94671999D01*
X168912972Y-94671999D01*
X168912986Y-94671998D01*
X169015697Y-94661505D01*
X169182119Y-94606358D01*
X169182124Y-94606356D01*
X169331345Y-94514315D01*
X169455315Y-94390345D01*
X169547356Y-94241124D01*
X169547358Y-94241119D01*
X169602505Y-94074697D01*
X169602506Y-94074690D01*
X169612999Y-93971986D01*
X169613000Y-93971973D01*
X169613000Y-93722000D01*
X168763000Y-93722000D01*
X168263000Y-93722000D01*
X168263000Y-93346000D01*
X168282685Y-93278961D01*
X168335489Y-93233206D01*
X168387000Y-93222000D01*
X169612999Y-93222000D01*
X169612999Y-92972028D01*
X169612998Y-92972013D01*
X169602505Y-92869302D01*
X169547358Y-92702880D01*
X169547356Y-92702875D01*
X169455315Y-92553654D01*
X169331343Y-92429682D01*
X169330300Y-92429039D01*
X169329734Y-92428410D01*
X169325677Y-92425202D01*
X169326225Y-92424508D01*
X169283575Y-92377091D01*
X169272352Y-92308129D01*
X169300195Y-92244047D01*
X169358264Y-92205190D01*
X169395396Y-92199500D01*
X173785501Y-92199500D01*
X173852540Y-92219185D01*
X173898295Y-92271989D01*
X173909501Y-92323500D01*
X173909501Y-92342876D01*
X173915908Y-92402483D01*
X173966202Y-92537328D01*
X173966206Y-92537335D01*
X174052452Y-92652544D01*
X174052455Y-92652547D01*
X174167664Y-92738793D01*
X174167671Y-92738797D01*
X174229902Y-92762007D01*
X174299598Y-92788002D01*
X174355531Y-92829873D01*
X174379949Y-92895337D01*
X174365098Y-92963610D01*
X174343947Y-92991865D01*
X174221886Y-93113926D01*
X174086400Y-93307420D01*
X174086399Y-93307422D01*
X173986570Y-93521507D01*
X173986567Y-93521513D01*
X173929364Y-93734999D01*
X173929364Y-93735000D01*
X174826314Y-93735000D01*
X174800507Y-93775156D01*
X174760000Y-93913111D01*
X174760000Y-94056889D01*
X174800507Y-94194844D01*
X174826314Y-94235000D01*
X173929364Y-94235000D01*
X173986567Y-94448486D01*
X173986570Y-94448492D01*
X174086399Y-94662578D01*
X174221894Y-94856082D01*
X174388917Y-95023105D01*
X174575031Y-95153425D01*
X174618656Y-95208003D01*
X174625848Y-95277501D01*
X174594326Y-95339856D01*
X174575031Y-95356575D01*
X174388922Y-95486890D01*
X174388920Y-95486891D01*
X174221891Y-95653920D01*
X174221886Y-95653926D01*
X174086400Y-95847420D01*
X174086399Y-95847422D01*
X173986570Y-96061507D01*
X173986567Y-96061513D01*
X173929364Y-96274999D01*
X173929364Y-96275000D01*
X174826314Y-96275000D01*
X174800507Y-96315156D01*
X174760000Y-96453111D01*
X174760000Y-96596889D01*
X174800507Y-96734844D01*
X174826314Y-96775000D01*
X173929364Y-96775000D01*
X173986567Y-96988486D01*
X173986570Y-96988492D01*
X174086399Y-97202578D01*
X174221894Y-97396082D01*
X174388917Y-97563105D01*
X174574595Y-97693119D01*
X174618219Y-97747696D01*
X174625412Y-97817195D01*
X174593890Y-97879549D01*
X174574595Y-97896269D01*
X174388594Y-98026508D01*
X174221505Y-98193597D01*
X174085965Y-98387169D01*
X174085964Y-98387171D01*
X173986098Y-98601335D01*
X173986094Y-98601344D01*
X173924938Y-98829586D01*
X173924936Y-98829596D01*
X173904341Y-99064999D01*
X173904341Y-99065000D01*
X173924936Y-99300403D01*
X173924938Y-99300413D01*
X173986094Y-99528655D01*
X173986096Y-99528659D01*
X173986097Y-99528663D01*
X174050671Y-99667142D01*
X174085965Y-99742830D01*
X174085967Y-99742834D01*
X174221501Y-99936395D01*
X174221506Y-99936402D01*
X174388597Y-100103493D01*
X174388603Y-100103498D01*
X174574158Y-100233425D01*
X174617783Y-100288002D01*
X174624977Y-100357500D01*
X174593454Y-100419855D01*
X174574158Y-100436575D01*
X174388597Y-100566505D01*
X174221505Y-100733597D01*
X174085965Y-100927169D01*
X174085964Y-100927171D01*
X173986098Y-101141335D01*
X173986094Y-101141344D01*
X173924938Y-101369586D01*
X173924936Y-101369596D01*
X173904341Y-101604999D01*
X173904341Y-101605000D01*
X173924936Y-101840403D01*
X173924938Y-101840413D01*
X173951258Y-101938641D01*
X173949595Y-102008491D01*
X173919164Y-102058415D01*
X173517400Y-102460181D01*
X173456077Y-102493666D01*
X173429719Y-102496500D01*
X169136900Y-102496500D01*
X169069861Y-102476815D01*
X169024106Y-102424011D01*
X169014162Y-102354853D01*
X169043187Y-102291297D01*
X169097896Y-102254794D01*
X169103841Y-102252824D01*
X169182334Y-102226814D01*
X169331656Y-102134712D01*
X169455712Y-102010656D01*
X169547814Y-101861334D01*
X169558523Y-101829014D01*
X169598292Y-101771572D01*
X169603299Y-101767733D01*
X169631177Y-101747477D01*
X169640915Y-101741081D01*
X169678656Y-101718763D01*
X169692897Y-101704520D01*
X169707678Y-101691897D01*
X169723967Y-101680063D01*
X169751904Y-101646290D01*
X169759756Y-101637661D01*
X170257600Y-101139819D01*
X170318923Y-101106334D01*
X170345281Y-101103500D01*
X170401644Y-101103500D01*
X170401646Y-101103500D01*
X170586803Y-101064144D01*
X170759730Y-100987151D01*
X170912871Y-100875888D01*
X171039533Y-100735216D01*
X171134179Y-100571284D01*
X171192674Y-100391256D01*
X171212460Y-100203000D01*
X171192674Y-100014744D01*
X171134179Y-99834716D01*
X171039533Y-99670784D01*
X170912871Y-99530112D01*
X170910866Y-99528655D01*
X170759734Y-99418851D01*
X170759729Y-99418848D01*
X170586807Y-99341857D01*
X170586802Y-99341855D01*
X170441001Y-99310865D01*
X170401646Y-99302500D01*
X170212354Y-99302500D01*
X170179897Y-99309398D01*
X170027197Y-99341855D01*
X170027192Y-99341857D01*
X169854270Y-99418848D01*
X169854265Y-99418851D01*
X169701129Y-99530111D01*
X169574466Y-99670785D01*
X169479821Y-99834715D01*
X169479819Y-99834719D01*
X169445756Y-99939554D01*
X169406318Y-99997229D01*
X169341959Y-100024427D01*
X169273113Y-100012512D01*
X169262734Y-100006777D01*
X169233129Y-99988516D01*
X169199402Y-99967713D01*
X169152678Y-99915765D01*
X169140500Y-99862175D01*
X169140500Y-98511824D01*
X169160185Y-98444785D01*
X169199404Y-98406285D01*
X169232350Y-98385964D01*
X169331656Y-98324712D01*
X169455712Y-98200656D01*
X169547814Y-98051334D01*
X169602999Y-97884797D01*
X169613500Y-97782009D01*
X169613499Y-96781992D01*
X169602999Y-96679203D01*
X169547814Y-96512666D01*
X169455712Y-96363344D01*
X169331656Y-96239288D01*
X169182334Y-96147186D01*
X169015797Y-96092001D01*
X169015795Y-96092000D01*
X168913016Y-96081500D01*
X168913009Y-96081500D01*
X168251281Y-96081500D01*
X168184242Y-96061815D01*
X168163600Y-96045181D01*
X167745376Y-95626957D01*
X167735531Y-95614668D01*
X167735313Y-95614849D01*
X167730340Y-95608838D01*
X167681153Y-95562648D01*
X167678354Y-95559935D01*
X167658797Y-95540377D01*
X167655607Y-95537903D01*
X167646716Y-95530310D01*
X167614768Y-95500308D01*
X167614763Y-95500304D01*
X167597122Y-95490606D01*
X167580857Y-95479922D01*
X167564963Y-95467593D01*
X167564962Y-95467592D01*
X167524735Y-95450184D01*
X167514247Y-95445045D01*
X167475838Y-95423929D01*
X167475828Y-95423926D01*
X167456334Y-95418920D01*
X167437933Y-95412620D01*
X167419459Y-95404626D01*
X167419452Y-95404624D01*
X167376173Y-95397770D01*
X167364733Y-95395401D01*
X167322279Y-95384500D01*
X167322272Y-95384500D01*
X167302142Y-95384500D01*
X167282743Y-95382973D01*
X167262868Y-95379825D01*
X167262867Y-95379825D01*
X167219230Y-95383950D01*
X167207561Y-95384500D01*
X157283281Y-95384500D01*
X157216242Y-95364815D01*
X157195600Y-95348181D01*
X154258600Y-92411181D01*
X154225115Y-92349858D01*
X154230099Y-92280166D01*
X154271971Y-92224233D01*
X154337435Y-92199816D01*
X154346281Y-92199500D01*
X161799500Y-92199500D01*
X161866539Y-92219185D01*
G37*
%TD.AperFunction*%
%TA.AperFunction,Conductor*%
G36*
X175510000Y-96089498D02*
G01*
X175402315Y-96040320D01*
X175295763Y-96025000D01*
X175224237Y-96025000D01*
X175117685Y-96040320D01*
X175010000Y-96089498D01*
X175010000Y-94420501D01*
X175117685Y-94469680D01*
X175224237Y-94485000D01*
X175295763Y-94485000D01*
X175402315Y-94469680D01*
X175510000Y-94420501D01*
X175510000Y-96089498D01*
G37*
%TD.AperFunction*%
%TA.AperFunction,Conductor*%
G36*
X176680539Y-78425185D02*
G01*
X176726294Y-78477989D01*
X176737500Y-78529500D01*
X176737500Y-80321414D01*
X176717815Y-80388453D01*
X176665011Y-80434208D01*
X176595853Y-80444152D01*
X176532297Y-80415127D01*
X176494523Y-80356349D01*
X176493725Y-80353508D01*
X176486268Y-80325680D01*
X176486264Y-80325668D01*
X176390136Y-80119521D01*
X176390132Y-80119513D01*
X176339025Y-80046526D01*
X175657953Y-80727598D01*
X175645165Y-80646852D01*
X175587641Y-80533955D01*
X175498045Y-80444359D01*
X175385148Y-80386835D01*
X175304401Y-80374046D01*
X175985472Y-79692974D01*
X175912478Y-79641863D01*
X175706331Y-79545735D01*
X175706317Y-79545730D01*
X175486610Y-79486860D01*
X175486599Y-79486858D01*
X175260002Y-79467034D01*
X175259998Y-79467034D01*
X175033400Y-79486858D01*
X175033389Y-79486860D01*
X174813682Y-79545730D01*
X174813673Y-79545734D01*
X174607516Y-79641866D01*
X174607512Y-79641868D01*
X174534526Y-79692973D01*
X174534526Y-79692974D01*
X175215599Y-80374046D01*
X175134852Y-80386835D01*
X175021955Y-80444359D01*
X174932359Y-80533955D01*
X174874835Y-80646852D01*
X174862046Y-80727598D01*
X174180974Y-80046526D01*
X174180973Y-80046526D01*
X174129868Y-80119512D01*
X174129866Y-80119516D01*
X174033734Y-80325673D01*
X174033730Y-80325682D01*
X173974860Y-80545389D01*
X173974858Y-80545400D01*
X173955034Y-80771997D01*
X173955034Y-80772002D01*
X173974858Y-80998599D01*
X173974860Y-80998610D01*
X174033730Y-81218317D01*
X174033735Y-81218331D01*
X174129863Y-81424478D01*
X174180974Y-81497472D01*
X174862046Y-80816400D01*
X174874835Y-80897148D01*
X174932359Y-81010045D01*
X175021955Y-81099641D01*
X175134852Y-81157165D01*
X175215599Y-81169953D01*
X174534526Y-81851025D01*
X174607513Y-81902132D01*
X174607521Y-81902136D01*
X174665864Y-81929342D01*
X174718304Y-81975514D01*
X174737456Y-82042707D01*
X174717241Y-82109589D01*
X174665866Y-82154105D01*
X174607272Y-82181428D01*
X174607265Y-82181432D01*
X174420858Y-82311954D01*
X174259954Y-82472858D01*
X174129432Y-82659265D01*
X174129431Y-82659267D01*
X174033261Y-82865502D01*
X174033258Y-82865511D01*
X173974366Y-83085302D01*
X173974364Y-83085313D01*
X173954532Y-83311998D01*
X173954532Y-83312001D01*
X173974364Y-83538686D01*
X173974366Y-83538697D01*
X174033258Y-83758488D01*
X174033261Y-83758497D01*
X174129431Y-83964732D01*
X174129432Y-83964734D01*
X174259954Y-84151141D01*
X174420858Y-84312045D01*
X174420861Y-84312047D01*
X174607266Y-84442568D01*
X174665275Y-84469618D01*
X174717714Y-84515791D01*
X174736866Y-84582984D01*
X174716650Y-84649865D01*
X174665275Y-84694382D01*
X174607267Y-84721431D01*
X174607265Y-84721432D01*
X174420858Y-84851954D01*
X174259954Y-85012858D01*
X174129432Y-85199265D01*
X174129431Y-85199267D01*
X174033261Y-85405502D01*
X174033258Y-85405511D01*
X173974366Y-85625302D01*
X173974364Y-85625313D01*
X173954532Y-85851998D01*
X173954532Y-85852000D01*
X173974364Y-86078686D01*
X173975306Y-86084025D01*
X173972888Y-86084451D01*
X173971392Y-86143996D01*
X173941011Y-86193765D01*
X172978097Y-87156681D01*
X172916774Y-87190166D01*
X172890416Y-87193000D01*
X169790312Y-87193000D01*
X169723273Y-87173315D01*
X169678048Y-87121123D01*
X169677864Y-87121209D01*
X169677562Y-87120562D01*
X169677518Y-87120511D01*
X169677408Y-87120231D01*
X169674815Y-87114670D01*
X169674814Y-87114666D01*
X169582712Y-86965344D01*
X169458656Y-86841288D01*
X169456475Y-86839107D01*
X169422990Y-86777784D01*
X169427974Y-86708092D01*
X169456473Y-86663747D01*
X169762217Y-86358003D01*
X169767619Y-86352917D01*
X169812020Y-86313583D01*
X169845704Y-86264782D01*
X169850131Y-86258767D01*
X169886688Y-86212106D01*
X169890729Y-86203126D01*
X169901753Y-86183581D01*
X169907344Y-86175482D01*
X169928372Y-86120032D01*
X169931229Y-86113138D01*
X169955557Y-86059085D01*
X169957333Y-86049395D01*
X169963356Y-86027788D01*
X169966848Y-86018582D01*
X169973993Y-85959730D01*
X169975119Y-85952336D01*
X169985804Y-85894033D01*
X169985805Y-85894026D01*
X169982226Y-85834861D01*
X169982000Y-85827374D01*
X169982000Y-83717625D01*
X169982226Y-83710138D01*
X169985805Y-83650972D01*
X169982281Y-83631744D01*
X169975113Y-83592631D01*
X169973992Y-83585263D01*
X169966848Y-83526418D01*
X169966846Y-83526414D01*
X169963362Y-83517227D01*
X169957331Y-83495592D01*
X169955559Y-83485919D01*
X169955558Y-83485916D01*
X169955558Y-83485915D01*
X169931225Y-83431852D01*
X169928365Y-83424947D01*
X169907344Y-83369518D01*
X169901749Y-83361413D01*
X169890726Y-83341869D01*
X169886688Y-83332895D01*
X169850134Y-83286238D01*
X169845699Y-83280211D01*
X169812020Y-83231417D01*
X169767638Y-83192098D01*
X169762185Y-83186964D01*
X169035027Y-82459805D01*
X169029893Y-82454351D01*
X168990583Y-82409980D01*
X168941792Y-82376302D01*
X168935760Y-82371863D01*
X168889108Y-82335314D01*
X168889099Y-82335308D01*
X168880134Y-82331274D01*
X168860586Y-82320250D01*
X168854521Y-82316063D01*
X168852478Y-82314653D01*
X168797061Y-82293636D01*
X168790144Y-82290772D01*
X168736081Y-82266441D01*
X168736082Y-82266441D01*
X168726395Y-82264666D01*
X168704792Y-82258644D01*
X168695582Y-82255152D01*
X168636735Y-82248006D01*
X168629199Y-82246854D01*
X168628738Y-82246769D01*
X168566379Y-82215255D01*
X168530957Y-82155030D01*
X168533719Y-82085215D01*
X168573787Y-82027976D01*
X168587609Y-82019212D01*
X168587328Y-82018761D01*
X168765267Y-81907850D01*
X168912668Y-81767735D01*
X168912669Y-81767733D01*
X169028856Y-81600804D01*
X169109059Y-81413907D01*
X169150000Y-81214690D01*
X169150000Y-80963000D01*
X168450000Y-80963000D01*
X168450000Y-80463000D01*
X169150000Y-80463000D01*
X169150000Y-80262286D01*
X169134581Y-80110661D01*
X169073700Y-79916618D01*
X169073695Y-79916608D01*
X168974994Y-79738784D01*
X168974994Y-79738783D01*
X168842521Y-79584469D01*
X168842520Y-79584468D01*
X168681695Y-79459981D01*
X168499093Y-79370411D01*
X168400000Y-79344753D01*
X168400000Y-80146889D01*
X168375543Y-80107390D01*
X168286038Y-80039799D01*
X168178160Y-80009105D01*
X168066479Y-80019454D01*
X167966078Y-80069448D01*
X167900000Y-80141930D01*
X167900000Y-79339633D01*
X167898053Y-79339931D01*
X167898047Y-79339933D01*
X167707342Y-79410562D01*
X167707335Y-79410565D01*
X167534732Y-79518149D01*
X167387331Y-79658264D01*
X167387330Y-79658266D01*
X167271143Y-79825195D01*
X167190940Y-80012092D01*
X167150000Y-80211309D01*
X167150000Y-80463000D01*
X167850000Y-80463000D01*
X167850000Y-80963000D01*
X167150000Y-80963000D01*
X167150000Y-81163713D01*
X167165418Y-81315338D01*
X167226299Y-81509381D01*
X167226304Y-81509391D01*
X167325005Y-81687215D01*
X167325005Y-81687216D01*
X167457478Y-81841530D01*
X167457479Y-81841531D01*
X167618304Y-81966018D01*
X167697105Y-82004672D01*
X167748624Y-82051869D01*
X167766449Y-82119426D01*
X167744919Y-82185896D01*
X167690871Y-82230175D01*
X167642496Y-82240000D01*
X160025744Y-82240000D01*
X159958705Y-82220315D01*
X159912950Y-82167511D01*
X159903006Y-82098353D01*
X159932031Y-82034797D01*
X159960152Y-82010768D01*
X160125267Y-81907850D01*
X160272668Y-81767735D01*
X160272669Y-81767733D01*
X160388856Y-81600804D01*
X160469059Y-81413907D01*
X160510000Y-81214690D01*
X160510000Y-80963000D01*
X159810000Y-80963000D01*
X159810000Y-80463000D01*
X160510000Y-80463000D01*
X160510000Y-80262286D01*
X160494581Y-80110661D01*
X160433700Y-79916618D01*
X160433695Y-79916608D01*
X160334994Y-79738784D01*
X160334994Y-79738783D01*
X160202521Y-79584469D01*
X160202520Y-79584468D01*
X160041695Y-79459981D01*
X159859093Y-79370411D01*
X159760000Y-79344753D01*
X159760000Y-80146889D01*
X159735543Y-80107390D01*
X159646038Y-80039799D01*
X159538160Y-80009105D01*
X159426479Y-80019454D01*
X159326078Y-80069448D01*
X159260000Y-80141930D01*
X159260000Y-79339633D01*
X159258053Y-79339931D01*
X159258047Y-79339933D01*
X159067342Y-79410562D01*
X159067335Y-79410565D01*
X158894732Y-79518149D01*
X158747331Y-79658264D01*
X158747330Y-79658266D01*
X158631143Y-79825195D01*
X158550940Y-80012092D01*
X158510000Y-80211309D01*
X158510000Y-80463000D01*
X159210000Y-80463000D01*
X159210000Y-80963000D01*
X158510000Y-80963000D01*
X158510000Y-81163713D01*
X158525418Y-81315338D01*
X158586299Y-81509381D01*
X158586304Y-81509391D01*
X158685005Y-81687215D01*
X158685005Y-81687216D01*
X158817478Y-81841530D01*
X158817479Y-81841531D01*
X158978304Y-81966018D01*
X159053429Y-82002869D01*
X159104948Y-82050066D01*
X159122773Y-82117624D01*
X159101243Y-82184094D01*
X159047195Y-82228372D01*
X158991333Y-82237971D01*
X158961974Y-82236195D01*
X158961968Y-82236195D01*
X158903660Y-82246880D01*
X158896258Y-82248007D01*
X158837415Y-82255152D01*
X158828215Y-82258641D01*
X158806608Y-82264665D01*
X158796914Y-82266441D01*
X158796911Y-82266442D01*
X158742852Y-82290772D01*
X158735937Y-82293637D01*
X158680519Y-82314655D01*
X158680515Y-82314657D01*
X158672410Y-82320252D01*
X158652874Y-82331270D01*
X158643896Y-82335311D01*
X158643893Y-82335312D01*
X158597238Y-82371864D01*
X158591208Y-82376301D01*
X158542418Y-82409979D01*
X158542410Y-82409986D01*
X158503097Y-82454360D01*
X158497965Y-82459812D01*
X157770804Y-83186972D01*
X157765352Y-83192104D01*
X157720986Y-83231410D01*
X157720976Y-83231421D01*
X157687298Y-83280212D01*
X157682861Y-83286243D01*
X157646312Y-83332894D01*
X157646311Y-83332896D01*
X157642271Y-83341873D01*
X157631253Y-83361408D01*
X157625655Y-83369519D01*
X157604632Y-83424949D01*
X157601768Y-83431865D01*
X157577442Y-83485916D01*
X157575666Y-83495606D01*
X157569645Y-83517203D01*
X157566152Y-83526414D01*
X157566152Y-83526415D01*
X157559006Y-83585265D01*
X157557879Y-83592667D01*
X157547195Y-83650969D01*
X157547195Y-83650972D01*
X157550774Y-83710137D01*
X157551000Y-83717624D01*
X157551000Y-85827374D01*
X157550774Y-85834861D01*
X157547195Y-85894025D01*
X157547195Y-85894028D01*
X157557879Y-85952333D01*
X157559006Y-85959735D01*
X157566152Y-86018582D01*
X157569644Y-86027792D01*
X157575666Y-86049395D01*
X157577441Y-86059081D01*
X157601772Y-86113144D01*
X157604636Y-86120061D01*
X157625653Y-86175478D01*
X157625656Y-86175482D01*
X157631250Y-86183586D01*
X157642274Y-86203134D01*
X157646308Y-86212099D01*
X157646314Y-86212108D01*
X157682863Y-86258760D01*
X157687302Y-86264792D01*
X157720980Y-86313583D01*
X157765351Y-86352893D01*
X157770805Y-86358027D01*
X158140377Y-86727599D01*
X158173862Y-86788922D01*
X158168878Y-86858614D01*
X158140378Y-86902961D01*
X158077682Y-86965657D01*
X157985643Y-87114875D01*
X157985641Y-87114880D01*
X157930494Y-87281302D01*
X157930493Y-87281309D01*
X157920000Y-87384013D01*
X157920000Y-87634000D01*
X159146000Y-87634000D01*
X159213039Y-87653685D01*
X159258794Y-87706489D01*
X159270000Y-87758000D01*
X159270000Y-89083999D01*
X159419972Y-89083999D01*
X159419986Y-89083998D01*
X159522697Y-89073505D01*
X159689119Y-89018358D01*
X159689124Y-89018356D01*
X159838342Y-88926317D01*
X159931964Y-88832695D01*
X159993287Y-88799210D01*
X160062979Y-88804194D01*
X160107327Y-88832695D01*
X160201344Y-88926712D01*
X160350666Y-89018814D01*
X160517203Y-89073999D01*
X160619991Y-89084500D01*
X161420008Y-89084499D01*
X161420016Y-89084498D01*
X161420019Y-89084498D01*
X161476302Y-89078748D01*
X161522797Y-89073999D01*
X161689334Y-89018814D01*
X161838656Y-88926712D01*
X161838661Y-88926707D01*
X161844324Y-88922231D01*
X161845339Y-88923514D01*
X161898966Y-88894216D01*
X161968658Y-88899184D01*
X162005294Y-88922722D01*
X162005993Y-88921839D01*
X162011653Y-88926315D01*
X162160875Y-89018356D01*
X162160880Y-89018358D01*
X162327302Y-89073505D01*
X162327309Y-89073506D01*
X162430019Y-89083999D01*
X162579999Y-89083999D01*
X162580000Y-89083998D01*
X162580000Y-87758000D01*
X162599685Y-87690961D01*
X162652489Y-87645206D01*
X162704000Y-87634000D01*
X162956000Y-87634000D01*
X163023039Y-87653685D01*
X163068794Y-87706489D01*
X163080000Y-87758000D01*
X163080000Y-89083999D01*
X163229972Y-89083999D01*
X163229986Y-89083998D01*
X163332697Y-89073505D01*
X163499119Y-89018358D01*
X163499124Y-89018356D01*
X163648342Y-88926317D01*
X163741964Y-88832695D01*
X163803287Y-88799210D01*
X163872979Y-88804194D01*
X163917327Y-88832695D01*
X164011344Y-88926712D01*
X164160666Y-89018814D01*
X164327203Y-89073999D01*
X164429991Y-89084500D01*
X165230008Y-89084499D01*
X165230016Y-89084498D01*
X165230019Y-89084498D01*
X165286302Y-89078748D01*
X165332797Y-89073999D01*
X165499334Y-89018814D01*
X165648656Y-88926712D01*
X165648662Y-88926705D01*
X165654319Y-88922234D01*
X165655419Y-88923625D01*
X165708642Y-88894564D01*
X165778334Y-88899548D01*
X165814990Y-88923106D01*
X165815681Y-88922234D01*
X165821341Y-88926709D01*
X165821344Y-88926712D01*
X165970666Y-89018814D01*
X166137203Y-89073999D01*
X166239991Y-89084500D01*
X166990008Y-89084499D01*
X166990016Y-89084498D01*
X166990019Y-89084498D01*
X167046302Y-89078748D01*
X167092797Y-89073999D01*
X167259334Y-89018814D01*
X167408656Y-88926712D01*
X167532712Y-88802656D01*
X167534461Y-88799819D01*
X167536169Y-88798283D01*
X167537193Y-88796989D01*
X167537414Y-88797163D01*
X167586406Y-88753096D01*
X167655368Y-88741872D01*
X167719451Y-88769713D01*
X167745537Y-88799817D01*
X167747288Y-88802656D01*
X167871344Y-88926712D01*
X168020666Y-89018814D01*
X168187203Y-89073999D01*
X168289991Y-89084500D01*
X169040008Y-89084499D01*
X169040016Y-89084498D01*
X169040019Y-89084498D01*
X169096302Y-89078748D01*
X169142797Y-89073999D01*
X169309334Y-89018814D01*
X169458656Y-88926712D01*
X169582712Y-88802656D01*
X169674814Y-88653334D01*
X169674816Y-88653326D01*
X169677864Y-88646791D01*
X169680796Y-88648158D01*
X169712399Y-88602534D01*
X169776921Y-88575725D01*
X169790312Y-88575000D01*
X173203374Y-88575000D01*
X173210861Y-88575226D01*
X173270026Y-88578805D01*
X173270026Y-88578804D01*
X173270028Y-88578805D01*
X173328336Y-88568119D01*
X173335730Y-88566993D01*
X173394582Y-88559848D01*
X173403788Y-88556356D01*
X173425403Y-88550330D01*
X173435085Y-88548557D01*
X173489161Y-88524218D01*
X173496017Y-88521378D01*
X173551482Y-88500344D01*
X173559580Y-88494754D01*
X173579139Y-88483722D01*
X173588105Y-88479688D01*
X173634766Y-88443130D01*
X173640798Y-88438692D01*
X173689583Y-88405020D01*
X173728917Y-88360619D01*
X173734003Y-88355217D01*
X174918235Y-87170985D01*
X174979556Y-87137502D01*
X175027622Y-87138687D01*
X175027974Y-87136694D01*
X175033298Y-87137632D01*
X175033308Y-87137635D01*
X175195230Y-87151801D01*
X175259998Y-87157468D01*
X175260000Y-87157468D01*
X175260002Y-87157468D01*
X175291421Y-87154719D01*
X175486692Y-87137635D01*
X175486704Y-87137631D01*
X175492029Y-87136694D01*
X175492464Y-87139166D01*
X175551732Y-87140522D01*
X175601766Y-87170988D01*
X175820181Y-87389403D01*
X175853666Y-87450726D01*
X175856500Y-87477084D01*
X175856500Y-89970500D01*
X175836815Y-90037539D01*
X175784011Y-90083294D01*
X175732500Y-90094500D01*
X174362129Y-90094500D01*
X174362123Y-90094501D01*
X174302516Y-90100908D01*
X174167671Y-90151202D01*
X174167664Y-90151206D01*
X174052455Y-90237452D01*
X174052452Y-90237455D01*
X173966206Y-90352664D01*
X173966202Y-90352671D01*
X173915908Y-90487517D01*
X173909501Y-90547116D01*
X173909501Y-90547123D01*
X173909500Y-90547135D01*
X173909500Y-90566500D01*
X173889815Y-90633539D01*
X173837011Y-90679294D01*
X173785500Y-90690500D01*
X162751000Y-90690500D01*
X162733031Y-90689191D01*
X162709091Y-90685684D01*
X162662330Y-90689776D01*
X162659451Y-90690028D01*
X162648645Y-90690500D01*
X153874499Y-90690500D01*
X153807460Y-90670815D01*
X153761705Y-90618011D01*
X153750499Y-90566500D01*
X153750499Y-90547129D01*
X153750498Y-90547123D01*
X153750497Y-90547116D01*
X153744091Y-90487517D01*
X153693796Y-90352669D01*
X153693795Y-90352668D01*
X153693793Y-90352664D01*
X153607547Y-90237455D01*
X153607544Y-90237452D01*
X153492335Y-90151206D01*
X153492328Y-90151202D01*
X153357482Y-90100908D01*
X153357483Y-90100908D01*
X153297883Y-90094501D01*
X153297881Y-90094500D01*
X153297873Y-90094500D01*
X153297865Y-90094500D01*
X153278500Y-90094500D01*
X153211461Y-90074815D01*
X153165706Y-90022011D01*
X153154500Y-89970500D01*
X153154500Y-88134000D01*
X157920001Y-88134000D01*
X157920001Y-88383986D01*
X157930494Y-88486697D01*
X157985641Y-88653119D01*
X157985643Y-88653124D01*
X158077684Y-88802345D01*
X158201654Y-88926315D01*
X158350875Y-89018356D01*
X158350880Y-89018358D01*
X158517302Y-89073505D01*
X158517309Y-89073506D01*
X158620019Y-89083999D01*
X158769999Y-89083999D01*
X158770000Y-89083998D01*
X158770000Y-88134000D01*
X157920001Y-88134000D01*
X153154500Y-88134000D01*
X153154500Y-86975861D01*
X153174185Y-86908822D01*
X153207375Y-86874287D01*
X153239139Y-86852047D01*
X153400047Y-86691139D01*
X153530568Y-86504734D01*
X153626739Y-86298496D01*
X153685635Y-86078692D01*
X153705468Y-85852000D01*
X153685635Y-85625308D01*
X153626739Y-85405504D01*
X153530568Y-85199266D01*
X153400047Y-85012861D01*
X153400045Y-85012858D01*
X153239141Y-84851954D01*
X153052734Y-84721432D01*
X153052728Y-84721429D01*
X152994725Y-84694382D01*
X152942285Y-84648210D01*
X152923133Y-84581017D01*
X152943348Y-84514135D01*
X152994725Y-84469618D01*
X153052734Y-84442568D01*
X153239139Y-84312047D01*
X153400047Y-84151139D01*
X153530568Y-83964734D01*
X153626739Y-83758496D01*
X153685635Y-83538692D01*
X153705468Y-83312000D01*
X153685635Y-83085308D01*
X153626739Y-82865504D01*
X153530568Y-82659266D01*
X153400047Y-82472861D01*
X153400045Y-82472858D01*
X153239141Y-82311954D01*
X153059109Y-82185896D01*
X153052734Y-82181432D01*
X152994132Y-82154105D01*
X152941694Y-82107933D01*
X152922543Y-82040739D01*
X152942759Y-81973858D01*
X152994135Y-81929341D01*
X153052482Y-81902133D01*
X153125471Y-81851024D01*
X152444400Y-81169953D01*
X152525148Y-81157165D01*
X152638045Y-81099641D01*
X152727641Y-81010045D01*
X152785165Y-80897148D01*
X152797953Y-80816400D01*
X153479024Y-81497471D01*
X153530136Y-81424478D01*
X153626264Y-81218331D01*
X153626269Y-81218317D01*
X153685139Y-80998610D01*
X153685141Y-80998599D01*
X153704966Y-80772002D01*
X153704966Y-80771997D01*
X153685141Y-80545400D01*
X153685139Y-80545389D01*
X153626269Y-80325682D01*
X153626264Y-80325668D01*
X153530136Y-80119521D01*
X153530132Y-80119513D01*
X153479025Y-80046526D01*
X152797953Y-80727598D01*
X152785165Y-80646852D01*
X152727641Y-80533955D01*
X152638045Y-80444359D01*
X152525148Y-80386835D01*
X152444401Y-80374046D01*
X153125472Y-79692974D01*
X153052478Y-79641863D01*
X152846331Y-79545735D01*
X152846317Y-79545730D01*
X152626610Y-79486860D01*
X152626599Y-79486858D01*
X152400002Y-79467034D01*
X152399998Y-79467034D01*
X152173400Y-79486858D01*
X152173389Y-79486860D01*
X151953682Y-79545730D01*
X151953673Y-79545734D01*
X151747516Y-79641866D01*
X151747512Y-79641868D01*
X151674526Y-79692973D01*
X151674526Y-79692974D01*
X152355599Y-80374046D01*
X152274852Y-80386835D01*
X152161955Y-80444359D01*
X152072359Y-80533955D01*
X152014835Y-80646852D01*
X152002046Y-80727598D01*
X151320974Y-80046526D01*
X151320973Y-80046526D01*
X151269868Y-80119512D01*
X151269866Y-80119516D01*
X151173734Y-80325673D01*
X151173731Y-80325680D01*
X151166275Y-80353508D01*
X151129910Y-80413168D01*
X151067063Y-80443697D01*
X150997687Y-80435402D01*
X150943809Y-80390917D01*
X150922535Y-80324365D01*
X150922500Y-80321414D01*
X150922500Y-78529500D01*
X150942185Y-78462461D01*
X150994989Y-78416706D01*
X151046500Y-78405500D01*
X176613500Y-78405500D01*
X176680539Y-78425185D01*
G37*
%TD.AperFunction*%
%TA.AperFunction,Conductor*%
G36*
X160579495Y-84846818D02*
G01*
X160582931Y-84849455D01*
X160624129Y-84905886D01*
X160631054Y-84957549D01*
X160629500Y-84977290D01*
X160629500Y-85594000D01*
X160609815Y-85661039D01*
X160557011Y-85706794D01*
X160505500Y-85718000D01*
X159911000Y-85718000D01*
X159843961Y-85698315D01*
X159798206Y-85645511D01*
X159787000Y-85594000D01*
X159787000Y-85558451D01*
X159810000Y-85499080D01*
X159810000Y-85272088D01*
X159859489Y-85229206D01*
X159911000Y-85218000D01*
X160380000Y-85218000D01*
X160380000Y-84945187D01*
X160399685Y-84878148D01*
X160452489Y-84832393D01*
X160521647Y-84822449D01*
X160579495Y-84846818D01*
G37*
%TD.AperFunction*%
%TA.AperFunction,Conductor*%
G36*
X167214134Y-84835658D02*
G01*
X167264121Y-84884474D01*
X167280000Y-84945186D01*
X167280000Y-85594000D01*
X167260315Y-85661039D01*
X167207511Y-85706794D01*
X167156000Y-85718000D01*
X167154500Y-85718000D01*
X167087461Y-85698315D01*
X167041706Y-85645511D01*
X167030500Y-85594000D01*
X167030500Y-84977313D01*
X167030500Y-84977306D01*
X167028945Y-84957551D01*
X167043309Y-84889176D01*
X167077078Y-84849447D01*
X167080521Y-84846804D01*
X167145690Y-84821615D01*
X167214134Y-84835658D01*
G37*
%TD.AperFunction*%
%TA.AperFunction,Conductor*%
G36*
X176339024Y-81497471D02*
G01*
X176390136Y-81424478D01*
X176486264Y-81218331D01*
X176486269Y-81218317D01*
X176493725Y-81190492D01*
X176530090Y-81130832D01*
X176592936Y-81100302D01*
X176662312Y-81108596D01*
X176716190Y-81153081D01*
X176737465Y-81219633D01*
X176737500Y-81222585D01*
X176737500Y-82859482D01*
X176717815Y-82926521D01*
X176665011Y-82972276D01*
X176595853Y-82982220D01*
X176532297Y-82953195D01*
X176494523Y-82894417D01*
X176493725Y-82891575D01*
X176486741Y-82865511D01*
X176486738Y-82865502D01*
X176390568Y-82659267D01*
X176390567Y-82659265D01*
X176260045Y-82472858D01*
X176099141Y-82311954D01*
X175919109Y-82185896D01*
X175912734Y-82181432D01*
X175854132Y-82154105D01*
X175801694Y-82107933D01*
X175782543Y-82040739D01*
X175802759Y-81973858D01*
X175854135Y-81929341D01*
X175912482Y-81902133D01*
X175985471Y-81851024D01*
X175304400Y-81169953D01*
X175385148Y-81157165D01*
X175498045Y-81099641D01*
X175587641Y-81010045D01*
X175645165Y-80897148D01*
X175657953Y-80816400D01*
X176339024Y-81497471D01*
G37*
%TD.AperFunction*%
%TA.AperFunction,Conductor*%
G36*
X152014835Y-80897148D02*
G01*
X152072359Y-81010045D01*
X152161955Y-81099641D01*
X152274852Y-81157165D01*
X152355599Y-81169953D01*
X151674526Y-81851025D01*
X151747513Y-81902132D01*
X151747521Y-81902136D01*
X151805864Y-81929342D01*
X151858304Y-81975514D01*
X151877456Y-82042707D01*
X151857241Y-82109589D01*
X151805866Y-82154105D01*
X151747272Y-82181428D01*
X151747265Y-82181432D01*
X151560858Y-82311954D01*
X151399954Y-82472858D01*
X151269432Y-82659265D01*
X151269431Y-82659267D01*
X151173261Y-82865502D01*
X151173258Y-82865511D01*
X151166275Y-82891575D01*
X151129910Y-82951236D01*
X151067063Y-82981765D01*
X150997688Y-82973470D01*
X150943810Y-82928985D01*
X150922535Y-82862433D01*
X150922500Y-82859482D01*
X150922500Y-81222585D01*
X150942185Y-81155546D01*
X150994989Y-81109791D01*
X151064147Y-81099847D01*
X151127703Y-81128872D01*
X151165477Y-81187650D01*
X151166275Y-81190492D01*
X151173730Y-81218317D01*
X151173735Y-81218331D01*
X151269863Y-81424478D01*
X151320974Y-81497472D01*
X152002046Y-80816400D01*
X152014835Y-80897148D01*
G37*
%TD.AperFunction*%
%TD*%
M02*
