%TF.GenerationSoftware,KiCad,Pcbnew,7.0.10*%
%TF.CreationDate,2024-02-12T16:57:49+10:00*%
%TF.ProjectId,devboard,64657662-6f61-4726-942e-6b696361645f,rev?*%
%TF.SameCoordinates,Original*%
%TF.FileFunction,Legend,Top*%
%TF.FilePolarity,Positive*%
%FSLAX46Y46*%
G04 Gerber Fmt 4.6, Leading zero omitted, Abs format (unit mm)*
G04 Created by KiCad (PCBNEW 7.0.10) date 2024-02-12 16:57:49*
%MOMM*%
%LPD*%
G01*
G04 APERTURE LIST*
G04 Aperture macros list*
%AMRoundRect*
0 Rectangle with rounded corners*
0 $1 Rounding radius*
0 $2 $3 $4 $5 $6 $7 $8 $9 X,Y pos of 4 corners*
0 Add a 4 corners polygon primitive as box body*
4,1,4,$2,$3,$4,$5,$6,$7,$8,$9,$2,$3,0*
0 Add four circle primitives for the rounded corners*
1,1,$1+$1,$2,$3*
1,1,$1+$1,$4,$5*
1,1,$1+$1,$6,$7*
1,1,$1+$1,$8,$9*
0 Add four rect primitives between the rounded corners*
20,1,$1+$1,$2,$3,$4,$5,0*
20,1,$1+$1,$4,$5,$6,$7,0*
20,1,$1+$1,$6,$7,$8,$9,0*
20,1,$1+$1,$8,$9,$2,$3,0*%
G04 Aperture macros list end*
%ADD10C,0.150000*%
%ADD11C,0.120000*%
%ADD12C,0.100000*%
%ADD13RoundRect,0.250000X0.350000X0.450000X-0.350000X0.450000X-0.350000X-0.450000X0.350000X-0.450000X0*%
%ADD14RoundRect,0.250000X-0.350000X-0.450000X0.350000X-0.450000X0.350000X0.450000X-0.350000X0.450000X0*%
%ADD15RoundRect,0.250000X0.325000X0.450000X-0.325000X0.450000X-0.325000X-0.450000X0.325000X-0.450000X0*%
%ADD16R,1.700000X1.700000*%
%ADD17O,1.700000X1.700000*%
%ADD18RoundRect,0.250000X-0.325000X-0.450000X0.325000X-0.450000X0.325000X0.450000X-0.325000X0.450000X0*%
%ADD19RoundRect,0.250000X0.450000X-0.350000X0.450000X0.350000X-0.450000X0.350000X-0.450000X-0.350000X0*%
%ADD20R,0.900000X1.000000*%
%ADD21C,1.600000*%
%ADD22R,0.550000X1.600000*%
%ADD23R,1.600000X0.550000*%
%ADD24C,0.650000*%
%ADD25RoundRect,0.150000X0.150000X0.425000X-0.150000X0.425000X-0.150000X-0.425000X0.150000X-0.425000X0*%
%ADD26RoundRect,0.075000X0.075000X0.500000X-0.075000X0.500000X-0.075000X-0.500000X0.075000X-0.500000X0*%
%ADD27O,1.000000X2.100000*%
%ADD28O,1.000000X1.800000*%
G04 APERTURE END LIST*
D10*
X170770779Y-127504819D02*
X170770779Y-126504819D01*
X170770779Y-126504819D02*
X171151731Y-126504819D01*
X171151731Y-126504819D02*
X171246969Y-126552438D01*
X171246969Y-126552438D02*
X171294588Y-126600057D01*
X171294588Y-126600057D02*
X171342207Y-126695295D01*
X171342207Y-126695295D02*
X171342207Y-126838152D01*
X171342207Y-126838152D02*
X171294588Y-126933390D01*
X171294588Y-126933390D02*
X171246969Y-126981009D01*
X171246969Y-126981009D02*
X171151731Y-127028628D01*
X171151731Y-127028628D02*
X170770779Y-127028628D01*
X171770779Y-127504819D02*
X171770779Y-126504819D01*
X171770779Y-126504819D02*
X172008874Y-126504819D01*
X172008874Y-126504819D02*
X172151731Y-126552438D01*
X172151731Y-126552438D02*
X172246969Y-126647676D01*
X172246969Y-126647676D02*
X172294588Y-126742914D01*
X172294588Y-126742914D02*
X172342207Y-126933390D01*
X172342207Y-126933390D02*
X172342207Y-127076247D01*
X172342207Y-127076247D02*
X172294588Y-127266723D01*
X172294588Y-127266723D02*
X172246969Y-127361961D01*
X172246969Y-127361961D02*
X172151731Y-127457200D01*
X172151731Y-127457200D02*
X172008874Y-127504819D01*
X172008874Y-127504819D02*
X171770779Y-127504819D01*
X173246969Y-126504819D02*
X172770779Y-126504819D01*
X172770779Y-126504819D02*
X172723160Y-126981009D01*
X172723160Y-126981009D02*
X172770779Y-126933390D01*
X172770779Y-126933390D02*
X172866017Y-126885771D01*
X172866017Y-126885771D02*
X173104112Y-126885771D01*
X173104112Y-126885771D02*
X173199350Y-126933390D01*
X173199350Y-126933390D02*
X173246969Y-126981009D01*
X173246969Y-126981009D02*
X173294588Y-127076247D01*
X173294588Y-127076247D02*
X173294588Y-127314342D01*
X173294588Y-127314342D02*
X173246969Y-127409580D01*
X173246969Y-127409580D02*
X173199350Y-127457200D01*
X173199350Y-127457200D02*
X173104112Y-127504819D01*
X173104112Y-127504819D02*
X172866017Y-127504819D01*
X172866017Y-127504819D02*
X172770779Y-127457200D01*
X172770779Y-127457200D02*
X172723160Y-127409580D01*
X170770779Y-125091819D02*
X170770779Y-124091819D01*
X170770779Y-124091819D02*
X171151731Y-124091819D01*
X171151731Y-124091819D02*
X171246969Y-124139438D01*
X171246969Y-124139438D02*
X171294588Y-124187057D01*
X171294588Y-124187057D02*
X171342207Y-124282295D01*
X171342207Y-124282295D02*
X171342207Y-124425152D01*
X171342207Y-124425152D02*
X171294588Y-124520390D01*
X171294588Y-124520390D02*
X171246969Y-124568009D01*
X171246969Y-124568009D02*
X171151731Y-124615628D01*
X171151731Y-124615628D02*
X170770779Y-124615628D01*
X171770779Y-125091819D02*
X171770779Y-124091819D01*
X171770779Y-124091819D02*
X172008874Y-124091819D01*
X172008874Y-124091819D02*
X172151731Y-124139438D01*
X172151731Y-124139438D02*
X172246969Y-124234676D01*
X172246969Y-124234676D02*
X172294588Y-124329914D01*
X172294588Y-124329914D02*
X172342207Y-124520390D01*
X172342207Y-124520390D02*
X172342207Y-124663247D01*
X172342207Y-124663247D02*
X172294588Y-124853723D01*
X172294588Y-124853723D02*
X172246969Y-124948961D01*
X172246969Y-124948961D02*
X172151731Y-125044200D01*
X172151731Y-125044200D02*
X172008874Y-125091819D01*
X172008874Y-125091819D02*
X171770779Y-125091819D01*
X173199350Y-124091819D02*
X173008874Y-124091819D01*
X173008874Y-124091819D02*
X172913636Y-124139438D01*
X172913636Y-124139438D02*
X172866017Y-124187057D01*
X172866017Y-124187057D02*
X172770779Y-124329914D01*
X172770779Y-124329914D02*
X172723160Y-124520390D01*
X172723160Y-124520390D02*
X172723160Y-124901342D01*
X172723160Y-124901342D02*
X172770779Y-124996580D01*
X172770779Y-124996580D02*
X172818398Y-125044200D01*
X172818398Y-125044200D02*
X172913636Y-125091819D01*
X172913636Y-125091819D02*
X173104112Y-125091819D01*
X173104112Y-125091819D02*
X173199350Y-125044200D01*
X173199350Y-125044200D02*
X173246969Y-124996580D01*
X173246969Y-124996580D02*
X173294588Y-124901342D01*
X173294588Y-124901342D02*
X173294588Y-124663247D01*
X173294588Y-124663247D02*
X173246969Y-124568009D01*
X173246969Y-124568009D02*
X173199350Y-124520390D01*
X173199350Y-124520390D02*
X173104112Y-124472771D01*
X173104112Y-124472771D02*
X172913636Y-124472771D01*
X172913636Y-124472771D02*
X172818398Y-124520390D01*
X172818398Y-124520390D02*
X172770779Y-124568009D01*
X172770779Y-124568009D02*
X172723160Y-124663247D01*
X170643779Y-122424819D02*
X170643779Y-121424819D01*
X170643779Y-121424819D02*
X171024731Y-121424819D01*
X171024731Y-121424819D02*
X171119969Y-121472438D01*
X171119969Y-121472438D02*
X171167588Y-121520057D01*
X171167588Y-121520057D02*
X171215207Y-121615295D01*
X171215207Y-121615295D02*
X171215207Y-121758152D01*
X171215207Y-121758152D02*
X171167588Y-121853390D01*
X171167588Y-121853390D02*
X171119969Y-121901009D01*
X171119969Y-121901009D02*
X171024731Y-121948628D01*
X171024731Y-121948628D02*
X170643779Y-121948628D01*
X171643779Y-122424819D02*
X171643779Y-121424819D01*
X171643779Y-121424819D02*
X171881874Y-121424819D01*
X171881874Y-121424819D02*
X172024731Y-121472438D01*
X172024731Y-121472438D02*
X172119969Y-121567676D01*
X172119969Y-121567676D02*
X172167588Y-121662914D01*
X172167588Y-121662914D02*
X172215207Y-121853390D01*
X172215207Y-121853390D02*
X172215207Y-121996247D01*
X172215207Y-121996247D02*
X172167588Y-122186723D01*
X172167588Y-122186723D02*
X172119969Y-122281961D01*
X172119969Y-122281961D02*
X172024731Y-122377200D01*
X172024731Y-122377200D02*
X171881874Y-122424819D01*
X171881874Y-122424819D02*
X171643779Y-122424819D01*
X172548541Y-121424819D02*
X173215207Y-121424819D01*
X173215207Y-121424819D02*
X172786636Y-122424819D01*
X170770779Y-119884819D02*
X170770779Y-118884819D01*
X170770779Y-118884819D02*
X171151731Y-118884819D01*
X171151731Y-118884819D02*
X171246969Y-118932438D01*
X171246969Y-118932438D02*
X171294588Y-118980057D01*
X171294588Y-118980057D02*
X171342207Y-119075295D01*
X171342207Y-119075295D02*
X171342207Y-119218152D01*
X171342207Y-119218152D02*
X171294588Y-119313390D01*
X171294588Y-119313390D02*
X171246969Y-119361009D01*
X171246969Y-119361009D02*
X171151731Y-119408628D01*
X171151731Y-119408628D02*
X170770779Y-119408628D01*
X172104112Y-119361009D02*
X172246969Y-119408628D01*
X172246969Y-119408628D02*
X172294588Y-119456247D01*
X172294588Y-119456247D02*
X172342207Y-119551485D01*
X172342207Y-119551485D02*
X172342207Y-119694342D01*
X172342207Y-119694342D02*
X172294588Y-119789580D01*
X172294588Y-119789580D02*
X172246969Y-119837200D01*
X172246969Y-119837200D02*
X172151731Y-119884819D01*
X172151731Y-119884819D02*
X171770779Y-119884819D01*
X171770779Y-119884819D02*
X171770779Y-118884819D01*
X171770779Y-118884819D02*
X172104112Y-118884819D01*
X172104112Y-118884819D02*
X172199350Y-118932438D01*
X172199350Y-118932438D02*
X172246969Y-118980057D01*
X172246969Y-118980057D02*
X172294588Y-119075295D01*
X172294588Y-119075295D02*
X172294588Y-119170533D01*
X172294588Y-119170533D02*
X172246969Y-119265771D01*
X172246969Y-119265771D02*
X172199350Y-119313390D01*
X172199350Y-119313390D02*
X172104112Y-119361009D01*
X172104112Y-119361009D02*
X171770779Y-119361009D01*
X172961255Y-118884819D02*
X173056493Y-118884819D01*
X173056493Y-118884819D02*
X173151731Y-118932438D01*
X173151731Y-118932438D02*
X173199350Y-118980057D01*
X173199350Y-118980057D02*
X173246969Y-119075295D01*
X173246969Y-119075295D02*
X173294588Y-119265771D01*
X173294588Y-119265771D02*
X173294588Y-119503866D01*
X173294588Y-119503866D02*
X173246969Y-119694342D01*
X173246969Y-119694342D02*
X173199350Y-119789580D01*
X173199350Y-119789580D02*
X173151731Y-119837200D01*
X173151731Y-119837200D02*
X173056493Y-119884819D01*
X173056493Y-119884819D02*
X172961255Y-119884819D01*
X172961255Y-119884819D02*
X172866017Y-119837200D01*
X172866017Y-119837200D02*
X172818398Y-119789580D01*
X172818398Y-119789580D02*
X172770779Y-119694342D01*
X172770779Y-119694342D02*
X172723160Y-119503866D01*
X172723160Y-119503866D02*
X172723160Y-119265771D01*
X172723160Y-119265771D02*
X172770779Y-119075295D01*
X172770779Y-119075295D02*
X172818398Y-118980057D01*
X172818398Y-118980057D02*
X172866017Y-118932438D01*
X172866017Y-118932438D02*
X172961255Y-118884819D01*
X170770779Y-117344819D02*
X170770779Y-116344819D01*
X170770779Y-116344819D02*
X171151731Y-116344819D01*
X171151731Y-116344819D02*
X171246969Y-116392438D01*
X171246969Y-116392438D02*
X171294588Y-116440057D01*
X171294588Y-116440057D02*
X171342207Y-116535295D01*
X171342207Y-116535295D02*
X171342207Y-116678152D01*
X171342207Y-116678152D02*
X171294588Y-116773390D01*
X171294588Y-116773390D02*
X171246969Y-116821009D01*
X171246969Y-116821009D02*
X171151731Y-116868628D01*
X171151731Y-116868628D02*
X170770779Y-116868628D01*
X172104112Y-116821009D02*
X172246969Y-116868628D01*
X172246969Y-116868628D02*
X172294588Y-116916247D01*
X172294588Y-116916247D02*
X172342207Y-117011485D01*
X172342207Y-117011485D02*
X172342207Y-117154342D01*
X172342207Y-117154342D02*
X172294588Y-117249580D01*
X172294588Y-117249580D02*
X172246969Y-117297200D01*
X172246969Y-117297200D02*
X172151731Y-117344819D01*
X172151731Y-117344819D02*
X171770779Y-117344819D01*
X171770779Y-117344819D02*
X171770779Y-116344819D01*
X171770779Y-116344819D02*
X172104112Y-116344819D01*
X172104112Y-116344819D02*
X172199350Y-116392438D01*
X172199350Y-116392438D02*
X172246969Y-116440057D01*
X172246969Y-116440057D02*
X172294588Y-116535295D01*
X172294588Y-116535295D02*
X172294588Y-116630533D01*
X172294588Y-116630533D02*
X172246969Y-116725771D01*
X172246969Y-116725771D02*
X172199350Y-116773390D01*
X172199350Y-116773390D02*
X172104112Y-116821009D01*
X172104112Y-116821009D02*
X171770779Y-116821009D01*
X173294588Y-117344819D02*
X172723160Y-117344819D01*
X173008874Y-117344819D02*
X173008874Y-116344819D01*
X173008874Y-116344819D02*
X172913636Y-116487676D01*
X172913636Y-116487676D02*
X172818398Y-116582914D01*
X172818398Y-116582914D02*
X172723160Y-116630533D01*
X170770779Y-114804819D02*
X170770779Y-113804819D01*
X170770779Y-113804819D02*
X171151731Y-113804819D01*
X171151731Y-113804819D02*
X171246969Y-113852438D01*
X171246969Y-113852438D02*
X171294588Y-113900057D01*
X171294588Y-113900057D02*
X171342207Y-113995295D01*
X171342207Y-113995295D02*
X171342207Y-114138152D01*
X171342207Y-114138152D02*
X171294588Y-114233390D01*
X171294588Y-114233390D02*
X171246969Y-114281009D01*
X171246969Y-114281009D02*
X171151731Y-114328628D01*
X171151731Y-114328628D02*
X170770779Y-114328628D01*
X172104112Y-114281009D02*
X172246969Y-114328628D01*
X172246969Y-114328628D02*
X172294588Y-114376247D01*
X172294588Y-114376247D02*
X172342207Y-114471485D01*
X172342207Y-114471485D02*
X172342207Y-114614342D01*
X172342207Y-114614342D02*
X172294588Y-114709580D01*
X172294588Y-114709580D02*
X172246969Y-114757200D01*
X172246969Y-114757200D02*
X172151731Y-114804819D01*
X172151731Y-114804819D02*
X171770779Y-114804819D01*
X171770779Y-114804819D02*
X171770779Y-113804819D01*
X171770779Y-113804819D02*
X172104112Y-113804819D01*
X172104112Y-113804819D02*
X172199350Y-113852438D01*
X172199350Y-113852438D02*
X172246969Y-113900057D01*
X172246969Y-113900057D02*
X172294588Y-113995295D01*
X172294588Y-113995295D02*
X172294588Y-114090533D01*
X172294588Y-114090533D02*
X172246969Y-114185771D01*
X172246969Y-114185771D02*
X172199350Y-114233390D01*
X172199350Y-114233390D02*
X172104112Y-114281009D01*
X172104112Y-114281009D02*
X171770779Y-114281009D01*
X172723160Y-113900057D02*
X172770779Y-113852438D01*
X172770779Y-113852438D02*
X172866017Y-113804819D01*
X172866017Y-113804819D02*
X173104112Y-113804819D01*
X173104112Y-113804819D02*
X173199350Y-113852438D01*
X173199350Y-113852438D02*
X173246969Y-113900057D01*
X173246969Y-113900057D02*
X173294588Y-113995295D01*
X173294588Y-113995295D02*
X173294588Y-114090533D01*
X173294588Y-114090533D02*
X173246969Y-114233390D01*
X173246969Y-114233390D02*
X172675541Y-114804819D01*
X172675541Y-114804819D02*
X173294588Y-114804819D01*
X170135779Y-112391819D02*
X170135779Y-111391819D01*
X170135779Y-111391819D02*
X170469112Y-112106104D01*
X170469112Y-112106104D02*
X170802445Y-111391819D01*
X170802445Y-111391819D02*
X170802445Y-112391819D01*
X171469112Y-111391819D02*
X171659588Y-111391819D01*
X171659588Y-111391819D02*
X171754826Y-111439438D01*
X171754826Y-111439438D02*
X171850064Y-111534676D01*
X171850064Y-111534676D02*
X171897683Y-111725152D01*
X171897683Y-111725152D02*
X171897683Y-112058485D01*
X171897683Y-112058485D02*
X171850064Y-112248961D01*
X171850064Y-112248961D02*
X171754826Y-112344200D01*
X171754826Y-112344200D02*
X171659588Y-112391819D01*
X171659588Y-112391819D02*
X171469112Y-112391819D01*
X171469112Y-112391819D02*
X171373874Y-112344200D01*
X171373874Y-112344200D02*
X171278636Y-112248961D01*
X171278636Y-112248961D02*
X171231017Y-112058485D01*
X171231017Y-112058485D02*
X171231017Y-111725152D01*
X171231017Y-111725152D02*
X171278636Y-111534676D01*
X171278636Y-111534676D02*
X171373874Y-111439438D01*
X171373874Y-111439438D02*
X171469112Y-111391819D01*
X172278636Y-112344200D02*
X172421493Y-112391819D01*
X172421493Y-112391819D02*
X172659588Y-112391819D01*
X172659588Y-112391819D02*
X172754826Y-112344200D01*
X172754826Y-112344200D02*
X172802445Y-112296580D01*
X172802445Y-112296580D02*
X172850064Y-112201342D01*
X172850064Y-112201342D02*
X172850064Y-112106104D01*
X172850064Y-112106104D02*
X172802445Y-112010866D01*
X172802445Y-112010866D02*
X172754826Y-111963247D01*
X172754826Y-111963247D02*
X172659588Y-111915628D01*
X172659588Y-111915628D02*
X172469112Y-111868009D01*
X172469112Y-111868009D02*
X172373874Y-111820390D01*
X172373874Y-111820390D02*
X172326255Y-111772771D01*
X172326255Y-111772771D02*
X172278636Y-111677533D01*
X172278636Y-111677533D02*
X172278636Y-111582295D01*
X172278636Y-111582295D02*
X172326255Y-111487057D01*
X172326255Y-111487057D02*
X172373874Y-111439438D01*
X172373874Y-111439438D02*
X172469112Y-111391819D01*
X172469112Y-111391819D02*
X172707207Y-111391819D01*
X172707207Y-111391819D02*
X172850064Y-111439438D01*
X173278636Y-112391819D02*
X173278636Y-111391819D01*
X170008779Y-109724819D02*
X170008779Y-108724819D01*
X170008779Y-108724819D02*
X170342112Y-109439104D01*
X170342112Y-109439104D02*
X170675445Y-108724819D01*
X170675445Y-108724819D02*
X170675445Y-109724819D01*
X171151636Y-109724819D02*
X171151636Y-108724819D01*
X171580207Y-109677200D02*
X171723064Y-109724819D01*
X171723064Y-109724819D02*
X171961159Y-109724819D01*
X171961159Y-109724819D02*
X172056397Y-109677200D01*
X172056397Y-109677200D02*
X172104016Y-109629580D01*
X172104016Y-109629580D02*
X172151635Y-109534342D01*
X172151635Y-109534342D02*
X172151635Y-109439104D01*
X172151635Y-109439104D02*
X172104016Y-109343866D01*
X172104016Y-109343866D02*
X172056397Y-109296247D01*
X172056397Y-109296247D02*
X171961159Y-109248628D01*
X171961159Y-109248628D02*
X171770683Y-109201009D01*
X171770683Y-109201009D02*
X171675445Y-109153390D01*
X171675445Y-109153390D02*
X171627826Y-109105771D01*
X171627826Y-109105771D02*
X171580207Y-109010533D01*
X171580207Y-109010533D02*
X171580207Y-108915295D01*
X171580207Y-108915295D02*
X171627826Y-108820057D01*
X171627826Y-108820057D02*
X171675445Y-108772438D01*
X171675445Y-108772438D02*
X171770683Y-108724819D01*
X171770683Y-108724819D02*
X172008778Y-108724819D01*
X172008778Y-108724819D02*
X172151635Y-108772438D01*
X172770683Y-108724819D02*
X172961159Y-108724819D01*
X172961159Y-108724819D02*
X173056397Y-108772438D01*
X173056397Y-108772438D02*
X173151635Y-108867676D01*
X173151635Y-108867676D02*
X173199254Y-109058152D01*
X173199254Y-109058152D02*
X173199254Y-109391485D01*
X173199254Y-109391485D02*
X173151635Y-109581961D01*
X173151635Y-109581961D02*
X173056397Y-109677200D01*
X173056397Y-109677200D02*
X172961159Y-109724819D01*
X172961159Y-109724819D02*
X172770683Y-109724819D01*
X172770683Y-109724819D02*
X172675445Y-109677200D01*
X172675445Y-109677200D02*
X172580207Y-109581961D01*
X172580207Y-109581961D02*
X172532588Y-109391485D01*
X172532588Y-109391485D02*
X172532588Y-109058152D01*
X172532588Y-109058152D02*
X172580207Y-108867676D01*
X172580207Y-108867676D02*
X172675445Y-108772438D01*
X172675445Y-108772438D02*
X172770683Y-108724819D01*
X170596160Y-107137200D02*
X170739017Y-107184819D01*
X170739017Y-107184819D02*
X170977112Y-107184819D01*
X170977112Y-107184819D02*
X171072350Y-107137200D01*
X171072350Y-107137200D02*
X171119969Y-107089580D01*
X171119969Y-107089580D02*
X171167588Y-106994342D01*
X171167588Y-106994342D02*
X171167588Y-106899104D01*
X171167588Y-106899104D02*
X171119969Y-106803866D01*
X171119969Y-106803866D02*
X171072350Y-106756247D01*
X171072350Y-106756247D02*
X170977112Y-106708628D01*
X170977112Y-106708628D02*
X170786636Y-106661009D01*
X170786636Y-106661009D02*
X170691398Y-106613390D01*
X170691398Y-106613390D02*
X170643779Y-106565771D01*
X170643779Y-106565771D02*
X170596160Y-106470533D01*
X170596160Y-106470533D02*
X170596160Y-106375295D01*
X170596160Y-106375295D02*
X170643779Y-106280057D01*
X170643779Y-106280057D02*
X170691398Y-106232438D01*
X170691398Y-106232438D02*
X170786636Y-106184819D01*
X170786636Y-106184819D02*
X171024731Y-106184819D01*
X171024731Y-106184819D02*
X171167588Y-106232438D01*
X172167588Y-107089580D02*
X172119969Y-107137200D01*
X172119969Y-107137200D02*
X171977112Y-107184819D01*
X171977112Y-107184819D02*
X171881874Y-107184819D01*
X171881874Y-107184819D02*
X171739017Y-107137200D01*
X171739017Y-107137200D02*
X171643779Y-107041961D01*
X171643779Y-107041961D02*
X171596160Y-106946723D01*
X171596160Y-106946723D02*
X171548541Y-106756247D01*
X171548541Y-106756247D02*
X171548541Y-106613390D01*
X171548541Y-106613390D02*
X171596160Y-106422914D01*
X171596160Y-106422914D02*
X171643779Y-106327676D01*
X171643779Y-106327676D02*
X171739017Y-106232438D01*
X171739017Y-106232438D02*
X171881874Y-106184819D01*
X171881874Y-106184819D02*
X171977112Y-106184819D01*
X171977112Y-106184819D02*
X172119969Y-106232438D01*
X172119969Y-106232438D02*
X172167588Y-106280057D01*
X172596160Y-107184819D02*
X172596160Y-106184819D01*
X173167588Y-107184819D02*
X172739017Y-106613390D01*
X173167588Y-106184819D02*
X172596160Y-106756247D01*
X169834160Y-104359104D02*
X170310350Y-104359104D01*
X169738922Y-104644819D02*
X170072255Y-103644819D01*
X170072255Y-103644819D02*
X170405588Y-104644819D01*
X170738922Y-104644819D02*
X170738922Y-103644819D01*
X170738922Y-103644819D02*
X170977017Y-103644819D01*
X170977017Y-103644819D02*
X171119874Y-103692438D01*
X171119874Y-103692438D02*
X171215112Y-103787676D01*
X171215112Y-103787676D02*
X171262731Y-103882914D01*
X171262731Y-103882914D02*
X171310350Y-104073390D01*
X171310350Y-104073390D02*
X171310350Y-104216247D01*
X171310350Y-104216247D02*
X171262731Y-104406723D01*
X171262731Y-104406723D02*
X171215112Y-104501961D01*
X171215112Y-104501961D02*
X171119874Y-104597200D01*
X171119874Y-104597200D02*
X170977017Y-104644819D01*
X170977017Y-104644819D02*
X170738922Y-104644819D01*
X172310350Y-104549580D02*
X172262731Y-104597200D01*
X172262731Y-104597200D02*
X172119874Y-104644819D01*
X172119874Y-104644819D02*
X172024636Y-104644819D01*
X172024636Y-104644819D02*
X171881779Y-104597200D01*
X171881779Y-104597200D02*
X171786541Y-104501961D01*
X171786541Y-104501961D02*
X171738922Y-104406723D01*
X171738922Y-104406723D02*
X171691303Y-104216247D01*
X171691303Y-104216247D02*
X171691303Y-104073390D01*
X171691303Y-104073390D02*
X171738922Y-103882914D01*
X171738922Y-103882914D02*
X171786541Y-103787676D01*
X171786541Y-103787676D02*
X171881779Y-103692438D01*
X171881779Y-103692438D02*
X172024636Y-103644819D01*
X172024636Y-103644819D02*
X172119874Y-103644819D01*
X172119874Y-103644819D02*
X172262731Y-103692438D01*
X172262731Y-103692438D02*
X172310350Y-103740057D01*
X173167493Y-103644819D02*
X172977017Y-103644819D01*
X172977017Y-103644819D02*
X172881779Y-103692438D01*
X172881779Y-103692438D02*
X172834160Y-103740057D01*
X172834160Y-103740057D02*
X172738922Y-103882914D01*
X172738922Y-103882914D02*
X172691303Y-104073390D01*
X172691303Y-104073390D02*
X172691303Y-104454342D01*
X172691303Y-104454342D02*
X172738922Y-104549580D01*
X172738922Y-104549580D02*
X172786541Y-104597200D01*
X172786541Y-104597200D02*
X172881779Y-104644819D01*
X172881779Y-104644819D02*
X173072255Y-104644819D01*
X173072255Y-104644819D02*
X173167493Y-104597200D01*
X173167493Y-104597200D02*
X173215112Y-104549580D01*
X173215112Y-104549580D02*
X173262731Y-104454342D01*
X173262731Y-104454342D02*
X173262731Y-104216247D01*
X173262731Y-104216247D02*
X173215112Y-104121009D01*
X173215112Y-104121009D02*
X173167493Y-104073390D01*
X173167493Y-104073390D02*
X173072255Y-104025771D01*
X173072255Y-104025771D02*
X172881779Y-104025771D01*
X172881779Y-104025771D02*
X172786541Y-104073390D01*
X172786541Y-104073390D02*
X172738922Y-104121009D01*
X172738922Y-104121009D02*
X172691303Y-104216247D01*
X169961160Y-101819104D02*
X170437350Y-101819104D01*
X169865922Y-102104819D02*
X170199255Y-101104819D01*
X170199255Y-101104819D02*
X170532588Y-102104819D01*
X171437350Y-102104819D02*
X171104017Y-101628628D01*
X170865922Y-102104819D02*
X170865922Y-101104819D01*
X170865922Y-101104819D02*
X171246874Y-101104819D01*
X171246874Y-101104819D02*
X171342112Y-101152438D01*
X171342112Y-101152438D02*
X171389731Y-101200057D01*
X171389731Y-101200057D02*
X171437350Y-101295295D01*
X171437350Y-101295295D02*
X171437350Y-101438152D01*
X171437350Y-101438152D02*
X171389731Y-101533390D01*
X171389731Y-101533390D02*
X171342112Y-101581009D01*
X171342112Y-101581009D02*
X171246874Y-101628628D01*
X171246874Y-101628628D02*
X170865922Y-101628628D01*
X171865922Y-101581009D02*
X172199255Y-101581009D01*
X172342112Y-102104819D02*
X171865922Y-102104819D01*
X171865922Y-102104819D02*
X171865922Y-101104819D01*
X171865922Y-101104819D02*
X172342112Y-101104819D01*
X173104017Y-101581009D02*
X172770684Y-101581009D01*
X172770684Y-102104819D02*
X172770684Y-101104819D01*
X172770684Y-101104819D02*
X173246874Y-101104819D01*
X171135922Y-98564819D02*
X171469255Y-99564819D01*
X171469255Y-99564819D02*
X171802588Y-98564819D01*
X172135922Y-99564819D02*
X172135922Y-98564819D01*
X172612112Y-99564819D02*
X172612112Y-98564819D01*
X172612112Y-98564819D02*
X173183540Y-99564819D01*
X173183540Y-99564819D02*
X173183540Y-98564819D01*
X171167588Y-96072438D02*
X171072350Y-96024819D01*
X171072350Y-96024819D02*
X170929493Y-96024819D01*
X170929493Y-96024819D02*
X170786636Y-96072438D01*
X170786636Y-96072438D02*
X170691398Y-96167676D01*
X170691398Y-96167676D02*
X170643779Y-96262914D01*
X170643779Y-96262914D02*
X170596160Y-96453390D01*
X170596160Y-96453390D02*
X170596160Y-96596247D01*
X170596160Y-96596247D02*
X170643779Y-96786723D01*
X170643779Y-96786723D02*
X170691398Y-96881961D01*
X170691398Y-96881961D02*
X170786636Y-96977200D01*
X170786636Y-96977200D02*
X170929493Y-97024819D01*
X170929493Y-97024819D02*
X171024731Y-97024819D01*
X171024731Y-97024819D02*
X171167588Y-96977200D01*
X171167588Y-96977200D02*
X171215207Y-96929580D01*
X171215207Y-96929580D02*
X171215207Y-96596247D01*
X171215207Y-96596247D02*
X171024731Y-96596247D01*
X171643779Y-97024819D02*
X171643779Y-96024819D01*
X171643779Y-96024819D02*
X172215207Y-97024819D01*
X172215207Y-97024819D02*
X172215207Y-96024819D01*
X172691398Y-97024819D02*
X172691398Y-96024819D01*
X172691398Y-96024819D02*
X172929493Y-96024819D01*
X172929493Y-96024819D02*
X173072350Y-96072438D01*
X173072350Y-96072438D02*
X173167588Y-96167676D01*
X173167588Y-96167676D02*
X173215207Y-96262914D01*
X173215207Y-96262914D02*
X173262826Y-96453390D01*
X173262826Y-96453390D02*
X173262826Y-96596247D01*
X173262826Y-96596247D02*
X173215207Y-96786723D01*
X173215207Y-96786723D02*
X173167588Y-96881961D01*
X173167588Y-96881961D02*
X173072350Y-96977200D01*
X173072350Y-96977200D02*
X172929493Y-97024819D01*
X172929493Y-97024819D02*
X172691398Y-97024819D01*
X171167588Y-93532438D02*
X171072350Y-93484819D01*
X171072350Y-93484819D02*
X170929493Y-93484819D01*
X170929493Y-93484819D02*
X170786636Y-93532438D01*
X170786636Y-93532438D02*
X170691398Y-93627676D01*
X170691398Y-93627676D02*
X170643779Y-93722914D01*
X170643779Y-93722914D02*
X170596160Y-93913390D01*
X170596160Y-93913390D02*
X170596160Y-94056247D01*
X170596160Y-94056247D02*
X170643779Y-94246723D01*
X170643779Y-94246723D02*
X170691398Y-94341961D01*
X170691398Y-94341961D02*
X170786636Y-94437200D01*
X170786636Y-94437200D02*
X170929493Y-94484819D01*
X170929493Y-94484819D02*
X171024731Y-94484819D01*
X171024731Y-94484819D02*
X171167588Y-94437200D01*
X171167588Y-94437200D02*
X171215207Y-94389580D01*
X171215207Y-94389580D02*
X171215207Y-94056247D01*
X171215207Y-94056247D02*
X171024731Y-94056247D01*
X171643779Y-94484819D02*
X171643779Y-93484819D01*
X171643779Y-93484819D02*
X172215207Y-94484819D01*
X172215207Y-94484819D02*
X172215207Y-93484819D01*
X172691398Y-94484819D02*
X172691398Y-93484819D01*
X172691398Y-93484819D02*
X172929493Y-93484819D01*
X172929493Y-93484819D02*
X173072350Y-93532438D01*
X173072350Y-93532438D02*
X173167588Y-93627676D01*
X173167588Y-93627676D02*
X173215207Y-93722914D01*
X173215207Y-93722914D02*
X173262826Y-93913390D01*
X173262826Y-93913390D02*
X173262826Y-94056247D01*
X173262826Y-94056247D02*
X173215207Y-94246723D01*
X173215207Y-94246723D02*
X173167588Y-94341961D01*
X173167588Y-94341961D02*
X173072350Y-94437200D01*
X173072350Y-94437200D02*
X172929493Y-94484819D01*
X172929493Y-94484819D02*
X172691398Y-94484819D01*
X155038588Y-93532438D02*
X154943350Y-93484819D01*
X154943350Y-93484819D02*
X154800493Y-93484819D01*
X154800493Y-93484819D02*
X154657636Y-93532438D01*
X154657636Y-93532438D02*
X154562398Y-93627676D01*
X154562398Y-93627676D02*
X154514779Y-93722914D01*
X154514779Y-93722914D02*
X154467160Y-93913390D01*
X154467160Y-93913390D02*
X154467160Y-94056247D01*
X154467160Y-94056247D02*
X154514779Y-94246723D01*
X154514779Y-94246723D02*
X154562398Y-94341961D01*
X154562398Y-94341961D02*
X154657636Y-94437200D01*
X154657636Y-94437200D02*
X154800493Y-94484819D01*
X154800493Y-94484819D02*
X154895731Y-94484819D01*
X154895731Y-94484819D02*
X155038588Y-94437200D01*
X155038588Y-94437200D02*
X155086207Y-94389580D01*
X155086207Y-94389580D02*
X155086207Y-94056247D01*
X155086207Y-94056247D02*
X154895731Y-94056247D01*
X155514779Y-94484819D02*
X155514779Y-93484819D01*
X155514779Y-93484819D02*
X156086207Y-94484819D01*
X156086207Y-94484819D02*
X156086207Y-93484819D01*
X156562398Y-94484819D02*
X156562398Y-93484819D01*
X156562398Y-93484819D02*
X156800493Y-93484819D01*
X156800493Y-93484819D02*
X156943350Y-93532438D01*
X156943350Y-93532438D02*
X157038588Y-93627676D01*
X157038588Y-93627676D02*
X157086207Y-93722914D01*
X157086207Y-93722914D02*
X157133826Y-93913390D01*
X157133826Y-93913390D02*
X157133826Y-94056247D01*
X157133826Y-94056247D02*
X157086207Y-94246723D01*
X157086207Y-94246723D02*
X157038588Y-94341961D01*
X157038588Y-94341961D02*
X156943350Y-94437200D01*
X156943350Y-94437200D02*
X156800493Y-94484819D01*
X156800493Y-94484819D02*
X156562398Y-94484819D01*
X170627922Y-90944819D02*
X170961255Y-91944819D01*
X170961255Y-91944819D02*
X171294588Y-90944819D01*
X172199350Y-91849580D02*
X172151731Y-91897200D01*
X172151731Y-91897200D02*
X172008874Y-91944819D01*
X172008874Y-91944819D02*
X171913636Y-91944819D01*
X171913636Y-91944819D02*
X171770779Y-91897200D01*
X171770779Y-91897200D02*
X171675541Y-91801961D01*
X171675541Y-91801961D02*
X171627922Y-91706723D01*
X171627922Y-91706723D02*
X171580303Y-91516247D01*
X171580303Y-91516247D02*
X171580303Y-91373390D01*
X171580303Y-91373390D02*
X171627922Y-91182914D01*
X171627922Y-91182914D02*
X171675541Y-91087676D01*
X171675541Y-91087676D02*
X171770779Y-90992438D01*
X171770779Y-90992438D02*
X171913636Y-90944819D01*
X171913636Y-90944819D02*
X172008874Y-90944819D01*
X172008874Y-90944819D02*
X172151731Y-90992438D01*
X172151731Y-90992438D02*
X172199350Y-91040057D01*
X173199350Y-91849580D02*
X173151731Y-91897200D01*
X173151731Y-91897200D02*
X173008874Y-91944819D01*
X173008874Y-91944819D02*
X172913636Y-91944819D01*
X172913636Y-91944819D02*
X172770779Y-91897200D01*
X172770779Y-91897200D02*
X172675541Y-91801961D01*
X172675541Y-91801961D02*
X172627922Y-91706723D01*
X172627922Y-91706723D02*
X172580303Y-91516247D01*
X172580303Y-91516247D02*
X172580303Y-91373390D01*
X172580303Y-91373390D02*
X172627922Y-91182914D01*
X172627922Y-91182914D02*
X172675541Y-91087676D01*
X172675541Y-91087676D02*
X172770779Y-90992438D01*
X172770779Y-90992438D02*
X172913636Y-90944819D01*
X172913636Y-90944819D02*
X173008874Y-90944819D01*
X173008874Y-90944819D02*
X173151731Y-90992438D01*
X173151731Y-90992438D02*
X173199350Y-91040057D01*
X154514779Y-127504819D02*
X154514779Y-126504819D01*
X154514779Y-126504819D02*
X154895731Y-126504819D01*
X154895731Y-126504819D02*
X154990969Y-126552438D01*
X154990969Y-126552438D02*
X155038588Y-126600057D01*
X155038588Y-126600057D02*
X155086207Y-126695295D01*
X155086207Y-126695295D02*
X155086207Y-126838152D01*
X155086207Y-126838152D02*
X155038588Y-126933390D01*
X155038588Y-126933390D02*
X154990969Y-126981009D01*
X154990969Y-126981009D02*
X154895731Y-127028628D01*
X154895731Y-127028628D02*
X154514779Y-127028628D01*
X155514779Y-127504819D02*
X155514779Y-126504819D01*
X155514779Y-126504819D02*
X155752874Y-126504819D01*
X155752874Y-126504819D02*
X155895731Y-126552438D01*
X155895731Y-126552438D02*
X155990969Y-126647676D01*
X155990969Y-126647676D02*
X156038588Y-126742914D01*
X156038588Y-126742914D02*
X156086207Y-126933390D01*
X156086207Y-126933390D02*
X156086207Y-127076247D01*
X156086207Y-127076247D02*
X156038588Y-127266723D01*
X156038588Y-127266723D02*
X155990969Y-127361961D01*
X155990969Y-127361961D02*
X155895731Y-127457200D01*
X155895731Y-127457200D02*
X155752874Y-127504819D01*
X155752874Y-127504819D02*
X155514779Y-127504819D01*
X156943350Y-126838152D02*
X156943350Y-127504819D01*
X156705255Y-126457200D02*
X156467160Y-127171485D01*
X156467160Y-127171485D02*
X157086207Y-127171485D01*
X154514779Y-124964819D02*
X154514779Y-123964819D01*
X154514779Y-123964819D02*
X154895731Y-123964819D01*
X154895731Y-123964819D02*
X154990969Y-124012438D01*
X154990969Y-124012438D02*
X155038588Y-124060057D01*
X155038588Y-124060057D02*
X155086207Y-124155295D01*
X155086207Y-124155295D02*
X155086207Y-124298152D01*
X155086207Y-124298152D02*
X155038588Y-124393390D01*
X155038588Y-124393390D02*
X154990969Y-124441009D01*
X154990969Y-124441009D02*
X154895731Y-124488628D01*
X154895731Y-124488628D02*
X154514779Y-124488628D01*
X155514779Y-124964819D02*
X155514779Y-123964819D01*
X155514779Y-123964819D02*
X155752874Y-123964819D01*
X155752874Y-123964819D02*
X155895731Y-124012438D01*
X155895731Y-124012438D02*
X155990969Y-124107676D01*
X155990969Y-124107676D02*
X156038588Y-124202914D01*
X156038588Y-124202914D02*
X156086207Y-124393390D01*
X156086207Y-124393390D02*
X156086207Y-124536247D01*
X156086207Y-124536247D02*
X156038588Y-124726723D01*
X156038588Y-124726723D02*
X155990969Y-124821961D01*
X155990969Y-124821961D02*
X155895731Y-124917200D01*
X155895731Y-124917200D02*
X155752874Y-124964819D01*
X155752874Y-124964819D02*
X155514779Y-124964819D01*
X156419541Y-123964819D02*
X157038588Y-123964819D01*
X157038588Y-123964819D02*
X156705255Y-124345771D01*
X156705255Y-124345771D02*
X156848112Y-124345771D01*
X156848112Y-124345771D02*
X156943350Y-124393390D01*
X156943350Y-124393390D02*
X156990969Y-124441009D01*
X156990969Y-124441009D02*
X157038588Y-124536247D01*
X157038588Y-124536247D02*
X157038588Y-124774342D01*
X157038588Y-124774342D02*
X156990969Y-124869580D01*
X156990969Y-124869580D02*
X156943350Y-124917200D01*
X156943350Y-124917200D02*
X156848112Y-124964819D01*
X156848112Y-124964819D02*
X156562398Y-124964819D01*
X156562398Y-124964819D02*
X156467160Y-124917200D01*
X156467160Y-124917200D02*
X156419541Y-124869580D01*
X154514779Y-122424819D02*
X154514779Y-121424819D01*
X154514779Y-121424819D02*
X154895731Y-121424819D01*
X154895731Y-121424819D02*
X154990969Y-121472438D01*
X154990969Y-121472438D02*
X155038588Y-121520057D01*
X155038588Y-121520057D02*
X155086207Y-121615295D01*
X155086207Y-121615295D02*
X155086207Y-121758152D01*
X155086207Y-121758152D02*
X155038588Y-121853390D01*
X155038588Y-121853390D02*
X154990969Y-121901009D01*
X154990969Y-121901009D02*
X154895731Y-121948628D01*
X154895731Y-121948628D02*
X154514779Y-121948628D01*
X155514779Y-122424819D02*
X155514779Y-121424819D01*
X155514779Y-121424819D02*
X155752874Y-121424819D01*
X155752874Y-121424819D02*
X155895731Y-121472438D01*
X155895731Y-121472438D02*
X155990969Y-121567676D01*
X155990969Y-121567676D02*
X156038588Y-121662914D01*
X156038588Y-121662914D02*
X156086207Y-121853390D01*
X156086207Y-121853390D02*
X156086207Y-121996247D01*
X156086207Y-121996247D02*
X156038588Y-122186723D01*
X156038588Y-122186723D02*
X155990969Y-122281961D01*
X155990969Y-122281961D02*
X155895731Y-122377200D01*
X155895731Y-122377200D02*
X155752874Y-122424819D01*
X155752874Y-122424819D02*
X155514779Y-122424819D01*
X156467160Y-121520057D02*
X156514779Y-121472438D01*
X156514779Y-121472438D02*
X156610017Y-121424819D01*
X156610017Y-121424819D02*
X156848112Y-121424819D01*
X156848112Y-121424819D02*
X156943350Y-121472438D01*
X156943350Y-121472438D02*
X156990969Y-121520057D01*
X156990969Y-121520057D02*
X157038588Y-121615295D01*
X157038588Y-121615295D02*
X157038588Y-121710533D01*
X157038588Y-121710533D02*
X156990969Y-121853390D01*
X156990969Y-121853390D02*
X156419541Y-122424819D01*
X156419541Y-122424819D02*
X157038588Y-122424819D01*
X154371922Y-118884819D02*
X154943350Y-118884819D01*
X154657636Y-119884819D02*
X154657636Y-118884819D01*
X155181446Y-118884819D02*
X155848112Y-119884819D01*
X155848112Y-118884819D02*
X155181446Y-119884819D01*
X156229065Y-119884819D02*
X156229065Y-118884819D01*
X156229065Y-118884819D02*
X156467160Y-118884819D01*
X156467160Y-118884819D02*
X156610017Y-118932438D01*
X156610017Y-118932438D02*
X156705255Y-119027676D01*
X156705255Y-119027676D02*
X156752874Y-119122914D01*
X156752874Y-119122914D02*
X156800493Y-119313390D01*
X156800493Y-119313390D02*
X156800493Y-119456247D01*
X156800493Y-119456247D02*
X156752874Y-119646723D01*
X156752874Y-119646723D02*
X156705255Y-119741961D01*
X156705255Y-119741961D02*
X156610017Y-119837200D01*
X156610017Y-119837200D02*
X156467160Y-119884819D01*
X156467160Y-119884819D02*
X156229065Y-119884819D01*
X155086207Y-117344819D02*
X154752874Y-116868628D01*
X154514779Y-117344819D02*
X154514779Y-116344819D01*
X154514779Y-116344819D02*
X154895731Y-116344819D01*
X154895731Y-116344819D02*
X154990969Y-116392438D01*
X154990969Y-116392438D02*
X155038588Y-116440057D01*
X155038588Y-116440057D02*
X155086207Y-116535295D01*
X155086207Y-116535295D02*
X155086207Y-116678152D01*
X155086207Y-116678152D02*
X155038588Y-116773390D01*
X155038588Y-116773390D02*
X154990969Y-116821009D01*
X154990969Y-116821009D02*
X154895731Y-116868628D01*
X154895731Y-116868628D02*
X154514779Y-116868628D01*
X155419541Y-116344819D02*
X156086207Y-117344819D01*
X156086207Y-116344819D02*
X155419541Y-117344819D01*
X156467160Y-117344819D02*
X156467160Y-116344819D01*
X156467160Y-116344819D02*
X156705255Y-116344819D01*
X156705255Y-116344819D02*
X156848112Y-116392438D01*
X156848112Y-116392438D02*
X156943350Y-116487676D01*
X156943350Y-116487676D02*
X156990969Y-116582914D01*
X156990969Y-116582914D02*
X157038588Y-116773390D01*
X157038588Y-116773390D02*
X157038588Y-116916247D01*
X157038588Y-116916247D02*
X156990969Y-117106723D01*
X156990969Y-117106723D02*
X156943350Y-117201961D01*
X156943350Y-117201961D02*
X156848112Y-117297200D01*
X156848112Y-117297200D02*
X156705255Y-117344819D01*
X156705255Y-117344819D02*
X156467160Y-117344819D01*
X155086207Y-114804819D02*
X154752874Y-114328628D01*
X154514779Y-114804819D02*
X154514779Y-113804819D01*
X154514779Y-113804819D02*
X154895731Y-113804819D01*
X154895731Y-113804819D02*
X154990969Y-113852438D01*
X154990969Y-113852438D02*
X155038588Y-113900057D01*
X155038588Y-113900057D02*
X155086207Y-113995295D01*
X155086207Y-113995295D02*
X155086207Y-114138152D01*
X155086207Y-114138152D02*
X155038588Y-114233390D01*
X155038588Y-114233390D02*
X154990969Y-114281009D01*
X154990969Y-114281009D02*
X154895731Y-114328628D01*
X154895731Y-114328628D02*
X154514779Y-114328628D01*
X155467160Y-114757200D02*
X155610017Y-114804819D01*
X155610017Y-114804819D02*
X155848112Y-114804819D01*
X155848112Y-114804819D02*
X155943350Y-114757200D01*
X155943350Y-114757200D02*
X155990969Y-114709580D01*
X155990969Y-114709580D02*
X156038588Y-114614342D01*
X156038588Y-114614342D02*
X156038588Y-114519104D01*
X156038588Y-114519104D02*
X155990969Y-114423866D01*
X155990969Y-114423866D02*
X155943350Y-114376247D01*
X155943350Y-114376247D02*
X155848112Y-114328628D01*
X155848112Y-114328628D02*
X155657636Y-114281009D01*
X155657636Y-114281009D02*
X155562398Y-114233390D01*
X155562398Y-114233390D02*
X155514779Y-114185771D01*
X155514779Y-114185771D02*
X155467160Y-114090533D01*
X155467160Y-114090533D02*
X155467160Y-113995295D01*
X155467160Y-113995295D02*
X155514779Y-113900057D01*
X155514779Y-113900057D02*
X155562398Y-113852438D01*
X155562398Y-113852438D02*
X155657636Y-113804819D01*
X155657636Y-113804819D02*
X155895731Y-113804819D01*
X155895731Y-113804819D02*
X156038588Y-113852438D01*
X156324303Y-113804819D02*
X156895731Y-113804819D01*
X156610017Y-114804819D02*
X156610017Y-113804819D01*
X154514779Y-112137819D02*
X154514779Y-111137819D01*
X154514779Y-111137819D02*
X154895731Y-111137819D01*
X154895731Y-111137819D02*
X154990969Y-111185438D01*
X154990969Y-111185438D02*
X155038588Y-111233057D01*
X155038588Y-111233057D02*
X155086207Y-111328295D01*
X155086207Y-111328295D02*
X155086207Y-111471152D01*
X155086207Y-111471152D02*
X155038588Y-111566390D01*
X155038588Y-111566390D02*
X154990969Y-111614009D01*
X154990969Y-111614009D02*
X154895731Y-111661628D01*
X154895731Y-111661628D02*
X154514779Y-111661628D01*
X156086207Y-112042580D02*
X156038588Y-112090200D01*
X156038588Y-112090200D02*
X155895731Y-112137819D01*
X155895731Y-112137819D02*
X155800493Y-112137819D01*
X155800493Y-112137819D02*
X155657636Y-112090200D01*
X155657636Y-112090200D02*
X155562398Y-111994961D01*
X155562398Y-111994961D02*
X155514779Y-111899723D01*
X155514779Y-111899723D02*
X155467160Y-111709247D01*
X155467160Y-111709247D02*
X155467160Y-111566390D01*
X155467160Y-111566390D02*
X155514779Y-111375914D01*
X155514779Y-111375914D02*
X155562398Y-111280676D01*
X155562398Y-111280676D02*
X155657636Y-111185438D01*
X155657636Y-111185438D02*
X155800493Y-111137819D01*
X155800493Y-111137819D02*
X155895731Y-111137819D01*
X155895731Y-111137819D02*
X156038588Y-111185438D01*
X156038588Y-111185438D02*
X156086207Y-111233057D01*
X156990969Y-111137819D02*
X156514779Y-111137819D01*
X156514779Y-111137819D02*
X156467160Y-111614009D01*
X156467160Y-111614009D02*
X156514779Y-111566390D01*
X156514779Y-111566390D02*
X156610017Y-111518771D01*
X156610017Y-111518771D02*
X156848112Y-111518771D01*
X156848112Y-111518771D02*
X156943350Y-111566390D01*
X156943350Y-111566390D02*
X156990969Y-111614009D01*
X156990969Y-111614009D02*
X157038588Y-111709247D01*
X157038588Y-111709247D02*
X157038588Y-111947342D01*
X157038588Y-111947342D02*
X156990969Y-112042580D01*
X156990969Y-112042580D02*
X156943350Y-112090200D01*
X156943350Y-112090200D02*
X156848112Y-112137819D01*
X156848112Y-112137819D02*
X156610017Y-112137819D01*
X156610017Y-112137819D02*
X156514779Y-112090200D01*
X156514779Y-112090200D02*
X156467160Y-112042580D01*
X154514779Y-109724819D02*
X154514779Y-108724819D01*
X154514779Y-108724819D02*
X154895731Y-108724819D01*
X154895731Y-108724819D02*
X154990969Y-108772438D01*
X154990969Y-108772438D02*
X155038588Y-108820057D01*
X155038588Y-108820057D02*
X155086207Y-108915295D01*
X155086207Y-108915295D02*
X155086207Y-109058152D01*
X155086207Y-109058152D02*
X155038588Y-109153390D01*
X155038588Y-109153390D02*
X154990969Y-109201009D01*
X154990969Y-109201009D02*
X154895731Y-109248628D01*
X154895731Y-109248628D02*
X154514779Y-109248628D01*
X156086207Y-109629580D02*
X156038588Y-109677200D01*
X156038588Y-109677200D02*
X155895731Y-109724819D01*
X155895731Y-109724819D02*
X155800493Y-109724819D01*
X155800493Y-109724819D02*
X155657636Y-109677200D01*
X155657636Y-109677200D02*
X155562398Y-109581961D01*
X155562398Y-109581961D02*
X155514779Y-109486723D01*
X155514779Y-109486723D02*
X155467160Y-109296247D01*
X155467160Y-109296247D02*
X155467160Y-109153390D01*
X155467160Y-109153390D02*
X155514779Y-108962914D01*
X155514779Y-108962914D02*
X155562398Y-108867676D01*
X155562398Y-108867676D02*
X155657636Y-108772438D01*
X155657636Y-108772438D02*
X155800493Y-108724819D01*
X155800493Y-108724819D02*
X155895731Y-108724819D01*
X155895731Y-108724819D02*
X156038588Y-108772438D01*
X156038588Y-108772438D02*
X156086207Y-108820057D01*
X156943350Y-109058152D02*
X156943350Y-109724819D01*
X156705255Y-108677200D02*
X156467160Y-109391485D01*
X156467160Y-109391485D02*
X157086207Y-109391485D01*
X154514779Y-107184819D02*
X154514779Y-106184819D01*
X154514779Y-106184819D02*
X154895731Y-106184819D01*
X154895731Y-106184819D02*
X154990969Y-106232438D01*
X154990969Y-106232438D02*
X155038588Y-106280057D01*
X155038588Y-106280057D02*
X155086207Y-106375295D01*
X155086207Y-106375295D02*
X155086207Y-106518152D01*
X155086207Y-106518152D02*
X155038588Y-106613390D01*
X155038588Y-106613390D02*
X154990969Y-106661009D01*
X154990969Y-106661009D02*
X154895731Y-106708628D01*
X154895731Y-106708628D02*
X154514779Y-106708628D01*
X156086207Y-107089580D02*
X156038588Y-107137200D01*
X156038588Y-107137200D02*
X155895731Y-107184819D01*
X155895731Y-107184819D02*
X155800493Y-107184819D01*
X155800493Y-107184819D02*
X155657636Y-107137200D01*
X155657636Y-107137200D02*
X155562398Y-107041961D01*
X155562398Y-107041961D02*
X155514779Y-106946723D01*
X155514779Y-106946723D02*
X155467160Y-106756247D01*
X155467160Y-106756247D02*
X155467160Y-106613390D01*
X155467160Y-106613390D02*
X155514779Y-106422914D01*
X155514779Y-106422914D02*
X155562398Y-106327676D01*
X155562398Y-106327676D02*
X155657636Y-106232438D01*
X155657636Y-106232438D02*
X155800493Y-106184819D01*
X155800493Y-106184819D02*
X155895731Y-106184819D01*
X155895731Y-106184819D02*
X156038588Y-106232438D01*
X156038588Y-106232438D02*
X156086207Y-106280057D01*
X156419541Y-106184819D02*
X157038588Y-106184819D01*
X157038588Y-106184819D02*
X156705255Y-106565771D01*
X156705255Y-106565771D02*
X156848112Y-106565771D01*
X156848112Y-106565771D02*
X156943350Y-106613390D01*
X156943350Y-106613390D02*
X156990969Y-106661009D01*
X156990969Y-106661009D02*
X157038588Y-106756247D01*
X157038588Y-106756247D02*
X157038588Y-106994342D01*
X157038588Y-106994342D02*
X156990969Y-107089580D01*
X156990969Y-107089580D02*
X156943350Y-107137200D01*
X156943350Y-107137200D02*
X156848112Y-107184819D01*
X156848112Y-107184819D02*
X156562398Y-107184819D01*
X156562398Y-107184819D02*
X156467160Y-107137200D01*
X156467160Y-107137200D02*
X156419541Y-107089580D01*
X154514779Y-104644819D02*
X154514779Y-103644819D01*
X154514779Y-103644819D02*
X154895731Y-103644819D01*
X154895731Y-103644819D02*
X154990969Y-103692438D01*
X154990969Y-103692438D02*
X155038588Y-103740057D01*
X155038588Y-103740057D02*
X155086207Y-103835295D01*
X155086207Y-103835295D02*
X155086207Y-103978152D01*
X155086207Y-103978152D02*
X155038588Y-104073390D01*
X155038588Y-104073390D02*
X154990969Y-104121009D01*
X154990969Y-104121009D02*
X154895731Y-104168628D01*
X154895731Y-104168628D02*
X154514779Y-104168628D01*
X156086207Y-104549580D02*
X156038588Y-104597200D01*
X156038588Y-104597200D02*
X155895731Y-104644819D01*
X155895731Y-104644819D02*
X155800493Y-104644819D01*
X155800493Y-104644819D02*
X155657636Y-104597200D01*
X155657636Y-104597200D02*
X155562398Y-104501961D01*
X155562398Y-104501961D02*
X155514779Y-104406723D01*
X155514779Y-104406723D02*
X155467160Y-104216247D01*
X155467160Y-104216247D02*
X155467160Y-104073390D01*
X155467160Y-104073390D02*
X155514779Y-103882914D01*
X155514779Y-103882914D02*
X155562398Y-103787676D01*
X155562398Y-103787676D02*
X155657636Y-103692438D01*
X155657636Y-103692438D02*
X155800493Y-103644819D01*
X155800493Y-103644819D02*
X155895731Y-103644819D01*
X155895731Y-103644819D02*
X156038588Y-103692438D01*
X156038588Y-103692438D02*
X156086207Y-103740057D01*
X156467160Y-103740057D02*
X156514779Y-103692438D01*
X156514779Y-103692438D02*
X156610017Y-103644819D01*
X156610017Y-103644819D02*
X156848112Y-103644819D01*
X156848112Y-103644819D02*
X156943350Y-103692438D01*
X156943350Y-103692438D02*
X156990969Y-103740057D01*
X156990969Y-103740057D02*
X157038588Y-103835295D01*
X157038588Y-103835295D02*
X157038588Y-103930533D01*
X157038588Y-103930533D02*
X156990969Y-104073390D01*
X156990969Y-104073390D02*
X156419541Y-104644819D01*
X156419541Y-104644819D02*
X157038588Y-104644819D01*
X154514779Y-102104819D02*
X154514779Y-101104819D01*
X154514779Y-101104819D02*
X154895731Y-101104819D01*
X154895731Y-101104819D02*
X154990969Y-101152438D01*
X154990969Y-101152438D02*
X155038588Y-101200057D01*
X155038588Y-101200057D02*
X155086207Y-101295295D01*
X155086207Y-101295295D02*
X155086207Y-101438152D01*
X155086207Y-101438152D02*
X155038588Y-101533390D01*
X155038588Y-101533390D02*
X154990969Y-101581009D01*
X154990969Y-101581009D02*
X154895731Y-101628628D01*
X154895731Y-101628628D02*
X154514779Y-101628628D01*
X156086207Y-102009580D02*
X156038588Y-102057200D01*
X156038588Y-102057200D02*
X155895731Y-102104819D01*
X155895731Y-102104819D02*
X155800493Y-102104819D01*
X155800493Y-102104819D02*
X155657636Y-102057200D01*
X155657636Y-102057200D02*
X155562398Y-101961961D01*
X155562398Y-101961961D02*
X155514779Y-101866723D01*
X155514779Y-101866723D02*
X155467160Y-101676247D01*
X155467160Y-101676247D02*
X155467160Y-101533390D01*
X155467160Y-101533390D02*
X155514779Y-101342914D01*
X155514779Y-101342914D02*
X155562398Y-101247676D01*
X155562398Y-101247676D02*
X155657636Y-101152438D01*
X155657636Y-101152438D02*
X155800493Y-101104819D01*
X155800493Y-101104819D02*
X155895731Y-101104819D01*
X155895731Y-101104819D02*
X156038588Y-101152438D01*
X156038588Y-101152438D02*
X156086207Y-101200057D01*
X157038588Y-102104819D02*
X156467160Y-102104819D01*
X156752874Y-102104819D02*
X156752874Y-101104819D01*
X156752874Y-101104819D02*
X156657636Y-101247676D01*
X156657636Y-101247676D02*
X156562398Y-101342914D01*
X156562398Y-101342914D02*
X156467160Y-101390533D01*
X154514779Y-99564819D02*
X154514779Y-98564819D01*
X154514779Y-98564819D02*
X154895731Y-98564819D01*
X154895731Y-98564819D02*
X154990969Y-98612438D01*
X154990969Y-98612438D02*
X155038588Y-98660057D01*
X155038588Y-98660057D02*
X155086207Y-98755295D01*
X155086207Y-98755295D02*
X155086207Y-98898152D01*
X155086207Y-98898152D02*
X155038588Y-98993390D01*
X155038588Y-98993390D02*
X154990969Y-99041009D01*
X154990969Y-99041009D02*
X154895731Y-99088628D01*
X154895731Y-99088628D02*
X154514779Y-99088628D01*
X156086207Y-99469580D02*
X156038588Y-99517200D01*
X156038588Y-99517200D02*
X155895731Y-99564819D01*
X155895731Y-99564819D02*
X155800493Y-99564819D01*
X155800493Y-99564819D02*
X155657636Y-99517200D01*
X155657636Y-99517200D02*
X155562398Y-99421961D01*
X155562398Y-99421961D02*
X155514779Y-99326723D01*
X155514779Y-99326723D02*
X155467160Y-99136247D01*
X155467160Y-99136247D02*
X155467160Y-98993390D01*
X155467160Y-98993390D02*
X155514779Y-98802914D01*
X155514779Y-98802914D02*
X155562398Y-98707676D01*
X155562398Y-98707676D02*
X155657636Y-98612438D01*
X155657636Y-98612438D02*
X155800493Y-98564819D01*
X155800493Y-98564819D02*
X155895731Y-98564819D01*
X155895731Y-98564819D02*
X156038588Y-98612438D01*
X156038588Y-98612438D02*
X156086207Y-98660057D01*
X156705255Y-98564819D02*
X156800493Y-98564819D01*
X156800493Y-98564819D02*
X156895731Y-98612438D01*
X156895731Y-98612438D02*
X156943350Y-98660057D01*
X156943350Y-98660057D02*
X156990969Y-98755295D01*
X156990969Y-98755295D02*
X157038588Y-98945771D01*
X157038588Y-98945771D02*
X157038588Y-99183866D01*
X157038588Y-99183866D02*
X156990969Y-99374342D01*
X156990969Y-99374342D02*
X156943350Y-99469580D01*
X156943350Y-99469580D02*
X156895731Y-99517200D01*
X156895731Y-99517200D02*
X156800493Y-99564819D01*
X156800493Y-99564819D02*
X156705255Y-99564819D01*
X156705255Y-99564819D02*
X156610017Y-99517200D01*
X156610017Y-99517200D02*
X156562398Y-99469580D01*
X156562398Y-99469580D02*
X156514779Y-99374342D01*
X156514779Y-99374342D02*
X156467160Y-99183866D01*
X156467160Y-99183866D02*
X156467160Y-98945771D01*
X156467160Y-98945771D02*
X156514779Y-98755295D01*
X156514779Y-98755295D02*
X156562398Y-98660057D01*
X156562398Y-98660057D02*
X156610017Y-98612438D01*
X156610017Y-98612438D02*
X156705255Y-98564819D01*
X154467160Y-96739104D02*
X154943350Y-96739104D01*
X154371922Y-97024819D02*
X154705255Y-96024819D01*
X154705255Y-96024819D02*
X155038588Y-97024819D01*
X155371922Y-97024819D02*
X155371922Y-96024819D01*
X155371922Y-96024819D02*
X155610017Y-96024819D01*
X155610017Y-96024819D02*
X155752874Y-96072438D01*
X155752874Y-96072438D02*
X155848112Y-96167676D01*
X155848112Y-96167676D02*
X155895731Y-96262914D01*
X155895731Y-96262914D02*
X155943350Y-96453390D01*
X155943350Y-96453390D02*
X155943350Y-96596247D01*
X155943350Y-96596247D02*
X155895731Y-96786723D01*
X155895731Y-96786723D02*
X155848112Y-96881961D01*
X155848112Y-96881961D02*
X155752874Y-96977200D01*
X155752874Y-96977200D02*
X155610017Y-97024819D01*
X155610017Y-97024819D02*
X155371922Y-97024819D01*
X156943350Y-96929580D02*
X156895731Y-96977200D01*
X156895731Y-96977200D02*
X156752874Y-97024819D01*
X156752874Y-97024819D02*
X156657636Y-97024819D01*
X156657636Y-97024819D02*
X156514779Y-96977200D01*
X156514779Y-96977200D02*
X156419541Y-96881961D01*
X156419541Y-96881961D02*
X156371922Y-96786723D01*
X156371922Y-96786723D02*
X156324303Y-96596247D01*
X156324303Y-96596247D02*
X156324303Y-96453390D01*
X156324303Y-96453390D02*
X156371922Y-96262914D01*
X156371922Y-96262914D02*
X156419541Y-96167676D01*
X156419541Y-96167676D02*
X156514779Y-96072438D01*
X156514779Y-96072438D02*
X156657636Y-96024819D01*
X156657636Y-96024819D02*
X156752874Y-96024819D01*
X156752874Y-96024819D02*
X156895731Y-96072438D01*
X156895731Y-96072438D02*
X156943350Y-96120057D01*
X157276684Y-96024819D02*
X157943350Y-96024819D01*
X157943350Y-96024819D02*
X157514779Y-97024819D01*
X154371922Y-90944819D02*
X154705255Y-91944819D01*
X154705255Y-91944819D02*
X155038588Y-90944819D01*
X155943350Y-91849580D02*
X155895731Y-91897200D01*
X155895731Y-91897200D02*
X155752874Y-91944819D01*
X155752874Y-91944819D02*
X155657636Y-91944819D01*
X155657636Y-91944819D02*
X155514779Y-91897200D01*
X155514779Y-91897200D02*
X155419541Y-91801961D01*
X155419541Y-91801961D02*
X155371922Y-91706723D01*
X155371922Y-91706723D02*
X155324303Y-91516247D01*
X155324303Y-91516247D02*
X155324303Y-91373390D01*
X155324303Y-91373390D02*
X155371922Y-91182914D01*
X155371922Y-91182914D02*
X155419541Y-91087676D01*
X155419541Y-91087676D02*
X155514779Y-90992438D01*
X155514779Y-90992438D02*
X155657636Y-90944819D01*
X155657636Y-90944819D02*
X155752874Y-90944819D01*
X155752874Y-90944819D02*
X155895731Y-90992438D01*
X155895731Y-90992438D02*
X155943350Y-91040057D01*
X156943350Y-91849580D02*
X156895731Y-91897200D01*
X156895731Y-91897200D02*
X156752874Y-91944819D01*
X156752874Y-91944819D02*
X156657636Y-91944819D01*
X156657636Y-91944819D02*
X156514779Y-91897200D01*
X156514779Y-91897200D02*
X156419541Y-91801961D01*
X156419541Y-91801961D02*
X156371922Y-91706723D01*
X156371922Y-91706723D02*
X156324303Y-91516247D01*
X156324303Y-91516247D02*
X156324303Y-91373390D01*
X156324303Y-91373390D02*
X156371922Y-91182914D01*
X156371922Y-91182914D02*
X156419541Y-91087676D01*
X156419541Y-91087676D02*
X156514779Y-90992438D01*
X156514779Y-90992438D02*
X156657636Y-90944819D01*
X156657636Y-90944819D02*
X156752874Y-90944819D01*
X156752874Y-90944819D02*
X156895731Y-90992438D01*
X156895731Y-90992438D02*
X156943350Y-91040057D01*
X162452207Y-116963819D02*
X162118874Y-116487628D01*
X161880779Y-116963819D02*
X161880779Y-115963819D01*
X161880779Y-115963819D02*
X162261731Y-115963819D01*
X162261731Y-115963819D02*
X162356969Y-116011438D01*
X162356969Y-116011438D02*
X162404588Y-116059057D01*
X162404588Y-116059057D02*
X162452207Y-116154295D01*
X162452207Y-116154295D02*
X162452207Y-116297152D01*
X162452207Y-116297152D02*
X162404588Y-116392390D01*
X162404588Y-116392390D02*
X162356969Y-116440009D01*
X162356969Y-116440009D02*
X162261731Y-116487628D01*
X162261731Y-116487628D02*
X161880779Y-116487628D01*
X162880779Y-116440009D02*
X163214112Y-116440009D01*
X163356969Y-116963819D02*
X162880779Y-116963819D01*
X162880779Y-116963819D02*
X162880779Y-115963819D01*
X162880779Y-115963819D02*
X163356969Y-115963819D01*
X163737922Y-116916200D02*
X163880779Y-116963819D01*
X163880779Y-116963819D02*
X164118874Y-116963819D01*
X164118874Y-116963819D02*
X164214112Y-116916200D01*
X164214112Y-116916200D02*
X164261731Y-116868580D01*
X164261731Y-116868580D02*
X164309350Y-116773342D01*
X164309350Y-116773342D02*
X164309350Y-116678104D01*
X164309350Y-116678104D02*
X164261731Y-116582866D01*
X164261731Y-116582866D02*
X164214112Y-116535247D01*
X164214112Y-116535247D02*
X164118874Y-116487628D01*
X164118874Y-116487628D02*
X163928398Y-116440009D01*
X163928398Y-116440009D02*
X163833160Y-116392390D01*
X163833160Y-116392390D02*
X163785541Y-116344771D01*
X163785541Y-116344771D02*
X163737922Y-116249533D01*
X163737922Y-116249533D02*
X163737922Y-116154295D01*
X163737922Y-116154295D02*
X163785541Y-116059057D01*
X163785541Y-116059057D02*
X163833160Y-116011438D01*
X163833160Y-116011438D02*
X163928398Y-115963819D01*
X163928398Y-115963819D02*
X164166493Y-115963819D01*
X164166493Y-115963819D02*
X164309350Y-116011438D01*
X164737922Y-116440009D02*
X165071255Y-116440009D01*
X165214112Y-116963819D02*
X164737922Y-116963819D01*
X164737922Y-116963819D02*
X164737922Y-115963819D01*
X164737922Y-115963819D02*
X165214112Y-115963819D01*
X165499827Y-115963819D02*
X166071255Y-115963819D01*
X165785541Y-116963819D02*
X165785541Y-115963819D01*
X170897779Y-85340819D02*
X170897779Y-84340819D01*
X170897779Y-84340819D02*
X171278731Y-84340819D01*
X171278731Y-84340819D02*
X171373969Y-84388438D01*
X171373969Y-84388438D02*
X171421588Y-84436057D01*
X171421588Y-84436057D02*
X171469207Y-84531295D01*
X171469207Y-84531295D02*
X171469207Y-84674152D01*
X171469207Y-84674152D02*
X171421588Y-84769390D01*
X171421588Y-84769390D02*
X171373969Y-84817009D01*
X171373969Y-84817009D02*
X171278731Y-84864628D01*
X171278731Y-84864628D02*
X170897779Y-84864628D01*
X171802541Y-84340819D02*
X172040636Y-85340819D01*
X172040636Y-85340819D02*
X172231112Y-84626533D01*
X172231112Y-84626533D02*
X172421588Y-85340819D01*
X172421588Y-85340819D02*
X172659684Y-84340819D01*
X173612064Y-85340819D02*
X173278731Y-84864628D01*
X173040636Y-85340819D02*
X173040636Y-84340819D01*
X173040636Y-84340819D02*
X173421588Y-84340819D01*
X173421588Y-84340819D02*
X173516826Y-84388438D01*
X173516826Y-84388438D02*
X173564445Y-84436057D01*
X173564445Y-84436057D02*
X173612064Y-84531295D01*
X173612064Y-84531295D02*
X173612064Y-84674152D01*
X173612064Y-84674152D02*
X173564445Y-84769390D01*
X173564445Y-84769390D02*
X173516826Y-84817009D01*
X173516826Y-84817009D02*
X173421588Y-84864628D01*
X173421588Y-84864628D02*
X173040636Y-84864628D01*
X154006779Y-84213819D02*
X154006779Y-85023342D01*
X154006779Y-85023342D02*
X154054398Y-85118580D01*
X154054398Y-85118580D02*
X154102017Y-85166200D01*
X154102017Y-85166200D02*
X154197255Y-85213819D01*
X154197255Y-85213819D02*
X154387731Y-85213819D01*
X154387731Y-85213819D02*
X154482969Y-85166200D01*
X154482969Y-85166200D02*
X154530588Y-85118580D01*
X154530588Y-85118580D02*
X154578207Y-85023342D01*
X154578207Y-85023342D02*
X154578207Y-84213819D01*
X155006779Y-84928104D02*
X155482969Y-84928104D01*
X154911541Y-85213819D02*
X155244874Y-84213819D01*
X155244874Y-84213819D02*
X155578207Y-85213819D01*
X156482969Y-85213819D02*
X156149636Y-84737628D01*
X155911541Y-85213819D02*
X155911541Y-84213819D01*
X155911541Y-84213819D02*
X156292493Y-84213819D01*
X156292493Y-84213819D02*
X156387731Y-84261438D01*
X156387731Y-84261438D02*
X156435350Y-84309057D01*
X156435350Y-84309057D02*
X156482969Y-84404295D01*
X156482969Y-84404295D02*
X156482969Y-84547152D01*
X156482969Y-84547152D02*
X156435350Y-84642390D01*
X156435350Y-84642390D02*
X156387731Y-84690009D01*
X156387731Y-84690009D02*
X156292493Y-84737628D01*
X156292493Y-84737628D02*
X155911541Y-84737628D01*
X156768684Y-84213819D02*
X157340112Y-84213819D01*
X157054398Y-85213819D02*
X157054398Y-84213819D01*
X160420207Y-101596819D02*
X160086874Y-101120628D01*
X159848779Y-101596819D02*
X159848779Y-100596819D01*
X159848779Y-100596819D02*
X160229731Y-100596819D01*
X160229731Y-100596819D02*
X160324969Y-100644438D01*
X160324969Y-100644438D02*
X160372588Y-100692057D01*
X160372588Y-100692057D02*
X160420207Y-100787295D01*
X160420207Y-100787295D02*
X160420207Y-100930152D01*
X160420207Y-100930152D02*
X160372588Y-101025390D01*
X160372588Y-101025390D02*
X160324969Y-101073009D01*
X160324969Y-101073009D02*
X160229731Y-101120628D01*
X160229731Y-101120628D02*
X159848779Y-101120628D01*
X160753541Y-100596819D02*
X161420207Y-101596819D01*
X161420207Y-100596819D02*
X160753541Y-101596819D01*
X158832779Y-93976819D02*
X158832779Y-92976819D01*
X158832779Y-92976819D02*
X159213731Y-92976819D01*
X159213731Y-92976819D02*
X159308969Y-93024438D01*
X159308969Y-93024438D02*
X159356588Y-93072057D01*
X159356588Y-93072057D02*
X159404207Y-93167295D01*
X159404207Y-93167295D02*
X159404207Y-93310152D01*
X159404207Y-93310152D02*
X159356588Y-93405390D01*
X159356588Y-93405390D02*
X159308969Y-93453009D01*
X159308969Y-93453009D02*
X159213731Y-93500628D01*
X159213731Y-93500628D02*
X158832779Y-93500628D01*
X159737541Y-92976819D02*
X159975636Y-93976819D01*
X159975636Y-93976819D02*
X160166112Y-93262533D01*
X160166112Y-93262533D02*
X160356588Y-93976819D01*
X160356588Y-93976819D02*
X160594684Y-92976819D01*
X161547064Y-93976819D02*
X161213731Y-93500628D01*
X160975636Y-93976819D02*
X160975636Y-92976819D01*
X160975636Y-92976819D02*
X161356588Y-92976819D01*
X161356588Y-92976819D02*
X161451826Y-93024438D01*
X161451826Y-93024438D02*
X161499445Y-93072057D01*
X161499445Y-93072057D02*
X161547064Y-93167295D01*
X161547064Y-93167295D02*
X161547064Y-93310152D01*
X161547064Y-93310152D02*
X161499445Y-93405390D01*
X161499445Y-93405390D02*
X161451826Y-93453009D01*
X161451826Y-93453009D02*
X161356588Y-93500628D01*
X161356588Y-93500628D02*
X160975636Y-93500628D01*
X159959922Y-96786819D02*
X160531350Y-96786819D01*
X160245636Y-97786819D02*
X160245636Y-96786819D01*
X160769446Y-96786819D02*
X161436112Y-97786819D01*
X161436112Y-96786819D02*
X160769446Y-97786819D01*
X163663333Y-90243819D02*
X163330000Y-89767628D01*
X163091905Y-90243819D02*
X163091905Y-89243819D01*
X163091905Y-89243819D02*
X163472857Y-89243819D01*
X163472857Y-89243819D02*
X163568095Y-89291438D01*
X163568095Y-89291438D02*
X163615714Y-89339057D01*
X163615714Y-89339057D02*
X163663333Y-89434295D01*
X163663333Y-89434295D02*
X163663333Y-89577152D01*
X163663333Y-89577152D02*
X163615714Y-89672390D01*
X163615714Y-89672390D02*
X163568095Y-89720009D01*
X163568095Y-89720009D02*
X163472857Y-89767628D01*
X163472857Y-89767628D02*
X163091905Y-89767628D01*
X164520476Y-89243819D02*
X164330000Y-89243819D01*
X164330000Y-89243819D02*
X164234762Y-89291438D01*
X164234762Y-89291438D02*
X164187143Y-89339057D01*
X164187143Y-89339057D02*
X164091905Y-89481914D01*
X164091905Y-89481914D02*
X164044286Y-89672390D01*
X164044286Y-89672390D02*
X164044286Y-90053342D01*
X164044286Y-90053342D02*
X164091905Y-90148580D01*
X164091905Y-90148580D02*
X164139524Y-90196200D01*
X164139524Y-90196200D02*
X164234762Y-90243819D01*
X164234762Y-90243819D02*
X164425238Y-90243819D01*
X164425238Y-90243819D02*
X164520476Y-90196200D01*
X164520476Y-90196200D02*
X164568095Y-90148580D01*
X164568095Y-90148580D02*
X164615714Y-90053342D01*
X164615714Y-90053342D02*
X164615714Y-89815247D01*
X164615714Y-89815247D02*
X164568095Y-89720009D01*
X164568095Y-89720009D02*
X164520476Y-89672390D01*
X164520476Y-89672390D02*
X164425238Y-89624771D01*
X164425238Y-89624771D02*
X164234762Y-89624771D01*
X164234762Y-89624771D02*
X164139524Y-89672390D01*
X164139524Y-89672390D02*
X164091905Y-89720009D01*
X164091905Y-89720009D02*
X164044286Y-89815247D01*
X167346333Y-99768819D02*
X167013000Y-99292628D01*
X166774905Y-99768819D02*
X166774905Y-98768819D01*
X166774905Y-98768819D02*
X167155857Y-98768819D01*
X167155857Y-98768819D02*
X167251095Y-98816438D01*
X167251095Y-98816438D02*
X167298714Y-98864057D01*
X167298714Y-98864057D02*
X167346333Y-98959295D01*
X167346333Y-98959295D02*
X167346333Y-99102152D01*
X167346333Y-99102152D02*
X167298714Y-99197390D01*
X167298714Y-99197390D02*
X167251095Y-99245009D01*
X167251095Y-99245009D02*
X167155857Y-99292628D01*
X167155857Y-99292628D02*
X166774905Y-99292628D01*
X167679667Y-98768819D02*
X168298714Y-98768819D01*
X168298714Y-98768819D02*
X167965381Y-99149771D01*
X167965381Y-99149771D02*
X168108238Y-99149771D01*
X168108238Y-99149771D02*
X168203476Y-99197390D01*
X168203476Y-99197390D02*
X168251095Y-99245009D01*
X168251095Y-99245009D02*
X168298714Y-99340247D01*
X168298714Y-99340247D02*
X168298714Y-99578342D01*
X168298714Y-99578342D02*
X168251095Y-99673580D01*
X168251095Y-99673580D02*
X168203476Y-99721200D01*
X168203476Y-99721200D02*
X168108238Y-99768819D01*
X168108238Y-99768819D02*
X167822524Y-99768819D01*
X167822524Y-99768819D02*
X167727286Y-99721200D01*
X167727286Y-99721200D02*
X167679667Y-99673580D01*
X162964905Y-92148819D02*
X162964905Y-91148819D01*
X162964905Y-91148819D02*
X163203000Y-91148819D01*
X163203000Y-91148819D02*
X163345857Y-91196438D01*
X163345857Y-91196438D02*
X163441095Y-91291676D01*
X163441095Y-91291676D02*
X163488714Y-91386914D01*
X163488714Y-91386914D02*
X163536333Y-91577390D01*
X163536333Y-91577390D02*
X163536333Y-91720247D01*
X163536333Y-91720247D02*
X163488714Y-91910723D01*
X163488714Y-91910723D02*
X163441095Y-92005961D01*
X163441095Y-92005961D02*
X163345857Y-92101200D01*
X163345857Y-92101200D02*
X163203000Y-92148819D01*
X163203000Y-92148819D02*
X162964905Y-92148819D01*
X164393476Y-91482152D02*
X164393476Y-92148819D01*
X164155381Y-91101200D02*
X163917286Y-91815485D01*
X163917286Y-91815485D02*
X164536333Y-91815485D01*
X159853333Y-90243819D02*
X159520000Y-89767628D01*
X159281905Y-90243819D02*
X159281905Y-89243819D01*
X159281905Y-89243819D02*
X159662857Y-89243819D01*
X159662857Y-89243819D02*
X159758095Y-89291438D01*
X159758095Y-89291438D02*
X159805714Y-89339057D01*
X159805714Y-89339057D02*
X159853333Y-89434295D01*
X159853333Y-89434295D02*
X159853333Y-89577152D01*
X159853333Y-89577152D02*
X159805714Y-89672390D01*
X159805714Y-89672390D02*
X159758095Y-89720009D01*
X159758095Y-89720009D02*
X159662857Y-89767628D01*
X159662857Y-89767628D02*
X159281905Y-89767628D01*
X160758095Y-89243819D02*
X160281905Y-89243819D01*
X160281905Y-89243819D02*
X160234286Y-89720009D01*
X160234286Y-89720009D02*
X160281905Y-89672390D01*
X160281905Y-89672390D02*
X160377143Y-89624771D01*
X160377143Y-89624771D02*
X160615238Y-89624771D01*
X160615238Y-89624771D02*
X160710476Y-89672390D01*
X160710476Y-89672390D02*
X160758095Y-89720009D01*
X160758095Y-89720009D02*
X160805714Y-89815247D01*
X160805714Y-89815247D02*
X160805714Y-90053342D01*
X160805714Y-90053342D02*
X160758095Y-90148580D01*
X160758095Y-90148580D02*
X160710476Y-90196200D01*
X160710476Y-90196200D02*
X160615238Y-90243819D01*
X160615238Y-90243819D02*
X160377143Y-90243819D01*
X160377143Y-90243819D02*
X160281905Y-90196200D01*
X160281905Y-90196200D02*
X160234286Y-90148580D01*
X174926666Y-88735819D02*
X174926666Y-89450104D01*
X174926666Y-89450104D02*
X174879047Y-89592961D01*
X174879047Y-89592961D02*
X174783809Y-89688200D01*
X174783809Y-89688200D02*
X174640952Y-89735819D01*
X174640952Y-89735819D02*
X174545714Y-89735819D01*
X175831428Y-89069152D02*
X175831428Y-89735819D01*
X175593333Y-88688200D02*
X175355238Y-89402485D01*
X175355238Y-89402485D02*
X175974285Y-89402485D01*
X163496666Y-121755819D02*
X163496666Y-122470104D01*
X163496666Y-122470104D02*
X163449047Y-122612961D01*
X163449047Y-122612961D02*
X163353809Y-122708200D01*
X163353809Y-122708200D02*
X163210952Y-122755819D01*
X163210952Y-122755819D02*
X163115714Y-122755819D01*
X163925238Y-121851057D02*
X163972857Y-121803438D01*
X163972857Y-121803438D02*
X164068095Y-121755819D01*
X164068095Y-121755819D02*
X164306190Y-121755819D01*
X164306190Y-121755819D02*
X164401428Y-121803438D01*
X164401428Y-121803438D02*
X164449047Y-121851057D01*
X164449047Y-121851057D02*
X164496666Y-121946295D01*
X164496666Y-121946295D02*
X164496666Y-122041533D01*
X164496666Y-122041533D02*
X164449047Y-122184390D01*
X164449047Y-122184390D02*
X163877619Y-122755819D01*
X163877619Y-122755819D02*
X164496666Y-122755819D01*
X162964905Y-95958819D02*
X162964905Y-94958819D01*
X162964905Y-94958819D02*
X163203000Y-94958819D01*
X163203000Y-94958819D02*
X163345857Y-95006438D01*
X163345857Y-95006438D02*
X163441095Y-95101676D01*
X163441095Y-95101676D02*
X163488714Y-95196914D01*
X163488714Y-95196914D02*
X163536333Y-95387390D01*
X163536333Y-95387390D02*
X163536333Y-95530247D01*
X163536333Y-95530247D02*
X163488714Y-95720723D01*
X163488714Y-95720723D02*
X163441095Y-95815961D01*
X163441095Y-95815961D02*
X163345857Y-95911200D01*
X163345857Y-95911200D02*
X163203000Y-95958819D01*
X163203000Y-95958819D02*
X162964905Y-95958819D01*
X163917286Y-95054057D02*
X163964905Y-95006438D01*
X163964905Y-95006438D02*
X164060143Y-94958819D01*
X164060143Y-94958819D02*
X164298238Y-94958819D01*
X164298238Y-94958819D02*
X164393476Y-95006438D01*
X164393476Y-95006438D02*
X164441095Y-95054057D01*
X164441095Y-95054057D02*
X164488714Y-95149295D01*
X164488714Y-95149295D02*
X164488714Y-95244533D01*
X164488714Y-95244533D02*
X164441095Y-95387390D01*
X164441095Y-95387390D02*
X163869667Y-95958819D01*
X163869667Y-95958819D02*
X164488714Y-95958819D01*
X159599333Y-116980819D02*
X159266000Y-116504628D01*
X159027905Y-116980819D02*
X159027905Y-115980819D01*
X159027905Y-115980819D02*
X159408857Y-115980819D01*
X159408857Y-115980819D02*
X159504095Y-116028438D01*
X159504095Y-116028438D02*
X159551714Y-116076057D01*
X159551714Y-116076057D02*
X159599333Y-116171295D01*
X159599333Y-116171295D02*
X159599333Y-116314152D01*
X159599333Y-116314152D02*
X159551714Y-116409390D01*
X159551714Y-116409390D02*
X159504095Y-116457009D01*
X159504095Y-116457009D02*
X159408857Y-116504628D01*
X159408857Y-116504628D02*
X159027905Y-116504628D01*
X160551714Y-116980819D02*
X159980286Y-116980819D01*
X160266000Y-116980819D02*
X160266000Y-115980819D01*
X160266000Y-115980819D02*
X160170762Y-116123676D01*
X160170762Y-116123676D02*
X160075524Y-116218914D01*
X160075524Y-116218914D02*
X159980286Y-116266533D01*
X167346333Y-92148819D02*
X167013000Y-91672628D01*
X166774905Y-92148819D02*
X166774905Y-91148819D01*
X166774905Y-91148819D02*
X167155857Y-91148819D01*
X167155857Y-91148819D02*
X167251095Y-91196438D01*
X167251095Y-91196438D02*
X167298714Y-91244057D01*
X167298714Y-91244057D02*
X167346333Y-91339295D01*
X167346333Y-91339295D02*
X167346333Y-91482152D01*
X167346333Y-91482152D02*
X167298714Y-91577390D01*
X167298714Y-91577390D02*
X167251095Y-91625009D01*
X167251095Y-91625009D02*
X167155857Y-91672628D01*
X167155857Y-91672628D02*
X166774905Y-91672628D01*
X168203476Y-91482152D02*
X168203476Y-92148819D01*
X167965381Y-91101200D02*
X167727286Y-91815485D01*
X167727286Y-91815485D02*
X168346333Y-91815485D01*
X162964905Y-99768819D02*
X162964905Y-98768819D01*
X162964905Y-98768819D02*
X163203000Y-98768819D01*
X163203000Y-98768819D02*
X163345857Y-98816438D01*
X163345857Y-98816438D02*
X163441095Y-98911676D01*
X163441095Y-98911676D02*
X163488714Y-99006914D01*
X163488714Y-99006914D02*
X163536333Y-99197390D01*
X163536333Y-99197390D02*
X163536333Y-99340247D01*
X163536333Y-99340247D02*
X163488714Y-99530723D01*
X163488714Y-99530723D02*
X163441095Y-99625961D01*
X163441095Y-99625961D02*
X163345857Y-99721200D01*
X163345857Y-99721200D02*
X163203000Y-99768819D01*
X163203000Y-99768819D02*
X162964905Y-99768819D01*
X163869667Y-98768819D02*
X164488714Y-98768819D01*
X164488714Y-98768819D02*
X164155381Y-99149771D01*
X164155381Y-99149771D02*
X164298238Y-99149771D01*
X164298238Y-99149771D02*
X164393476Y-99197390D01*
X164393476Y-99197390D02*
X164441095Y-99245009D01*
X164441095Y-99245009D02*
X164488714Y-99340247D01*
X164488714Y-99340247D02*
X164488714Y-99578342D01*
X164488714Y-99578342D02*
X164441095Y-99673580D01*
X164441095Y-99673580D02*
X164393476Y-99721200D01*
X164393476Y-99721200D02*
X164298238Y-99768819D01*
X164298238Y-99768819D02*
X164012524Y-99768819D01*
X164012524Y-99768819D02*
X163917286Y-99721200D01*
X163917286Y-99721200D02*
X163869667Y-99673580D01*
X162523667Y-119533200D02*
X162666524Y-119580819D01*
X162666524Y-119580819D02*
X162904619Y-119580819D01*
X162904619Y-119580819D02*
X162999857Y-119533200D01*
X162999857Y-119533200D02*
X163047476Y-119485580D01*
X163047476Y-119485580D02*
X163095095Y-119390342D01*
X163095095Y-119390342D02*
X163095095Y-119295104D01*
X163095095Y-119295104D02*
X163047476Y-119199866D01*
X163047476Y-119199866D02*
X162999857Y-119152247D01*
X162999857Y-119152247D02*
X162904619Y-119104628D01*
X162904619Y-119104628D02*
X162714143Y-119057009D01*
X162714143Y-119057009D02*
X162618905Y-119009390D01*
X162618905Y-119009390D02*
X162571286Y-118961771D01*
X162571286Y-118961771D02*
X162523667Y-118866533D01*
X162523667Y-118866533D02*
X162523667Y-118771295D01*
X162523667Y-118771295D02*
X162571286Y-118676057D01*
X162571286Y-118676057D02*
X162618905Y-118628438D01*
X162618905Y-118628438D02*
X162714143Y-118580819D01*
X162714143Y-118580819D02*
X162952238Y-118580819D01*
X162952238Y-118580819D02*
X163095095Y-118628438D01*
X163428429Y-118580819D02*
X163666524Y-119580819D01*
X163666524Y-119580819D02*
X163857000Y-118866533D01*
X163857000Y-118866533D02*
X164047476Y-119580819D01*
X164047476Y-119580819D02*
X164285572Y-118580819D01*
X165190333Y-119580819D02*
X164618905Y-119580819D01*
X164904619Y-119580819D02*
X164904619Y-118580819D01*
X164904619Y-118580819D02*
X164809381Y-118723676D01*
X164809381Y-118723676D02*
X164714143Y-118818914D01*
X164714143Y-118818914D02*
X164618905Y-118866533D01*
X153987667Y-82576200D02*
X154130524Y-82623819D01*
X154130524Y-82623819D02*
X154368619Y-82623819D01*
X154368619Y-82623819D02*
X154463857Y-82576200D01*
X154463857Y-82576200D02*
X154511476Y-82528580D01*
X154511476Y-82528580D02*
X154559095Y-82433342D01*
X154559095Y-82433342D02*
X154559095Y-82338104D01*
X154559095Y-82338104D02*
X154511476Y-82242866D01*
X154511476Y-82242866D02*
X154463857Y-82195247D01*
X154463857Y-82195247D02*
X154368619Y-82147628D01*
X154368619Y-82147628D02*
X154178143Y-82100009D01*
X154178143Y-82100009D02*
X154082905Y-82052390D01*
X154082905Y-82052390D02*
X154035286Y-82004771D01*
X154035286Y-82004771D02*
X153987667Y-81909533D01*
X153987667Y-81909533D02*
X153987667Y-81814295D01*
X153987667Y-81814295D02*
X154035286Y-81719057D01*
X154035286Y-81719057D02*
X154082905Y-81671438D01*
X154082905Y-81671438D02*
X154178143Y-81623819D01*
X154178143Y-81623819D02*
X154416238Y-81623819D01*
X154416238Y-81623819D02*
X154559095Y-81671438D01*
X154892429Y-81623819D02*
X155130524Y-82623819D01*
X155130524Y-82623819D02*
X155321000Y-81909533D01*
X155321000Y-81909533D02*
X155511476Y-82623819D01*
X155511476Y-82623819D02*
X155749572Y-81623819D01*
X156035286Y-81623819D02*
X156654333Y-81623819D01*
X156654333Y-81623819D02*
X156321000Y-82004771D01*
X156321000Y-82004771D02*
X156463857Y-82004771D01*
X156463857Y-82004771D02*
X156559095Y-82052390D01*
X156559095Y-82052390D02*
X156606714Y-82100009D01*
X156606714Y-82100009D02*
X156654333Y-82195247D01*
X156654333Y-82195247D02*
X156654333Y-82433342D01*
X156654333Y-82433342D02*
X156606714Y-82528580D01*
X156606714Y-82528580D02*
X156559095Y-82576200D01*
X156559095Y-82576200D02*
X156463857Y-82623819D01*
X156463857Y-82623819D02*
X156178143Y-82623819D01*
X156178143Y-82623819D02*
X156082905Y-82576200D01*
X156082905Y-82576200D02*
X156035286Y-82528580D01*
X170878667Y-82576200D02*
X171021524Y-82623819D01*
X171021524Y-82623819D02*
X171259619Y-82623819D01*
X171259619Y-82623819D02*
X171354857Y-82576200D01*
X171354857Y-82576200D02*
X171402476Y-82528580D01*
X171402476Y-82528580D02*
X171450095Y-82433342D01*
X171450095Y-82433342D02*
X171450095Y-82338104D01*
X171450095Y-82338104D02*
X171402476Y-82242866D01*
X171402476Y-82242866D02*
X171354857Y-82195247D01*
X171354857Y-82195247D02*
X171259619Y-82147628D01*
X171259619Y-82147628D02*
X171069143Y-82100009D01*
X171069143Y-82100009D02*
X170973905Y-82052390D01*
X170973905Y-82052390D02*
X170926286Y-82004771D01*
X170926286Y-82004771D02*
X170878667Y-81909533D01*
X170878667Y-81909533D02*
X170878667Y-81814295D01*
X170878667Y-81814295D02*
X170926286Y-81719057D01*
X170926286Y-81719057D02*
X170973905Y-81671438D01*
X170973905Y-81671438D02*
X171069143Y-81623819D01*
X171069143Y-81623819D02*
X171307238Y-81623819D01*
X171307238Y-81623819D02*
X171450095Y-81671438D01*
X171783429Y-81623819D02*
X172021524Y-82623819D01*
X172021524Y-82623819D02*
X172212000Y-81909533D01*
X172212000Y-81909533D02*
X172402476Y-82623819D01*
X172402476Y-82623819D02*
X172640572Y-81623819D01*
X172973905Y-81719057D02*
X173021524Y-81671438D01*
X173021524Y-81671438D02*
X173116762Y-81623819D01*
X173116762Y-81623819D02*
X173354857Y-81623819D01*
X173354857Y-81623819D02*
X173450095Y-81671438D01*
X173450095Y-81671438D02*
X173497714Y-81719057D01*
X173497714Y-81719057D02*
X173545333Y-81814295D01*
X173545333Y-81814295D02*
X173545333Y-81909533D01*
X173545333Y-81909533D02*
X173497714Y-82052390D01*
X173497714Y-82052390D02*
X172926286Y-82623819D01*
X172926286Y-82623819D02*
X173545333Y-82623819D01*
X152066666Y-88735819D02*
X152066666Y-89450104D01*
X152066666Y-89450104D02*
X152019047Y-89592961D01*
X152019047Y-89592961D02*
X151923809Y-89688200D01*
X151923809Y-89688200D02*
X151780952Y-89735819D01*
X151780952Y-89735819D02*
X151685714Y-89735819D01*
X152447619Y-88735819D02*
X153066666Y-88735819D01*
X153066666Y-88735819D02*
X152733333Y-89116771D01*
X152733333Y-89116771D02*
X152876190Y-89116771D01*
X152876190Y-89116771D02*
X152971428Y-89164390D01*
X152971428Y-89164390D02*
X153019047Y-89212009D01*
X153019047Y-89212009D02*
X153066666Y-89307247D01*
X153066666Y-89307247D02*
X153066666Y-89545342D01*
X153066666Y-89545342D02*
X153019047Y-89640580D01*
X153019047Y-89640580D02*
X152971428Y-89688200D01*
X152971428Y-89688200D02*
X152876190Y-89735819D01*
X152876190Y-89735819D02*
X152590476Y-89735819D01*
X152590476Y-89735819D02*
X152495238Y-89688200D01*
X152495238Y-89688200D02*
X152447619Y-89640580D01*
X167346333Y-95958819D02*
X167013000Y-95482628D01*
X166774905Y-95958819D02*
X166774905Y-94958819D01*
X166774905Y-94958819D02*
X167155857Y-94958819D01*
X167155857Y-94958819D02*
X167251095Y-95006438D01*
X167251095Y-95006438D02*
X167298714Y-95054057D01*
X167298714Y-95054057D02*
X167346333Y-95149295D01*
X167346333Y-95149295D02*
X167346333Y-95292152D01*
X167346333Y-95292152D02*
X167298714Y-95387390D01*
X167298714Y-95387390D02*
X167251095Y-95435009D01*
X167251095Y-95435009D02*
X167155857Y-95482628D01*
X167155857Y-95482628D02*
X166774905Y-95482628D01*
X167727286Y-95054057D02*
X167774905Y-95006438D01*
X167774905Y-95006438D02*
X167870143Y-94958819D01*
X167870143Y-94958819D02*
X168108238Y-94958819D01*
X168108238Y-94958819D02*
X168203476Y-95006438D01*
X168203476Y-95006438D02*
X168251095Y-95054057D01*
X168251095Y-95054057D02*
X168298714Y-95149295D01*
X168298714Y-95149295D02*
X168298714Y-95244533D01*
X168298714Y-95244533D02*
X168251095Y-95387390D01*
X168251095Y-95387390D02*
X167679667Y-95958819D01*
X167679667Y-95958819D02*
X168298714Y-95958819D01*
X163068095Y-108674819D02*
X163068095Y-109484342D01*
X163068095Y-109484342D02*
X163115714Y-109579580D01*
X163115714Y-109579580D02*
X163163333Y-109627200D01*
X163163333Y-109627200D02*
X163258571Y-109674819D01*
X163258571Y-109674819D02*
X163449047Y-109674819D01*
X163449047Y-109674819D02*
X163544285Y-109627200D01*
X163544285Y-109627200D02*
X163591904Y-109579580D01*
X163591904Y-109579580D02*
X163639523Y-109484342D01*
X163639523Y-109484342D02*
X163639523Y-108674819D01*
X164639523Y-109674819D02*
X164068095Y-109674819D01*
X164353809Y-109674819D02*
X164353809Y-108674819D01*
X164353809Y-108674819D02*
X164258571Y-108817676D01*
X164258571Y-108817676D02*
X164163333Y-108912914D01*
X164163333Y-108912914D02*
X164068095Y-108960533D01*
X166901905Y-90243819D02*
X166901905Y-89243819D01*
X166901905Y-89243819D02*
X167140000Y-89243819D01*
X167140000Y-89243819D02*
X167282857Y-89291438D01*
X167282857Y-89291438D02*
X167378095Y-89386676D01*
X167378095Y-89386676D02*
X167425714Y-89481914D01*
X167425714Y-89481914D02*
X167473333Y-89672390D01*
X167473333Y-89672390D02*
X167473333Y-89815247D01*
X167473333Y-89815247D02*
X167425714Y-90005723D01*
X167425714Y-90005723D02*
X167378095Y-90100961D01*
X167378095Y-90100961D02*
X167282857Y-90196200D01*
X167282857Y-90196200D02*
X167140000Y-90243819D01*
X167140000Y-90243819D02*
X166901905Y-90243819D01*
X168425714Y-90243819D02*
X167854286Y-90243819D01*
X168140000Y-90243819D02*
X168140000Y-89243819D01*
X168140000Y-89243819D02*
X168044762Y-89386676D01*
X168044762Y-89386676D02*
X167949524Y-89481914D01*
X167949524Y-89481914D02*
X167854286Y-89529533D01*
X163496666Y-81242819D02*
X163496666Y-81957104D01*
X163496666Y-81957104D02*
X163449047Y-82099961D01*
X163449047Y-82099961D02*
X163353809Y-82195200D01*
X163353809Y-82195200D02*
X163210952Y-82242819D01*
X163210952Y-82242819D02*
X163115714Y-82242819D01*
X164496666Y-82242819D02*
X163925238Y-82242819D01*
X164210952Y-82242819D02*
X164210952Y-81242819D01*
X164210952Y-81242819D02*
X164115714Y-81385676D01*
X164115714Y-81385676D02*
X164020476Y-81480914D01*
X164020476Y-81480914D02*
X163925238Y-81528533D01*
D11*
%TO.C,R6*%
X164057064Y-88619000D02*
X163602936Y-88619000D01*
X164057064Y-87149000D02*
X163602936Y-87149000D01*
%TO.C,R3*%
X167285936Y-100357000D02*
X167740064Y-100357000D01*
X167285936Y-101827000D02*
X167740064Y-101827000D01*
%TO.C,D4*%
X165563000Y-94432000D02*
X165563000Y-92512000D01*
X165563000Y-92512000D02*
X162703000Y-92512000D01*
X162703000Y-94432000D02*
X165563000Y-94432000D01*
%TO.C,R5*%
X160247064Y-88619000D02*
X159792936Y-88619000D01*
X160247064Y-87149000D02*
X159792936Y-87149000D01*
%TO.C,J4*%
X173930000Y-90115000D02*
X175260000Y-90115000D01*
X173930000Y-91445000D02*
X173930000Y-90115000D01*
X173930000Y-92715000D02*
X173930000Y-128335000D01*
X173930000Y-92715000D02*
X176590000Y-92715000D01*
X173930000Y-128335000D02*
X176590000Y-128335000D01*
X176590000Y-92715000D02*
X176590000Y-128335000D01*
%TO.C,J2*%
X159975000Y-128335000D02*
X159975000Y-127005000D01*
X161305000Y-128335000D02*
X159975000Y-128335000D01*
X162575000Y-128335000D02*
X167715000Y-128335000D01*
X162575000Y-128335000D02*
X162575000Y-125735000D01*
X167715000Y-128335000D02*
X167715000Y-123135000D01*
X159975000Y-125735000D02*
X159975000Y-123135000D01*
X162575000Y-125735000D02*
X159975000Y-125735000D01*
X159975000Y-123135000D02*
X167715000Y-123135000D01*
%TO.C,D2*%
X161843000Y-96322000D02*
X161843000Y-98242000D01*
X161843000Y-98242000D02*
X164703000Y-98242000D01*
X164703000Y-96322000D02*
X161843000Y-96322000D01*
%TO.C,R1*%
X159031000Y-119353064D02*
X159031000Y-118898936D01*
X160501000Y-119353064D02*
X160501000Y-118898936D01*
%TO.C,R4*%
X167285936Y-92737000D02*
X167740064Y-92737000D01*
X167285936Y-94207000D02*
X167740064Y-94207000D01*
%TO.C,D3*%
X161843000Y-100132000D02*
X161843000Y-102052000D01*
X161843000Y-102052000D02*
X164703000Y-102052000D01*
X164703000Y-100132000D02*
X161843000Y-100132000D01*
%TO.C,SW1*%
X161630000Y-119176000D02*
X161630000Y-119076000D01*
X161630000Y-120676000D02*
X166030000Y-120676000D01*
X166030000Y-117576000D02*
X161630000Y-117576000D01*
X166030000Y-119176000D02*
X166030000Y-119076000D01*
D12*
%TO.C,SW3*%
X153650000Y-88312000D02*
X151150000Y-88312000D01*
X151150000Y-88312000D02*
X151150000Y-78312000D01*
X151150000Y-78312000D02*
X153650000Y-78312000D01*
X153650000Y-78312000D02*
X153650000Y-88312000D01*
%TO.C,SW2*%
X176510000Y-88312000D02*
X174010000Y-88312000D01*
X174010000Y-88312000D02*
X174010000Y-78312000D01*
X174010000Y-78312000D02*
X176510000Y-78312000D01*
X176510000Y-78312000D02*
X176510000Y-88312000D01*
D11*
%TO.C,J3*%
X151070000Y-90115000D02*
X152400000Y-90115000D01*
X151070000Y-91445000D02*
X151070000Y-90115000D01*
X151070000Y-92715000D02*
X151070000Y-128335000D01*
X151070000Y-92715000D02*
X153730000Y-92715000D01*
X151070000Y-128335000D02*
X153730000Y-128335000D01*
X153730000Y-92715000D02*
X153730000Y-128335000D01*
%TO.C,R2*%
X167285936Y-96547000D02*
X167740064Y-96547000D01*
X167285936Y-98017000D02*
X167740064Y-98017000D01*
D10*
%TO.C,U1*%
X160205000Y-112845000D02*
X160430000Y-112845000D01*
X160205000Y-112845000D02*
X160205000Y-112520000D01*
X160430000Y-112845000D02*
X160430000Y-114270000D01*
X167455000Y-112845000D02*
X167130000Y-112845000D01*
X167455000Y-112845000D02*
X167455000Y-112520000D01*
X160205000Y-105595000D02*
X160205000Y-105920000D01*
X160205000Y-105595000D02*
X160530000Y-105595000D01*
X167455000Y-105595000D02*
X167455000Y-105920000D01*
X167455000Y-105595000D02*
X167130000Y-105595000D01*
D11*
%TO.C,D1*%
X169500000Y-88844000D02*
X169500000Y-86924000D01*
X169500000Y-86924000D02*
X166640000Y-86924000D01*
X166640000Y-88844000D02*
X169500000Y-88844000D01*
%TO.C,J1*%
X168500000Y-81888000D02*
X168500000Y-83588000D01*
X159160000Y-81888000D02*
X159160000Y-83588000D01*
%TD*%
%LPC*%
D13*
%TO.C,R6*%
X164830000Y-87884000D03*
X162830000Y-87884000D03*
%TD*%
D14*
%TO.C,R3*%
X166513000Y-101092000D03*
X168513000Y-101092000D03*
%TD*%
D15*
%TO.C,D4*%
X164728000Y-93472000D03*
X162678000Y-93472000D03*
%TD*%
D13*
%TO.C,R5*%
X161020000Y-87884000D03*
X159020000Y-87884000D03*
%TD*%
D16*
%TO.C,J4*%
X175260000Y-91445000D03*
D17*
X175260000Y-93985000D03*
X175260000Y-96525000D03*
X175260000Y-99065000D03*
X175260000Y-101605000D03*
X175260000Y-104145000D03*
X175260000Y-106685000D03*
X175260000Y-109225000D03*
X175260000Y-111765000D03*
X175260000Y-114305000D03*
X175260000Y-116845000D03*
X175260000Y-119385000D03*
X175260000Y-121925000D03*
X175260000Y-124465000D03*
X175260000Y-127005000D03*
%TD*%
D16*
%TO.C,J2*%
X161305000Y-127005000D03*
D17*
X161305000Y-124465000D03*
X163845000Y-127005000D03*
X163845000Y-124465000D03*
X166385000Y-127005000D03*
X166385000Y-124465000D03*
%TD*%
D18*
%TO.C,D2*%
X162678000Y-97282000D03*
X164728000Y-97282000D03*
%TD*%
D19*
%TO.C,R1*%
X159766000Y-120126000D03*
X159766000Y-118126000D03*
%TD*%
D14*
%TO.C,R4*%
X166513000Y-93472000D03*
X168513000Y-93472000D03*
%TD*%
D18*
%TO.C,D3*%
X162678000Y-101092000D03*
X164728000Y-101092000D03*
%TD*%
D20*
%TO.C,SW1*%
X161780000Y-118326000D03*
X165880000Y-118326000D03*
X161780000Y-119926000D03*
X165880000Y-119926000D03*
%TD*%
D21*
%TO.C,SW3*%
X152400000Y-85852000D03*
X152400000Y-83312000D03*
X152400000Y-80772000D03*
%TD*%
%TO.C,SW2*%
X175260000Y-85852000D03*
X175260000Y-83312000D03*
X175260000Y-80772000D03*
%TD*%
D16*
%TO.C,J3*%
X152400000Y-91445000D03*
D17*
X152400000Y-93985000D03*
X152400000Y-96525000D03*
X152400000Y-99065000D03*
X152400000Y-101605000D03*
X152400000Y-104145000D03*
X152400000Y-106685000D03*
X152400000Y-109225000D03*
X152400000Y-111765000D03*
X152400000Y-114305000D03*
X152400000Y-116845000D03*
X152400000Y-119385000D03*
X152400000Y-121925000D03*
X152400000Y-124465000D03*
X152400000Y-127005000D03*
%TD*%
D14*
%TO.C,R2*%
X166513000Y-97282000D03*
X168513000Y-97282000D03*
%TD*%
D22*
%TO.C,U1*%
X161030000Y-113470000D03*
X161830000Y-113470000D03*
X162630000Y-113470000D03*
X163430000Y-113470000D03*
X164230000Y-113470000D03*
X165030000Y-113470000D03*
X165830000Y-113470000D03*
X166630000Y-113470000D03*
D23*
X168080000Y-112020000D03*
X168080000Y-111220000D03*
X168080000Y-110420000D03*
X168080000Y-109620000D03*
X168080000Y-108820000D03*
X168080000Y-108020000D03*
X168080000Y-107220000D03*
X168080000Y-106420000D03*
D22*
X166630000Y-104970000D03*
X165830000Y-104970000D03*
X165030000Y-104970000D03*
X164230000Y-104970000D03*
X163430000Y-104970000D03*
X162630000Y-104970000D03*
X161830000Y-104970000D03*
X161030000Y-104970000D03*
D23*
X159580000Y-106420000D03*
X159580000Y-107220000D03*
X159580000Y-108020000D03*
X159580000Y-108820000D03*
X159580000Y-109620000D03*
X159580000Y-110420000D03*
X159580000Y-111220000D03*
X159580000Y-112020000D03*
%TD*%
D15*
%TO.C,D1*%
X168665000Y-87884000D03*
X166615000Y-87884000D03*
%TD*%
D24*
%TO.C,J1*%
X166720000Y-84393000D03*
X160940000Y-84393000D03*
D25*
X167030000Y-85468000D03*
X166230000Y-85468000D03*
D26*
X165080000Y-85468000D03*
X164080000Y-85468000D03*
X163580000Y-85468000D03*
X162580000Y-85468000D03*
D25*
X161430000Y-85468000D03*
X160630000Y-85468000D03*
X160630000Y-85468000D03*
X161430000Y-85468000D03*
D26*
X162080000Y-85468000D03*
X163080000Y-85468000D03*
X164580000Y-85468000D03*
X165580000Y-85468000D03*
D25*
X166230000Y-85468000D03*
X167030000Y-85468000D03*
D27*
X168150000Y-84893000D03*
D28*
X168150000Y-80713000D03*
D27*
X159510000Y-84893000D03*
D28*
X159510000Y-80713000D03*
%TD*%
%LPD*%
M02*
